<!DOCTYPE svg PUBLIC "-//W3C//DTD SVG 1.1//EN" "http://www.w3.org/Graphics/SVG/1.1/DTD/svg11.dtd">
<svg xmlns="http://www.w3.org/2000/svg" version="1.200000" width="100%" height="100%" viewBox="0 0 1081 733" xmlns:xlink="http://www.w3.org/1999/xlink"><g stroke="none" stroke-width="0" shape-rendering="crispEdges">
<path d="M 50.000000 719.000000 L 126.000000,722.000000 0.000000,732.000000 Z" fill="rgb(23,22,30)" fill-opacity="1" />
<path d="M 408.000000 621.000000 L 411.000000,679.000000 381.000000,672.000000 Z" fill="rgb(65,50,50)" fill-opacity="1" />
<path d="M 165.000000 414.000000 L 156.000000,419.000000 149.000000,420.000000 Z" fill="rgb(212,193,181)" fill-opacity="1" />
<path d="M 632.159385 270.512554 L 531.000000,223.000000 684.012517,222.741557 Z" fill="rgb(220,182,144)" fill-opacity="1" />
<path d="M 254.000000 677.000000 L 175.000000,725.000000 168.000000,657.000000 Z" fill="rgb(109,83,83)" fill-opacity="1" />
<path d="M 632.159385 270.512554 L 524.750006,272.886133 531.000000,223.000000 Z" fill="rgb(144,82,52)" fill-opacity="1" />
<path d="M 67.000000 437.000000 L 109.000000,368.000000 117.267721,427.170001 Z" fill="rgb(37,31,36)" fill-opacity="1" />
<path d="M 420.285108 692.219751 L 407.000000,686.000000 411.000000,679.000000 Z" fill="rgb(43,29,41)" fill-opacity="1" />
<path d="M 229.000000 306.000000 L 217.106292,305.664372 227.000000,278.000000 Z" fill="rgb(55,49,45)" fill-opacity="1" />
<path d="M 306.000000 204.000000 L 270.000000,203.000000 307.000000,195.000000 Z" fill="rgb(34,26,22)" fill-opacity="1" />
<path d="M 15.000000 59.000000 L 25.182905,59.701665 41.000000,114.000000 Z" fill="rgb(78,76,90)" fill-opacity="1" />
<path d="M 482.000000 390.000000 L 424.000000,365.000000 485.000000,362.000000 Z" fill="rgb(43,23,21)" fill-opacity="1" />
<path d="M 95.131534 512.039635 L 121.975401,517.175367 146.000000,575.000000 Z" fill="rgb(29,16,20)" fill-opacity="1" />
<path d="M 109.000000 450.000000 L 117.267721,427.170001 128.466981,432.989140 Z" fill="rgb(34,21,28)" fill-opacity="1" />
<path d="M 153.000000 564.000000 L 150.000000,543.000000 205.584341,554.717496 Z" fill="rgb(54,36,31)" fill-opacity="1" />
<path d="M 100.000000 469.000000 L 95.131534,512.039635 10.758368,513.421235 Z" fill="rgb(116,92,85)" fill-opacity="1" />
<path d="M 305.000000 264.000000 L 320.000000,306.000000 308.000000,297.000000 Z" fill="rgb(30,27,31)" fill-opacity="1" />
<path d="M 368.304701 655.459441 L 408.000000,621.000000 381.000000,672.000000 Z" fill="rgb(37,20,25)" fill-opacity="1" />
<path d="M 371.000000 719.000000 L 358.624467,713.373990 381.000000,672.000000 Z" fill="rgb(40,28,34)" fill-opacity="1" />
<path d="M 509.000000 472.000000 L 432.000000,477.000000 506.234892,434.039916 Z" fill="rgb(154,116,100)" fill-opacity="1" />
<path d="M 382.000000 547.000000 L 371.000000,525.000000 393.000000,503.000000 Z" fill="rgb(46,35,32)" fill-opacity="1" />
<path d="M 109.000000 368.000000 L 137.000000,337.000000 142.000000,357.000000 Z" fill="rgb(37,29,31)" fill-opacity="1" />
<path d="M 381.000000 672.000000 L 411.000000,679.000000 407.000000,686.000000 Z" fill="rgb(38,23,24)" fill-opacity="1" />
<path d="M 809.340470 709.885654 L 791.095057,684.675820 807.479888,701.693469 Z" fill="rgb(95,78,89)" fill-opacity="1" />
<path d="M 411.000000 679.000000 L 436.260127,647.016368 420.285108,692.219751 Z" fill="rgb(42,32,48)" fill-opacity="1" />
<path d="M 415.041214 466.232798 L 432.000000,477.000000 393.000000,503.000000 Z" fill="rgb(45,32,29)" fill-opacity="1" />
<path d="M 436.260127 647.016368 L 445.000000,627.000000 459.000000,650.000000 Z" fill="rgb(36,19,18)" fill-opacity="1" />
<path d="M 175.000000 725.000000 L 1080.000000,732.000000 0.000000,732.000000 Z" fill="rgb(55,45,41)" fill-opacity="1" />
<path d="M 440.000000 419.000000 L 482.000000,390.000000 506.234892,434.039916 Z" fill="rgb(44,29,26)" fill-opacity="1" />
<path d="M 333.000000 147.000000 L 325.000000,117.000000 370.000000,119.000000 Z" fill="rgb(35,34,40)" fill-opacity="1" />
<path d="M 264.000000 143.000000 L 280.267088,110.417588 304.124317,110.639540 Z" fill="rgb(40,33,29)" fill-opacity="1" />
<path d="M 772.244788 507.755903 L 692.470771,472.390559 756.964094,414.758827 Z" fill="rgb(186,124,88)" fill-opacity="1" />
<path d="M 775.644475 319.608764 L 756.964094,414.758827 711.036611,297.334576 Z" fill="rgb(230,200,170)" fill-opacity="1" />
<path d="M 929.000000 544.000000 L 948.593904,376.701626 1042.000000,569.000000 Z" fill="rgb(123,79,82)" fill-opacity="1" />
<path d="M 720.522736 66.575492 L 733.895366,56.158620 705.395371,86.690943 Z" fill="rgb(191,121,106)" fill-opacity="1" />
<path d="M 227.000000 278.000000 L 250.000000,207.000000 290.000000,246.000000 Z" fill="rgb(39,24,32)" fill-opacity="1" />
<path d="M 0.000000 0.000000 L 15.000000,59.000000 36.000000,290.000000 Z" fill="rgb(113,111,114)" fill-opacity="1" />
<path d="M 136.000000 96.000000 L 143.000000,63.000000 174.000000,102.000000 Z" fill="rgb(41,41,41)" fill-opacity="1" />
<path d="M 0.000000 0.000000 L 25.182905,59.701665 15.000000,59.000000 Z" fill="rgb(60,59,66)" fill-opacity="1" />
<path d="M 0.000000 0.000000 L 143.000000,63.000000 25.182905,59.701665 Z" fill="rgb(84,77,77)" fill-opacity="1" />
<path d="M 270.000000 68.000000 L 300.000000,58.000000 293.000000,91.000000 Z" fill="rgb(60,46,43)" fill-opacity="1" />
<path d="M 290.000000 246.000000 L 270.000000,203.000000 292.000000,219.000000 Z" fill="rgb(32,19,23)" fill-opacity="1" />
<path d="M 187.070490 179.962841 L 136.000000,96.000000 174.000000,102.000000 Z" fill="rgb(65,58,62)" fill-opacity="1" />
<path d="M 415.000000 264.000000 L 354.701671,256.503357 359.000000,218.000000 Z" fill="rgb(26,20,21)" fill-opacity="1" />
<path d="M 143.000000 63.000000 L 195.000000,55.000000 174.000000,102.000000 Z" fill="rgb(57,44,41)" fill-opacity="1" />
<path d="M 143.000000 63.000000 L 0.000000,0.000000 195.000000,55.000000 Z" fill="rgb(101,92,93)" fill-opacity="1" />
<path d="M 325.000000 117.000000 L 304.124317,110.639540 330.000000,82.000000 Z" fill="rgb(44,33,29)" fill-opacity="1" />
<path d="M 557.058619 108.379459 L 526.393872,76.025090 607.421615,44.285532 Z" fill="rgb(147,89,65)" fill-opacity="1" />
<path d="M 482.000000 390.000000 L 440.000000,419.000000 421.000000,386.000000 Z" fill="rgb(30,18,13)" fill-opacity="1" />
<path d="M 307.000000 195.000000 L 264.000000,143.000000 333.000000,147.000000 Z" fill="rgb(40,28,29)" fill-opacity="1" />
<path d="M 353.000000 255.000000 L 341.000000,233.000000 359.000000,218.000000 Z" fill="rgb(24,15,18)" fill-opacity="1" />
<path d="M 325.000000 504.000000 L 371.000000,525.000000 346.000000,557.000000 Z" fill="rgb(53,34,32)" fill-opacity="1" />
<path d="M 349.000000 449.000000 L 339.000000,498.000000 322.000000,477.000000 Z" fill="rgb(29,16,20)" fill-opacity="1" />
<path d="M 305.000000 264.000000 L 287.187030,263.797104 290.000000,246.000000 Z" fill="rgb(29,23,24)" fill-opacity="1" />
<path d="M 199.000000 421.000000 L 221.183410,328.884604 253.000000,363.000000 Z" fill="rgb(47,28,27)" fill-opacity="1" />
<path d="M 136.000000 96.000000 L 25.182905,59.701665 143.000000,63.000000 Z" fill="rgb(105,99,99)" fill-opacity="1" />
<path d="M 227.000000 278.000000 L 217.000000,275.000000 209.000000,253.000000 Z" fill="rgb(59,41,57)" fill-opacity="1" />
<path d="M 205.000000 273.000000 L 177.096983,253.233883 209.000000,253.000000 Z" fill="rgb(66,54,55)" fill-opacity="1" />
<path d="M 320.000000 306.000000 L 320.000000,344.000000 308.000000,297.000000 Z" fill="rgb(24,21,26)" fill-opacity="1" />
<path d="M 287.187030 263.797104 L 227.000000,278.000000 290.000000,246.000000 Z" fill="rgb(39,26,27)" fill-opacity="1" />
<path d="M 329.000000 218.000000 L 306.000000,204.000000 307.000000,195.000000 Z" fill="rgb(37,26,23)" fill-opacity="1" />
<path d="M 450.000000 201.000000 L 423.701055,211.503330 420.000000,182.000000 Z" fill="rgb(43,20,19)" fill-opacity="1" />
<path d="M 10.355058 615.639879 L 4.164057,568.030882 26.186525,580.754696 Z" fill="rgb(41,43,48)" fill-opacity="1" />
<path d="M 15.000000 59.000000 L 41.000000,114.000000 36.000000,290.000000 Z" fill="rgb(130,123,117)" fill-opacity="1" />
<path d="M 153.000000 564.000000 L 146.000000,575.000000 150.000000,543.000000 Z" fill="rgb(63,51,60)" fill-opacity="1" />
<path d="M 24.094021 441.966027 L 32.931231,367.768755 67.000000,437.000000 Z" fill="rgb(112,102,100)" fill-opacity="1" />
<path d="M 95.131534 512.039635 L 33.311897,555.368862 10.758368,513.421235 Z" fill="rgb(76,71,75)" fill-opacity="1" />
<path d="M 67.000000 437.000000 L 117.267721,427.170001 109.000000,450.000000 Z" fill="rgb(50,25,18)" fill-opacity="1" />
<path d="M 0.000000 732.000000 L 14.000000,717.000000 50.000000,719.000000 Z" fill="rgb(21,20,29)" fill-opacity="1" />
<path d="M 10.758368 513.421235 L 24.094021,441.966027 67.000000,437.000000 Z" fill="rgb(66,67,73)" fill-opacity="1" />
<path d="M 109.000000 450.000000 L 117.000000,482.000000 100.000000,469.000000 Z" fill="rgb(32,23,29)" fill-opacity="1" />
<path d="M 26.186525 580.754696 L 4.164057,568.030882 33.311897,555.368862 Z" fill="rgb(68,61,61)" fill-opacity="1" />
<path d="M 146.000000 575.000000 L 43.990169,624.260308 33.311897,555.368862 Z" fill="rgb(134,122,122)" fill-opacity="1" />
<path d="M 175.000000 725.000000 L 371.000000,719.000000 1080.000000,732.000000 Z" fill="rgb(85,74,73)" fill-opacity="1" />
<path d="M 128.466981 432.989140 L 142.000000,453.000000 109.000000,450.000000 Z" fill="rgb(31,18,25)" fill-opacity="1" />
<path d="M 161.000000 491.000000 L 150.000000,543.000000 121.975401,517.175367 Z" fill="rgb(32,22,32)" fill-opacity="1" />
<path d="M 14.000000 717.000000 L 31.726027,652.763597 49.000000,678.000000 Z" fill="rgb(23,23,37)" fill-opacity="1" />
<path d="M 371.000000 719.000000 L 809.340470,709.885654 1080.000000,732.000000 Z" fill="rgb(52,36,47)" fill-opacity="1" />
<path d="M 106.559386 696.947236 L 58.000000,664.000000 117.458158,634.554054 Z" fill="rgb(93,84,81)" fill-opacity="1" />
<path d="M 175.000000 725.000000 L 254.000000,677.000000 358.624467,713.373990 Z" fill="rgb(95,75,72)" fill-opacity="1" />
<path d="M 203.000000 514.000000 L 150.000000,543.000000 161.000000,491.000000 Z" fill="rgb(34,21,22)" fill-opacity="1" />
<path d="M 146.000000 575.000000 L 117.458158,634.554054 43.990169,624.260308 Z" fill="rgb(112,101,98)" fill-opacity="1" />
<path d="M 161.000000 491.000000 L 121.975401,517.175367 117.000000,482.000000 Z" fill="rgb(32,17,29)" fill-opacity="1" />
<path d="M 121.975401 517.175367 L 150.000000,543.000000 146.000000,575.000000 Z" fill="rgb(43,29,27)" fill-opacity="1" />
<path d="M 308.000000 297.000000 L 320.000000,344.000000 268.000000,307.000000 Z" fill="rgb(21,15,13)" fill-opacity="1" />
<path d="M 142.000000 453.000000 L 149.000000,420.000000 165.243750,433.631039 Z" fill="rgb(49,32,35)" fill-opacity="1" />
<path d="M 325.000000 504.000000 L 293.980512,572.078894 286.000000,506.000000 Z" fill="rgb(39,27,24)" fill-opacity="1" />
<path d="M 205.584341 554.717496 L 150.000000,543.000000 203.000000,514.000000 Z" fill="rgb(29,19,29)" fill-opacity="1" />
<path d="M 149.000000 420.000000 L 117.267721,427.170001 109.000000,368.000000 Z" fill="rgb(31,22,25)" fill-opacity="1" />
<path d="M 415.000000 264.000000 L 397.000000,310.000000 354.701671,256.503357 Z" fill="rgb(70,49,38)" fill-opacity="1" />
<path d="M 325.000000 504.000000 L 339.000000,498.000000 371.000000,525.000000 Z" fill="rgb(42,28,29)" fill-opacity="1" />
<path d="M 401.000000 400.000000 L 393.000000,397.000000 421.000000,386.000000 Z" fill="rgb(40,33,41)" fill-opacity="1" />
<path d="M 391.000000 412.000000 L 349.000000,449.000000 367.000000,377.000000 Z" fill="rgb(25,15,21)" fill-opacity="1" />
<path d="M 314.000000 357.000000 L 252.000000,349.000000 268.000000,307.000000 Z" fill="rgb(25,15,15)" fill-opacity="1" />
<path d="M 408.000000 621.000000 L 436.260127,647.016368 411.000000,679.000000 Z" fill="rgb(47,27,25)" fill-opacity="1" />
<path d="M 371.000000 525.000000 L 339.000000,498.000000 393.000000,503.000000 Z" fill="rgb(29,20,20)" fill-opacity="1" />
<path d="M 414.000000 584.000000 L 346.000000,557.000000 382.000000,547.000000 Z" fill="rgb(37,20,20)" fill-opacity="1" />
<path d="M 293.980512 572.078894 L 265.000000,528.000000 286.000000,506.000000 Z" fill="rgb(34,27,33)" fill-opacity="1" />
<path d="M 132.000000 720.000000 L 168.000000,657.000000 175.000000,725.000000 Z" fill="rgb(59,52,57)" fill-opacity="1" />
<path d="M 809.340470 709.885654 L 662.000000,687.000000 758.000000,687.000000 Z" fill="rgb(57,35,45)" fill-opacity="1" />
<path d="M 371.000000 719.000000 L 420.285108,692.219751 466.000000,705.000000 Z" fill="rgb(34,22,19)" fill-opacity="1" />
<path d="M 371.000000 719.000000 L 407.000000,686.000000 420.285108,692.219751 Z" fill="rgb(40,28,32)" fill-opacity="1" />
<path d="M 432.000000 477.000000 L 509.000000,472.000000 509.498390,501.468172 Z" fill="rgb(29,12,18)" fill-opacity="1" />
<path d="M 459.000000 650.000000 L 420.285108,692.219751 436.260127,647.016368 Z" fill="rgb(40,26,27)" fill-opacity="1" />
<path d="M 459.000000 650.000000 L 518.000000,613.000000 540.000000,680.000000 Z" fill="rgb(70,51,63)" fill-opacity="1" />
<path d="M 540.000000 680.000000 L 466.000000,705.000000 459.000000,650.000000 Z" fill="rgb(223,190,157)" fill-opacity="1" />
<path d="M 538.000000 603.000000 L 540.000000,680.000000 518.000000,613.000000 Z" fill="rgb(123,81,61)" fill-opacity="1" />
<path d="M 662.000000 687.000000 L 466.000000,705.000000 540.000000,680.000000 Z" fill="rgb(54,50,41)" fill-opacity="1" />
<path d="M 925.573043 595.321819 L 929.000000,544.000000 947.000000,622.000000 Z" fill="rgb(131,96,93)" fill-opacity="1" />
<path d="M 1042.000000 569.000000 L 1030.124507,350.526037 1080.000000,565.000000 Z" fill="rgb(100,79,74)" fill-opacity="1" />
<path d="M 528.000000 379.000000 L 557.000000,451.000000 506.234892,434.039916 Z" fill="rgb(55,22,18)" fill-opacity="1" />
<path d="M 512.000000 582.000000 L 518.000000,613.000000 445.000000,627.000000 Z" fill="rgb(47,30,33)" fill-opacity="1" />
<path d="M 540.000000 680.000000 L 538.000000,603.000000 606.000000,626.000000 Z" fill="rgb(70,52,45)" fill-opacity="1" />
<path d="M 528.000000 379.000000 L 497.000000,383.000000 505.000000,369.000000 Z" fill="rgb(55,26,24)" fill-opacity="1" />
<path d="M 796.000000 665.000000 L 739.827425,654.769160 802.691532,635.347097 Z" fill="rgb(83,48,59)" fill-opacity="1" />
<path d="M 772.244788 507.755903 L 746.768053,530.838156 692.470771,472.390559 Z" fill="rgb(153,58,40)" fill-opacity="1" />
<path d="M 987.768844 661.549133 L 1042.000000,569.000000 1080.000000,565.000000 Z" fill="rgb(143,115,112)" fill-opacity="1" />
<path d="M 358.000000 353.000000 L 397.000000,310.000000 416.000000,325.000000 Z" fill="rgb(27,21,23)" fill-opacity="1" />
<path d="M 420.000000 350.000000 L 367.000000,377.000000 358.000000,353.000000 Z" fill="rgb(26,10,22)" fill-opacity="1" />
<path d="M 485.000000 362.000000 L 489.000000,387.000000 482.000000,390.000000 Z" fill="rgb(54,32,32)" fill-opacity="1" />
<path d="M 497.000000 383.000000 L 506.234892,434.039916 489.000000,387.000000 Z" fill="rgb(50,25,18)" fill-opacity="1" />
<path d="M 632.159385 270.512554 L 532.745994,313.298058 524.750006,272.886133 Z" fill="rgb(152,86,52)" fill-opacity="1" />
<path d="M 464.947172 289.020421 L 427.000000,357.000000 416.000000,325.000000 Z" fill="rgb(43,27,26)" fill-opacity="1" />
<path d="M 393.000000 397.000000 L 391.000000,412.000000 367.000000,377.000000 Z" fill="rgb(26,17,19)" fill-opacity="1" />
<path d="M 320.000000 344.000000 L 320.000000,306.000000 339.000000,330.000000 Z" fill="rgb(42,36,37)" fill-opacity="1" />
<path d="M 307.000000 195.000000 L 333.000000,147.000000 347.000000,158.000000 Z" fill="rgb(33,24,24)" fill-opacity="1" />
<path d="M 367.000000 377.000000 L 420.000000,350.000000 424.000000,365.000000 Z" fill="rgb(27,12,8)" fill-opacity="1" />
<path d="M 353.000000 255.000000 L 359.000000,218.000000 354.701671,256.503357 Z" fill="rgb(54,42,43)" fill-opacity="1" />
<path d="M 464.947172 289.020421 L 510.000000,316.000000 485.000000,362.000000 Z" fill="rgb(84,53,43)" fill-opacity="1" />
<path d="M 411.986886 445.490105 L 401.000000,400.000000 440.000000,419.000000 Z" fill="rgb(51,39,40)" fill-opacity="1" />
<path d="M 393.000000 397.000000 L 367.000000,377.000000 424.000000,365.000000 Z" fill="rgb(32,18,20)" fill-opacity="1" />
<path d="M 256.860302 80.430161 L 270.000000,68.000000 293.000000,91.000000 Z" fill="rgb(56,43,40)" fill-opacity="1" />
<path d="M 195.000000 55.000000 L 0.000000,0.000000 286.000000,15.000000 Z" fill="rgb(56,46,39)" fill-opacity="1" />
<path d="M 347.000000 158.000000 L 333.000000,147.000000 370.000000,119.000000 Z" fill="rgb(52,38,35)" fill-opacity="1" />
<path d="M 307.000000 195.000000 L 270.000000,203.000000 264.000000,143.000000 Z" fill="rgb(45,32,33)" fill-opacity="1" />
<path d="M 305.000000 264.000000 L 300.000000,236.000000 341.000000,233.000000 Z" fill="rgb(22,15,17)" fill-opacity="1" />
<path d="M 337.000000 217.000000 L 307.000000,195.000000 347.000000,158.000000 Z" fill="rgb(41,29,25)" fill-opacity="1" />
<path d="M 419.537916 213.623481 L 359.000000,218.000000 364.000000,208.000000 Z" fill="rgb(39,24,22)" fill-opacity="1" />
<path d="M 337.000000 217.000000 L 329.000000,218.000000 307.000000,195.000000 Z" fill="rgb(31,22,28)" fill-opacity="1" />
<path d="M 405.000000 137.000000 L 370.000000,119.000000 380.475918,96.929769 Z" fill="rgb(42,26,23)" fill-opacity="1" />
<path d="M 309.000000 59.000000 L 301.000000,53.000000 302.000000,7.000000 Z" fill="rgb(66,48,44)" fill-opacity="1" />
<path d="M 504.000000 259.000000 L 504.000000,291.000000 464.947172,289.020421 Z" fill="rgb(117,83,70)" fill-opacity="1" />
<path d="M 419.537916 213.623481 L 364.000000,208.000000 420.000000,182.000000 Z" fill="rgb(42,25,27)" fill-opacity="1" />
<path d="M 812.529400 244.587814 L 711.036611,297.334576 684.012517,222.741557 Z" fill="rgb(227,174,107)" fill-opacity="1" />
<path d="M 775.644475 319.608764 L 876.194437,249.955812 921.829771,360.070361 Z" fill="rgb(231,210,190)" fill-opacity="1" />
<path d="M 1030.124507 350.526037 L 989.998664,264.379545 1077.488725,285.906731 Z" fill="rgb(131,109,111)" fill-opacity="1" />
<path d="M 940.424053 165.121478 L 989.998664,264.379545 876.194437,249.955812 Z" fill="rgb(176,114,138)" fill-opacity="1" />
<path d="M 61.066429 157.888302 L 41.000000,114.000000 136.000000,96.000000 Z" fill="rgb(135,122,114)" fill-opacity="1" />
<path d="M 36.000000 290.000000 L 24.094021,441.966027 10.758368,513.421235 Z" fill="rgb(63,62,68)" fill-opacity="1" />
<path d="M 187.070490 179.962841 L 61.066429,157.888302 136.000000,96.000000 Z" fill="rgb(179,165,146)" fill-opacity="1" />
<path d="M 41.000000 114.000000 L 25.182905,59.701665 136.000000,96.000000 Z" fill="rgb(142,134,131)" fill-opacity="1" />
<path d="M 256.860302 80.430161 L 195.000000,55.000000 270.000000,68.000000 Z" fill="rgb(82,66,59)" fill-opacity="1" />
<path d="M 256.860302 80.430161 L 238.000000,128.000000 195.000000,55.000000 Z" fill="rgb(64,39,33)" fill-opacity="1" />
<path d="M 177.096983 253.233883 L 125.000000,323.000000 36.000000,290.000000 Z" fill="rgb(198,183,161)" fill-opacity="1" />
<path d="M 32.931231 367.768755 L 24.094021,441.966027 36.000000,290.000000 Z" fill="rgb(142,128,125)" fill-opacity="1" />
<path d="M 238.000000 128.000000 L 264.000000,143.000000 221.000000,173.000000 Z" fill="rgb(50,36,33)" fill-opacity="1" />
<path d="M 192.000000 226.000000 L 177.096983,253.233883 187.070490,179.962841 Z" fill="rgb(87,70,66)" fill-opacity="1" />
<path d="M 221.000000 173.000000 L 192.000000,226.000000 187.070490,179.962841 Z" fill="rgb(67,53,53)" fill-opacity="1" />
<path d="M 125.000000 323.000000 L 109.000000,368.000000 81.995251,345.413732 Z" fill="rgb(147,107,87)" fill-opacity="1" />
<path d="M 174.000000 102.000000 L 221.000000,173.000000 187.070490,179.962841 Z" fill="rgb(58,45,44)" fill-opacity="1" />
<path d="M 304.124317 110.639540 L 293.000000,91.000000 330.000000,82.000000 Z" fill="rgb(48,40,40)" fill-opacity="1" />
<path d="M 221.000000 173.000000 L 250.000000,207.000000 192.000000,226.000000 Z" fill="rgb(73,48,53)" fill-opacity="1" />
<path d="M 221.000000 173.000000 L 270.000000,203.000000 250.000000,207.000000 Z" fill="rgb(51,32,32)" fill-opacity="1" />
<path d="M 221.000000 173.000000 L 264.000000,143.000000 270.000000,203.000000 Z" fill="rgb(60,47,48)" fill-opacity="1" />
<path d="M 221.000000 173.000000 L 174.000000,102.000000 238.000000,128.000000 Z" fill="rgb(70,47,41)" fill-opacity="1" />
<path d="M 250.000000 207.000000 L 270.000000,203.000000 290.000000,246.000000 Z" fill="rgb(38,25,29)" fill-opacity="1" />
<path d="M 270.000000 203.000000 L 306.000000,204.000000 292.000000,219.000000 Z" fill="rgb(28,14,21)" fill-opacity="1" />
<path d="M 195.000000 55.000000 L 238.000000,128.000000 174.000000,102.000000 Z" fill="rgb(82,64,63)" fill-opacity="1" />
<path d="M 256.860302 80.430161 L 280.267088,110.417588 238.000000,128.000000 Z" fill="rgb(54,43,39)" fill-opacity="1" />
<path d="M 286.000000 15.000000 L 270.000000,68.000000 195.000000,55.000000 Z" fill="rgb(72,50,47)" fill-opacity="1" />
<path d="M 286.000000 15.000000 L 293.000000,13.000000 301.000000,53.000000 Z" fill="rgb(77,60,56)" fill-opacity="1" />
<path d="M 238.000000 128.000000 L 280.267088,110.417588 264.000000,143.000000 Z" fill="rgb(51,38,35)" fill-opacity="1" />
<path d="M 256.860302 80.430161 L 293.000000,91.000000 280.267088,110.417588 Z" fill="rgb(49,36,33)" fill-opacity="1" />
<path d="M 309.000000 59.000000 L 366.437692,61.530143 330.000000,82.000000 Z" fill="rgb(99,79,68)" fill-opacity="1" />
<path d="M 300.000000 58.000000 L 309.000000,59.000000 293.000000,91.000000 Z" fill="rgb(59,41,36)" fill-opacity="1" />
<path d="M 366.437692 61.530143 L 380.475918,96.929769 330.000000,82.000000 Z" fill="rgb(56,42,39)" fill-opacity="1" />
<path d="M 286.000000 15.000000 L 0.000000,0.000000 302.000000,7.000000 Z" fill="rgb(62,50,41)" fill-opacity="1" />
<path d="M 286.000000 15.000000 L 301.000000,53.000000 270.000000,68.000000 Z" fill="rgb(57,40,32)" fill-opacity="1" />
<path d="M 301.000000 53.000000 L 309.000000,59.000000 300.000000,58.000000 Z" fill="rgb(72,65,98)" fill-opacity="1" />
<path d="M 270.000000 68.000000 L 301.000000,53.000000 300.000000,58.000000 Z" fill="rgb(66,54,52)" fill-opacity="1" />
<path d="M 293.000000 13.000000 L 302.000000,7.000000 301.000000,53.000000 Z" fill="rgb(97,74,68)" fill-opacity="1" />
<path d="M 389.000000 17.000000 L 302.000000,7.000000 463.000000,1.000000 Z" fill="rgb(69,44,45)" fill-opacity="1" />
<path d="M 293.000000 13.000000 L 286.000000,15.000000 302.000000,7.000000 Z" fill="rgb(212,201,182)" fill-opacity="1" />
<path d="M 366.437692 61.530143 L 309.000000,59.000000 302.000000,7.000000 Z" fill="rgb(63,55,58)" fill-opacity="1" />
<path d="M 330.000000 82.000000 L 293.000000,91.000000 309.000000,59.000000 Z" fill="rgb(43,36,31)" fill-opacity="1" />
<path d="M 389.000000 17.000000 L 463.000000,1.000000 434.000000,78.000000 Z" fill="rgb(85,58,48)" fill-opacity="1" />
<path d="M 380.475918 96.929769 L 370.000000,119.000000 330.000000,82.000000 Z" fill="rgb(51,37,41)" fill-opacity="1" />
<path d="M 434.000000 78.000000 L 416.111290,125.543930 380.475918,96.929769 Z" fill="rgb(95,66,66)" fill-opacity="1" />
<path d="M 526.393872 76.025090 L 557.058619,108.379459 506.669405,165.617335 Z" fill="rgb(113,60,46)" fill-opacity="1" />
<path d="M 341.000000 233.000000 L 337.000000,217.000000 359.000000,218.000000 Z" fill="rgb(32,19,23)" fill-opacity="1" />
<path d="M 341.000000 233.000000 L 300.000000,236.000000 329.000000,218.000000 Z" fill="rgb(22,12,12)" fill-opacity="1" />
<path d="M 405.000000 137.000000 L 347.000000,158.000000 370.000000,119.000000 Z" fill="rgb(52,41,37)" fill-opacity="1" />
<path d="M 364.000000 208.000000 L 337.000000,217.000000 347.000000,158.000000 Z" fill="rgb(46,32,30)" fill-opacity="1" />
<path d="M 420.000000 182.000000 L 364.000000,208.000000 347.000000,158.000000 Z" fill="rgb(69,50,44)" fill-opacity="1" />
<path d="M 359.000000 218.000000 L 337.000000,217.000000 364.000000,208.000000 Z" fill="rgb(24,15,15)" fill-opacity="1" />
<path d="M 290.000000 246.000000 L 300.000000,236.000000 305.000000,264.000000 Z" fill="rgb(22,16,36)" fill-opacity="1" />
<path d="M 292.000000 219.000000 L 306.000000,204.000000 300.000000,236.000000 Z" fill="rgb(24,15,15)" fill-opacity="1" />
<path d="M 264.000000 143.000000 L 304.124317,110.639540 333.000000,147.000000 Z" fill="rgb(45,31,28)" fill-opacity="1" />
<path d="M 280.267088 110.417588 L 293.000000,91.000000 304.124317,110.639540 Z" fill="rgb(64,44,44)" fill-opacity="1" />
<path d="M 370.000000 119.000000 L 325.000000,117.000000 330.000000,82.000000 Z" fill="rgb(53,32,31)" fill-opacity="1" />
<path d="M 333.000000 147.000000 L 304.124317,110.639540 325.000000,117.000000 Z" fill="rgb(101,82,74)" fill-opacity="1" />
<path d="M 341.000000 233.000000 L 329.000000,218.000000 337.000000,217.000000 Z" fill="rgb(30,15,11)" fill-opacity="1" />
<path d="M 300.000000 236.000000 L 306.000000,204.000000 329.000000,218.000000 Z" fill="rgb(33,21,18)" fill-opacity="1" />
<path d="M 308.000000 297.000000 L 268.000000,307.000000 287.187030,263.797104 Z" fill="rgb(45,35,32)" fill-opacity="1" />
<path d="M 246.000000 336.000000 L 221.183410,328.884604 223.000000,326.000000 Z" fill="rgb(68,57,58)" fill-opacity="1" />
<path d="M 227.000000 278.000000 L 209.000000,253.000000 250.000000,207.000000 Z" fill="rgb(47,31,36)" fill-opacity="1" />
<path d="M 292.000000 219.000000 L 300.000000,236.000000 290.000000,246.000000 Z" fill="rgb(43,36,76)" fill-opacity="1" />
<path d="M 320.000000 306.000000 L 305.000000,264.000000 353.000000,255.000000 Z" fill="rgb(75,53,37)" fill-opacity="1" />
<path d="M 308.000000 297.000000 L 287.187030,263.797104 305.000000,264.000000 Z" fill="rgb(24,18,16)" fill-opacity="1" />
<path d="M 341.000000 370.000000 L 314.000000,357.000000 320.000000,344.000000 Z" fill="rgb(15,12,20)" fill-opacity="1" />
<path d="M 314.000000 357.000000 L 268.000000,307.000000 320.000000,344.000000 Z" fill="rgb(23,17,18)" fill-opacity="1" />
<path d="M 320.000000 344.000000 L 339.000000,330.000000 353.135968,361.268082 Z" fill="rgb(98,67,52)" fill-opacity="1" />
<path d="M 320.000000 306.000000 L 354.701671,256.503357 339.000000,330.000000 Z" fill="rgb(42,35,40)" fill-opacity="1" />
<path d="M 320.000000 306.000000 L 353.000000,255.000000 354.701671,256.503357 Z" fill="rgb(51,50,56)" fill-opacity="1" />
<path d="M 305.000000 264.000000 L 341.000000,233.000000 353.000000,255.000000 Z" fill="rgb(54,40,37)" fill-opacity="1" />
<path d="M 339.000000 330.000000 L 358.000000,353.000000 353.135968,361.268082 Z" fill="rgb(21,15,16)" fill-opacity="1" />
<path d="M 416.000000 325.000000 L 417.000000,291.000000 464.947172,289.020421 Z" fill="rgb(34,31,55)" fill-opacity="1" />
<path d="M 353.135968 361.268082 L 341.000000,370.000000 320.000000,344.000000 Z" fill="rgb(19,18,27)" fill-opacity="1" />
<path d="M 297.000000 372.000000 L 257.000000,392.000000 253.000000,363.000000 Z" fill="rgb(31,14,23)" fill-opacity="1" />
<path d="M 367.000000 377.000000 L 341.000000,370.000000 353.135968,361.268082 Z" fill="rgb(20,12,18)" fill-opacity="1" />
<path d="M 310.000000 370.000000 L 349.000000,449.000000 297.000000,372.000000 Z" fill="rgb(17,13,18)" fill-opacity="1" />
<path d="M 358.000000 353.000000 L 367.000000,377.000000 353.135968,361.268082 Z" fill="rgb(24,17,25)" fill-opacity="1" />
<path d="M 297.000000 372.000000 L 349.000000,449.000000 312.084891,467.474874 Z" fill="rgb(76,73,109)" fill-opacity="1" />
<path d="M 314.000000 357.000000 L 297.000000,372.000000 252.000000,349.000000 Z" fill="rgb(24,15,21)" fill-opacity="1" />
<path d="M 165.243750 433.631039 L 199.000000,421.000000 215.000000,460.000000 Z" fill="rgb(28,15,12)" fill-opacity="1" />
<path d="M 252.000000 349.000000 L 297.000000,372.000000 253.000000,363.000000 Z" fill="rgb(46,33,34)" fill-opacity="1" />
<path d="M 250.000000 506.000000 L 265.000000,528.000000 253.000000,531.000000 Z" fill="rgb(26,16,16)" fill-opacity="1" />
<path d="M 310.000000 370.000000 L 297.000000,372.000000 314.000000,357.000000 Z" fill="rgb(19,11,22)" fill-opacity="1" />
<path d="M 312.084891 467.474874 L 322.000000,477.000000 317.000000,489.000000 Z" fill="rgb(33,23,34)" fill-opacity="1" />
<path d="M 341.000000 370.000000 L 310.000000,370.000000 314.000000,357.000000 Z" fill="rgb(17,16,25)" fill-opacity="1" />
<path d="M 341.000000 370.000000 L 367.000000,377.000000 349.000000,449.000000 Z" fill="rgb(23,16,22)" fill-opacity="1" />
<path d="M 204.000000 317.000000 L 223.000000,326.000000 221.183410,328.884604 Z" fill="rgb(72,51,65)" fill-opacity="1" />
<path d="M 252.000000 349.000000 L 253.000000,363.000000 221.183410,328.884604 Z" fill="rgb(38,22,28)" fill-opacity="1" />
<path d="M 246.000000 336.000000 L 223.000000,326.000000 229.000000,306.000000 Z" fill="rgb(73,62,63)" fill-opacity="1" />
<path d="M 137.000000 337.000000 L 109.000000,368.000000 125.000000,323.000000 Z" fill="rgb(58,44,41)" fill-opacity="1" />
<path d="M 252.000000 349.000000 L 246.000000,336.000000 268.000000,307.000000 Z" fill="rgb(39,25,23)" fill-opacity="1" />
<path d="M 252.000000 349.000000 L 221.183410,328.884604 246.000000,336.000000 Z" fill="rgb(32,18,22)" fill-opacity="1" />
<path d="M 205.000000 273.000000 L 209.000000,253.000000 217.000000,275.000000 Z" fill="rgb(50,40,56)" fill-opacity="1" />
<path d="M 192.000000 226.000000 L 250.000000,207.000000 209.000000,253.000000 Z" fill="rgb(56,46,43)" fill-opacity="1" />
<path d="M 217.000000 275.000000 L 217.106292,305.664372 205.000000,273.000000 Z" fill="rgb(60,46,51)" fill-opacity="1" />
<path d="M 217.000000 275.000000 L 227.000000,278.000000 217.106292,305.664372 Z" fill="rgb(69,58,52)" fill-opacity="1" />
<path d="M 268.000000 307.000000 L 227.000000,278.000000 287.187030,263.797104 Z" fill="rgb(65,47,43)" fill-opacity="1" />
<path d="M 268.000000 307.000000 L 229.000000,306.000000 227.000000,278.000000 Z" fill="rgb(43,30,37)" fill-opacity="1" />
<path d="M 246.000000 336.000000 L 229.000000,306.000000 268.000000,307.000000 Z" fill="rgb(43,25,35)" fill-opacity="1" />
<path d="M 223.000000 326.000000 L 217.106292,305.664372 229.000000,306.000000 Z" fill="rgb(36,23,27)" fill-opacity="1" />
<path d="M 61.066429 157.888302 L 36.000000,290.000000 41.000000,114.000000 Z" fill="rgb(100,90,93)" fill-opacity="1" />
<path d="M 61.066429 157.888302 L 187.070490,179.962841 177.096983,253.233883 Z" fill="rgb(198,180,154)" fill-opacity="1" />
<path d="M 61.066429 157.888302 L 177.096983,253.233883 36.000000,290.000000 Z" fill="rgb(150,146,137)" fill-opacity="1" />
<path d="M 205.000000 273.000000 L 217.106292,305.664372 204.000000,317.000000 Z" fill="rgb(57,46,52)" fill-opacity="1" />
<path d="M 209.000000 253.000000 L 177.096983,253.233883 192.000000,226.000000 Z" fill="rgb(53,51,57)" fill-opacity="1" />
<path d="M 205.000000 273.000000 L 204.000000,317.000000 177.096983,253.233883 Z" fill="rgb(49,37,41)" fill-opacity="1" />
<path d="M 177.096983 253.233883 L 204.000000,317.000000 125.000000,323.000000 Z" fill="rgb(52,37,34)" fill-opacity="1" />
<path d="M 217.106292 305.664372 L 223.000000,326.000000 204.000000,317.000000 Z" fill="rgb(170,146,141)" fill-opacity="1" />
<path d="M 81.995251 345.413732 L 32.931231,367.768755 36.000000,290.000000 Z" fill="rgb(170,163,160)" fill-opacity="1" />
<path d="M 109.000000 368.000000 L 67.000000,437.000000 32.931231,367.768755 Z" fill="rgb(47,39,39)" fill-opacity="1" />
<path d="M 125.000000 323.000000 L 81.995251,345.413732 36.000000,290.000000 Z" fill="rgb(164,156,158)" fill-opacity="1" />
<path d="M 109.000000 368.000000 L 32.931231,367.768755 81.995251,345.413732 Z" fill="rgb(156,117,89)" fill-opacity="1" />
<path d="M 204.000000 317.000000 L 137.000000,337.000000 125.000000,323.000000 Z" fill="rgb(53,29,26)" fill-opacity="1" />
<path d="M 204.000000 317.000000 L 221.183410,328.884604 142.000000,357.000000 Z" fill="rgb(59,47,45)" fill-opacity="1" />
<path d="M 109.000000 368.000000 L 142.000000,357.000000 149.000000,420.000000 Z" fill="rgb(31,22,28)" fill-opacity="1" />
<path d="M 137.000000 337.000000 L 204.000000,317.000000 142.000000,357.000000 Z" fill="rgb(77,49,37)" fill-opacity="1" />
<path d="M 142.000000 453.000000 L 128.466981,432.989140 149.000000,420.000000 Z" fill="rgb(53,38,43)" fill-opacity="1" />
<path d="M 142.000000 453.000000 L 117.000000,482.000000 109.000000,450.000000 Z" fill="rgb(26,17,23)" fill-opacity="1" />
<path d="M 156.000000 419.000000 L 165.243750,433.631039 149.000000,420.000000 Z" fill="rgb(49,29,24)" fill-opacity="1" />
<path d="M 161.000000 491.000000 L 117.000000,482.000000 142.000000,453.000000 Z" fill="rgb(35,22,29)" fill-opacity="1" />
<path d="M 117.267721 427.170001 L 149.000000,420.000000 128.466981,432.989140 Z" fill="rgb(37,22,23)" fill-opacity="1" />
<path d="M 142.000000 357.000000 L 221.183410,328.884604 165.000000,414.000000 Z" fill="rgb(57,39,37)" fill-opacity="1" />
<path d="M 165.243750 433.631039 L 156.000000,419.000000 165.000000,414.000000 Z" fill="rgb(43,25,35)" fill-opacity="1" />
<path d="M 149.000000 420.000000 L 142.000000,357.000000 165.000000,414.000000 Z" fill="rgb(56,41,46)" fill-opacity="1" />
<path d="M 257.000000 392.000000 L 199.000000,421.000000 253.000000,363.000000 Z" fill="rgb(29,19,30)" fill-opacity="1" />
<path d="M 165.243750 433.631039 L 161.000000,491.000000 142.000000,453.000000 Z" fill="rgb(33,18,19)" fill-opacity="1" />
<path d="M 221.183410 328.884604 L 199.000000,421.000000 165.000000,414.000000 Z" fill="rgb(39,16,15)" fill-opacity="1" />
<path d="M 253.000000 531.000000 L 265.000000,528.000000 293.980512,572.078894 Z" fill="rgb(39,26,33)" fill-opacity="1" />
<path d="M 165.000000 414.000000 L 199.000000,421.000000 165.243750,433.631039 Z" fill="rgb(38,22,28)" fill-opacity="1" />
<path d="M 253.378298 493.370194 L 287.000000,467.000000 286.000000,506.000000 Z" fill="rgb(53,40,37)" fill-opacity="1" />
<path d="M 165.243750 433.631039 L 213.000000,471.000000 161.000000,491.000000 Z" fill="rgb(124,94,78)" fill-opacity="1" />
<path d="M 303.000000 656.000000 L 277.658012,597.477935 298.819439,600.695030 Z" fill="rgb(45,28,28)" fill-opacity="1" />
<path d="M 216.000000 520.000000 L 205.584341,554.717496 203.000000,514.000000 Z" fill="rgb(29,16,20)" fill-opacity="1" />
<path d="M 168.000000 657.000000 L 132.000000,720.000000 106.559386,696.947236 Z" fill="rgb(50,49,55)" fill-opacity="1" />
<path d="M 161.000000 491.000000 L 213.000000,471.000000 203.000000,514.000000 Z" fill="rgb(78,58,49)" fill-opacity="1" />
<path d="M 287.000000 467.000000 L 257.000000,392.000000 297.000000,372.000000 Z" fill="rgb(23,14,17)" fill-opacity="1" />
<path d="M 4.164057 568.030882 L 10.758368,513.421235 33.311897,555.368862 Z" fill="rgb(70,65,66)" fill-opacity="1" />
<path d="M 0.000000 0.000000 L 36.000000,290.000000 10.758368,513.421235 Z" fill="rgb(91,92,100)" fill-opacity="1" />
<path d="M 67.000000 437.000000 L 100.000000,469.000000 10.758368,513.421235 Z" fill="rgb(175,156,138)" fill-opacity="1" />
<path d="M 117.000000 482.000000 L 121.975401,517.175367 95.131534,512.039635 Z" fill="rgb(32,23,29)" fill-opacity="1" />
<path d="M 109.000000 450.000000 L 100.000000,469.000000 67.000000,437.000000 Z" fill="rgb(42,30,36)" fill-opacity="1" />
<path d="M 117.000000 482.000000 L 95.131534,512.039635 100.000000,469.000000 Z" fill="rgb(33,26,31)" fill-opacity="1" />
<path d="M 176.317049 596.644339 L 146.000000,575.000000 153.000000,564.000000 Z" fill="rgb(69,58,61)" fill-opacity="1" />
<path d="M 58.000000 664.000000 L 106.559386,696.947236 49.000000,678.000000 Z" fill="rgb(60,61,66)" fill-opacity="1" />
<path d="M 0.000000 0.000000 L 4.164057,568.030882 0.000000,732.000000 Z" fill="rgb(75,74,69)" fill-opacity="1" />
<path d="M 0.000000 0.000000 L 10.758368,513.421235 4.164057,568.030882 Z" fill="rgb(107,90,103)" fill-opacity="1" />
<path d="M 33.311897 555.368862 L 43.990169,624.260308 26.186525,580.754696 Z" fill="rgb(57,52,53)" fill-opacity="1" />
<path d="M 14.000000 717.000000 L 0.000000,732.000000 10.355058,615.639879 Z" fill="rgb(38,27,44)" fill-opacity="1" />
<path d="M 58.000000 664.000000 L 31.726027,652.763597 43.990169,624.260308 Z" fill="rgb(48,47,53)" fill-opacity="1" />
<path d="M 10.355058 615.639879 L 26.186525,580.754696 43.990169,624.260308 Z" fill="rgb(60,56,64)" fill-opacity="1" />
<path d="M 4.164057 568.030882 L 10.355058,615.639879 0.000000,732.000000 Z" fill="rgb(44,43,50)" fill-opacity="1" />
<path d="M 10.355058 615.639879 L 31.726027,652.763597 14.000000,717.000000 Z" fill="rgb(40,39,45)" fill-opacity="1" />
<path d="M 10.355058 615.639879 L 43.990169,624.260308 31.726027,652.763597 Z" fill="rgb(43,40,47)" fill-opacity="1" />
<path d="M 50.000000 719.000000 L 49.000000,678.000000 106.559386,696.947236 Z" fill="rgb(158,140,121)" fill-opacity="1" />
<path d="M 50.000000 719.000000 L 14.000000,717.000000 49.000000,678.000000 Z" fill="rgb(18,19,31)" fill-opacity="1" />
<path d="M 126.000000 722.000000 L 50.000000,719.000000 106.559386,696.947236 Z" fill="rgb(54,47,52)" fill-opacity="1" />
<path d="M 49.000000 678.000000 L 31.726027,652.763597 58.000000,664.000000 Z" fill="rgb(54,48,53)" fill-opacity="1" />
<path d="M 126.000000 722.000000 L 106.559386,696.947236 132.000000,720.000000 Z" fill="rgb(31,31,31)" fill-opacity="1" />
<path d="M 58.000000 664.000000 L 43.990169,624.260308 117.458158,634.554054 Z" fill="rgb(84,84,92)" fill-opacity="1" />
<path d="M 210.000000 588.000000 L 168.000000,657.000000 176.317049,596.644339 Z" fill="rgb(48,36,40)" fill-opacity="1" />
<path d="M 298.819439 600.695030 L 298.000000,587.000000 322.000000,577.000000 Z" fill="rgb(34,21,25)" fill-opacity="1" />
<path d="M 126.000000 722.000000 L 175.000000,725.000000 0.000000,732.000000 Z" fill="rgb(27,26,33)" fill-opacity="1" />
<path d="M 126.000000 722.000000 L 132.000000,720.000000 175.000000,725.000000 Z" fill="rgb(48,47,55)" fill-opacity="1" />
<path d="M 176.317049 596.644339 L 117.458158,634.554054 146.000000,575.000000 Z" fill="rgb(178,134,107)" fill-opacity="1" />
<path d="M 168.000000 657.000000 L 106.559386,696.947236 117.458158,634.554054 Z" fill="rgb(140,125,125)" fill-opacity="1" />
<path d="M 95.131534 512.039635 L 146.000000,575.000000 33.311897,555.368862 Z" fill="rgb(91,74,68)" fill-opacity="1" />
<path d="M 153.000000 564.000000 L 205.584341,554.717496 176.317049,596.644339 Z" fill="rgb(122,84,67)" fill-opacity="1" />
<path d="M 210.000000 588.000000 L 176.317049,596.644339 205.584341,554.717496 Z" fill="rgb(107,59,36)" fill-opacity="1" />
<path d="M 168.000000 657.000000 L 117.458158,634.554054 176.317049,596.644339 Z" fill="rgb(125,99,91)" fill-opacity="1" />
<path d="M 253.000000 531.000000 L 231.000000,586.000000 205.584341,554.717496 Z" fill="rgb(40,33,38)" fill-opacity="1" />
<path d="M 231.000000 586.000000 L 254.000000,677.000000 210.000000,588.000000 Z" fill="rgb(45,26,25)" fill-opacity="1" />
<path d="M 205.584341 554.717496 L 231.000000,586.000000 210.000000,588.000000 Z" fill="rgb(41,29,33)" fill-opacity="1" />
<path d="M 253.000000 531.000000 L 293.980512,572.078894 231.000000,586.000000 Z" fill="rgb(38,32,37)" fill-opacity="1" />
<path d="M 322.000000 577.000000 L 293.980512,572.078894 346.000000,557.000000 Z" fill="rgb(32,24,18)" fill-opacity="1" />
<path d="M 298.000000 587.000000 L 277.658012,597.477935 293.980512,572.078894 Z" fill="rgb(38,32,30)" fill-opacity="1" />
<path d="M 298.819439 600.695030 L 322.000000,577.000000 339.000000,615.000000 Z" fill="rgb(32,25,31)" fill-opacity="1" />
<path d="M 298.000000 587.000000 L 293.980512,572.078894 322.000000,577.000000 Z" fill="rgb(69,58,59)" fill-opacity="1" />
<path d="M 210.000000 588.000000 L 254.000000,677.000000 168.000000,657.000000 Z" fill="rgb(112,81,71)" fill-opacity="1" />
<path d="M 303.000000 656.000000 L 343.000000,689.000000 254.000000,677.000000 Z" fill="rgb(81,51,42)" fill-opacity="1" />
<path d="M 231.000000 586.000000 L 277.658012,597.477935 254.000000,677.000000 Z" fill="rgb(52,32,24)" fill-opacity="1" />
<path d="M 231.000000 586.000000 L 293.980512,572.078894 277.658012,597.477935 Z" fill="rgb(39,27,24)" fill-opacity="1" />
<path d="M 303.000000 656.000000 L 298.819439,600.695030 339.000000,615.000000 Z" fill="rgb(83,48,33)" fill-opacity="1" />
<path d="M 277.658012 597.477935 L 298.000000,587.000000 298.819439,600.695030 Z" fill="rgb(35,21,23)" fill-opacity="1" />
<path d="M 343.000000 689.000000 L 303.000000,656.000000 344.000000,650.000000 Z" fill="rgb(42,29,36)" fill-opacity="1" />
<path d="M 254.000000 677.000000 L 277.658012,597.477935 303.000000,656.000000 Z" fill="rgb(45,35,44)" fill-opacity="1" />
<path d="M 368.304701 655.459441 L 343.000000,689.000000 344.000000,650.000000 Z" fill="rgb(39,26,30)" fill-opacity="1" />
<path d="M 358.624467 713.373990 L 254.000000,677.000000 343.000000,689.000000 Z" fill="rgb(79,62,61)" fill-opacity="1" />
<path d="M 381.000000 672.000000 L 358.624467,713.373990 343.000000,689.000000 Z" fill="rgb(25,18,20)" fill-opacity="1" />
<path d="M 371.000000 719.000000 L 175.000000,725.000000 358.624467,713.373990 Z" fill="rgb(215,200,185)" fill-opacity="1" />
<path d="M 352.000000 646.000000 L 368.304701,655.459441 344.000000,650.000000 Z" fill="rgb(33,19,34)" fill-opacity="1" />
<path d="M 407.000000 686.000000 L 371.000000,719.000000 381.000000,672.000000 Z" fill="rgb(37,24,31)" fill-opacity="1" />
<path d="M 303.000000 656.000000 L 339.000000,615.000000 344.000000,650.000000 Z" fill="rgb(32,19,23)" fill-opacity="1" />
<path d="M 322.000000 577.000000 L 346.000000,557.000000 339.000000,615.000000 Z" fill="rgb(35,23,20)" fill-opacity="1" />
<path d="M 339.000000 615.000000 L 352.000000,646.000000 344.000000,650.000000 Z" fill="rgb(35,21,32)" fill-opacity="1" />
<path d="M 339.000000 615.000000 L 346.000000,557.000000 414.000000,584.000000 Z" fill="rgb(52,39,36)" fill-opacity="1" />
<path d="M 343.000000 689.000000 L 368.304701,655.459441 381.000000,672.000000 Z" fill="rgb(31,14,20)" fill-opacity="1" />
<path d="M 352.000000 646.000000 L 339.000000,615.000000 408.000000,621.000000 Z" fill="rgb(43,29,30)" fill-opacity="1" />
<path d="M 414.000000 584.000000 L 382.000000,547.000000 412.000000,565.000000 Z" fill="rgb(46,29,34)" fill-opacity="1" />
<path d="M 346.000000 557.000000 L 371.000000,525.000000 382.000000,547.000000 Z" fill="rgb(48,33,30)" fill-opacity="1" />
<path d="M 219.000000 519.000000 L 240.000000,472.000000 250.000000,506.000000 Z" fill="rgb(26,20,18)" fill-opacity="1" />
<path d="M 334.000000 498.000000 L 339.000000,498.000000 325.000000,504.000000 Z" fill="rgb(48,35,47)" fill-opacity="1" />
<path d="M 293.980512 572.078894 L 325.000000,504.000000 346.000000,557.000000 Z" fill="rgb(39,27,28)" fill-opacity="1" />
<path d="M 317.000000 489.000000 L 322.000000,477.000000 334.000000,498.000000 Z" fill="rgb(46,39,41)" fill-opacity="1" />
<path d="M 317.000000 489.000000 L 334.000000,498.000000 325.000000,504.000000 Z" fill="rgb(62,45,35)" fill-opacity="1" />
<path d="M 322.000000 477.000000 L 339.000000,498.000000 334.000000,498.000000 Z" fill="rgb(30,21,24)" fill-opacity="1" />
<path d="M 213.000000 471.000000 L 219.000000,519.000000 203.000000,514.000000 Z" fill="rgb(30,17,21)" fill-opacity="1" />
<path d="M 219.000000 519.000000 L 205.584341,554.717496 216.000000,520.000000 Z" fill="rgb(29,16,20)" fill-opacity="1" />
<path d="M 203.000000 514.000000 L 219.000000,519.000000 216.000000,520.000000 Z" fill="rgb(57,42,54)" fill-opacity="1" />
<path d="M 250.000000 506.000000 L 286.000000,506.000000 265.000000,528.000000 Z" fill="rgb(41,29,33)" fill-opacity="1" />
<path d="M 213.000000 471.000000 L 240.000000,472.000000 219.000000,519.000000 Z" fill="rgb(34,19,30)" fill-opacity="1" />
<path d="M 213.000000 471.000000 L 215.000000,460.000000 240.000000,472.000000 Z" fill="rgb(29,5,9)" fill-opacity="1" />
<path d="M 219.000000 519.000000 L 253.000000,531.000000 205.584341,554.717496 Z" fill="rgb(26,17,20)" fill-opacity="1" />
<path d="M 219.000000 519.000000 L 250.000000,506.000000 253.000000,531.000000 Z" fill="rgb(24,15,14)" fill-opacity="1" />
<path d="M 165.243750 433.631039 L 215.000000,460.000000 213.000000,471.000000 Z" fill="rgb(32,15,21)" fill-opacity="1" />
<path d="M 199.000000 421.000000 L 257.000000,392.000000 215.000000,460.000000 Z" fill="rgb(40,22,34)" fill-opacity="1" />
<path d="M 253.378298 493.370194 L 240.000000,472.000000 287.000000,467.000000 Z" fill="rgb(35,29,30)" fill-opacity="1" />
<path d="M 215.000000 460.000000 L 257.000000,392.000000 240.000000,472.000000 Z" fill="rgb(50,42,61)" fill-opacity="1" />
<path d="M 250.000000 506.000000 L 253.378298,493.370194 286.000000,506.000000 Z" fill="rgb(38,23,24)" fill-opacity="1" />
<path d="M 250.000000 506.000000 L 240.000000,472.000000 253.378298,493.370194 Z" fill="rgb(29,15,22)" fill-opacity="1" />
<path d="M 317.000000 489.000000 L 287.000000,467.000000 312.084891,467.474874 Z" fill="rgb(50,36,35)" fill-opacity="1" />
<path d="M 240.000000 472.000000 L 257.000000,392.000000 287.000000,467.000000 Z" fill="rgb(58,49,64)" fill-opacity="1" />
<path d="M 297.000000 372.000000 L 312.084891,467.474874 287.000000,467.000000 Z" fill="rgb(27,18,24)" fill-opacity="1" />
<path d="M 310.000000 370.000000 L 341.000000,370.000000 349.000000,449.000000 Z" fill="rgb(25,17,23)" fill-opacity="1" />
<path d="M 286.000000 506.000000 L 317.000000,489.000000 325.000000,504.000000 Z" fill="rgb(33,38,49)" fill-opacity="1" />
<path d="M 286.000000 506.000000 L 287.000000,467.000000 317.000000,489.000000 Z" fill="rgb(63,53,49)" fill-opacity="1" />
<path d="M 339.000000 498.000000 L 349.000000,449.000000 376.000000,471.000000 Z" fill="rgb(22,8,5)" fill-opacity="1" />
<path d="M 322.000000 477.000000 L 312.084891,467.474874 349.000000,449.000000 Z" fill="rgb(22,7,12)" fill-opacity="1" />
<path d="M 411.986886 445.490105 L 376.000000,471.000000 391.000000,412.000000 Z" fill="rgb(30,21,21)" fill-opacity="1" />
<path d="M 393.000000 503.000000 L 339.000000,498.000000 376.000000,471.000000 Z" fill="rgb(29,15,20)" fill-opacity="1" />
<path d="M 411.986886 445.490105 L 391.000000,412.000000 401.000000,400.000000 Z" fill="rgb(21,17,27)" fill-opacity="1" />
<path d="M 376.000000 471.000000 L 349.000000,449.000000 391.000000,412.000000 Z" fill="rgb(23,14,17)" fill-opacity="1" />
<path d="M 440.000000 419.000000 L 401.000000,400.000000 421.000000,386.000000 Z" fill="rgb(36,24,19)" fill-opacity="1" />
<path d="M 391.000000 412.000000 L 393.000000,397.000000 401.000000,400.000000 Z" fill="rgb(23,16,44)" fill-opacity="1" />
<path d="M 506.234892 434.039916 L 432.000000,477.000000 440.000000,419.000000 Z" fill="rgb(32,29,33)" fill-opacity="1" />
<path d="M 415.041214 466.232798 L 376.000000,471.000000 411.986886,445.490105 Z" fill="rgb(40,24,15)" fill-opacity="1" />
<path d="M 424.000000 365.000000 L 482.000000,390.000000 421.000000,386.000000 Z" fill="rgb(41,30,27)" fill-opacity="1" />
<path d="M 489.000000 387.000000 L 506.234892,434.039916 482.000000,390.000000 Z" fill="rgb(49,24,17)" fill-opacity="1" />
<path d="M 506.234892 434.039916 L 497.000000,383.000000 528.000000,379.000000 Z" fill="rgb(63,36,28)" fill-opacity="1" />
<path d="M 497.000000 383.000000 L 489.000000,387.000000 485.000000,362.000000 Z" fill="rgb(59,35,32)" fill-opacity="1" />
<path d="M 510.000000 355.000000 L 532.745994,313.298058 528.000000,379.000000 Z" fill="rgb(96,50,33)" fill-opacity="1" />
<path d="M 532.745994 313.298058 L 504.000000,291.000000 524.750006,272.886133 Z" fill="rgb(74,33,25)" fill-opacity="1" />
<path d="M 512.000000 563.000000 L 512.000000,582.000000 488.000000,553.000000 Z" fill="rgb(79,42,26)" fill-opacity="1" />
<path d="M 557.000000 451.000000 L 528.000000,379.000000 565.000000,447.000000 Z" fill="rgb(61,18,24)" fill-opacity="1" />
<path d="M 557.000000 451.000000 L 527.000000,483.000000 509.000000,472.000000 Z" fill="rgb(45,18,20)" fill-opacity="1" />
<path d="M 512.000000 563.000000 L 639.555940,473.793318 538.000000,603.000000 Z" fill="rgb(91,43,33)" fill-opacity="1" />
<path d="M 506.234892 434.039916 L 557.000000,451.000000 509.000000,472.000000 Z" fill="rgb(39,13,12)" fill-opacity="1" />
<path d="M 565.000000 447.000000 L 586.000000,449.000000 559.000000,462.000000 Z" fill="rgb(78,23,16)" fill-opacity="1" />
<path d="M 557.000000 451.000000 L 559.000000,462.000000 527.000000,483.000000 Z" fill="rgb(62,24,26)" fill-opacity="1" />
<path d="M 557.000000 451.000000 L 565.000000,447.000000 559.000000,462.000000 Z" fill="rgb(74,23,22)" fill-opacity="1" />
<path d="M 376.000000 471.000000 L 415.041214,466.232798 393.000000,503.000000 Z" fill="rgb(39,26,27)" fill-opacity="1" />
<path d="M 411.986886 445.490105 L 440.000000,419.000000 432.000000,477.000000 Z" fill="rgb(41,27,45)" fill-opacity="1" />
<path d="M 393.000000 503.000000 L 426.000000,522.000000 382.000000,547.000000 Z" fill="rgb(35,23,20)" fill-opacity="1" />
<path d="M 509.000000 472.000000 L 527.000000,483.000000 509.498390,501.468172 Z" fill="rgb(33,15,15)" fill-opacity="1" />
<path d="M 393.000000 503.000000 L 432.000000,477.000000 426.000000,522.000000 Z" fill="rgb(39,26,30)" fill-opacity="1" />
<path d="M 415.041214 466.232798 L 411.986886,445.490105 432.000000,477.000000 Z" fill="rgb(32,20,17)" fill-opacity="1" />
<path d="M 432.000000 477.000000 L 509.498390,501.468172 486.000000,531.000000 Z" fill="rgb(19,16,24)" fill-opacity="1" />
<path d="M 512.000000 563.000000 L 559.000000,462.000000 639.555940,473.793318 Z" fill="rgb(54,18,18)" fill-opacity="1" />
<path d="M 426.000000 522.000000 L 419.000000,547.000000 382.000000,547.000000 Z" fill="rgb(47,31,44)" fill-opacity="1" />
<path d="M 419.000000 547.000000 L 426.000000,522.000000 447.000000,532.000000 Z" fill="rgb(60,42,30)" fill-opacity="1" />
<path d="M 382.000000 547.000000 L 419.000000,547.000000 412.000000,565.000000 Z" fill="rgb(40,26,23)" fill-opacity="1" />
<path d="M 488.000000 553.000000 L 486.000000,531.000000 512.000000,563.000000 Z" fill="rgb(101,39,22)" fill-opacity="1" />
<path d="M 445.000000 627.000000 L 435.000000,576.000000 512.000000,582.000000 Z" fill="rgb(56,42,39)" fill-opacity="1" />
<path d="M 412.000000 565.000000 L 419.000000,547.000000 435.000000,576.000000 Z" fill="rgb(55,35,30)" fill-opacity="1" />
<path d="M 352.000000 646.000000 L 408.000000,621.000000 368.304701,655.459441 Z" fill="rgb(39,23,29)" fill-opacity="1" />
<path d="M 414.000000 584.000000 L 435.000000,576.000000 429.000000,629.000000 Z" fill="rgb(53,20,13)" fill-opacity="1" />
<path d="M 339.000000 615.000000 L 414.000000,584.000000 408.000000,621.000000 Z" fill="rgb(37,20,19)" fill-opacity="1" />
<path d="M 412.000000 565.000000 L 435.000000,576.000000 414.000000,584.000000 Z" fill="rgb(58,34,28)" fill-opacity="1" />
<path d="M 408.000000 621.000000 L 429.000000,629.000000 436.260127,647.016368 Z" fill="rgb(59,31,47)" fill-opacity="1" />
<path d="M 408.000000 621.000000 L 414.000000,584.000000 429.000000,629.000000 Z" fill="rgb(37,14,18)" fill-opacity="1" />
<path d="M 429.000000 629.000000 L 445.000000,627.000000 436.260127,647.016368 Z" fill="rgb(39,20,33)" fill-opacity="1" />
<path d="M 429.000000 629.000000 L 435.000000,576.000000 445.000000,627.000000 Z" fill="rgb(67,44,41)" fill-opacity="1" />
<path d="M 420.285108 692.219751 L 459.000000,650.000000 466.000000,705.000000 Z" fill="rgb(36,18,18)" fill-opacity="1" />
<path d="M 445.000000 627.000000 L 518.000000,613.000000 459.000000,650.000000 Z" fill="rgb(56,41,45)" fill-opacity="1" />
<path d="M 447.000000 532.000000 L 486.000000,531.000000 488.000000,553.000000 Z" fill="rgb(52,27,21)" fill-opacity="1" />
<path d="M 512.000000 563.000000 L 527.000000,483.000000 559.000000,462.000000 Z" fill="rgb(36,18,18)" fill-opacity="1" />
<path d="M 512.000000 582.000000 L 538.000000,603.000000 518.000000,613.000000 Z" fill="rgb(54,41,42)" fill-opacity="1" />
<path d="M 606.000000 626.000000 L 686.251006,605.922206 662.000000,687.000000 Z" fill="rgb(91,69,58)" fill-opacity="1" />
<path d="M 419.000000 547.000000 L 447.000000,532.000000 435.000000,576.000000 Z" fill="rgb(46,25,19)" fill-opacity="1" />
<path d="M 426.000000 522.000000 L 432.000000,477.000000 447.000000,532.000000 Z" fill="rgb(62,45,43)" fill-opacity="1" />
<path d="M 512.000000 563.000000 L 486.000000,531.000000 509.498390,501.468172 Z" fill="rgb(115,41,21)" fill-opacity="1" />
<path d="M 447.000000 532.000000 L 432.000000,477.000000 486.000000,531.000000 Z" fill="rgb(40,28,32)" fill-opacity="1" />
<path d="M 435.000000 576.000000 L 488.000000,553.000000 512.000000,582.000000 Z" fill="rgb(35,18,23)" fill-opacity="1" />
<path d="M 435.000000 576.000000 L 447.000000,532.000000 488.000000,553.000000 Z" fill="rgb(67,44,30)" fill-opacity="1" />
<path d="M 527.000000 483.000000 L 512.000000,563.000000 509.498390,501.468172 Z" fill="rgb(89,31,26)" fill-opacity="1" />
<path d="M 538.000000 603.000000 L 512.000000,582.000000 512.000000,563.000000 Z" fill="rgb(56,31,33)" fill-opacity="1" />
<path d="M 639.555940 473.793318 L 606.000000,626.000000 538.000000,603.000000 Z" fill="rgb(92,52,58)" fill-opacity="1" />
<path d="M 739.827425 654.769160 L 758.000000,687.000000 662.000000,687.000000 Z" fill="rgb(90,80,74)" fill-opacity="1" />
<path d="M 686.251006 605.922206 L 739.827425,654.769160 662.000000,687.000000 Z" fill="rgb(120,94,86)" fill-opacity="1" />
<path d="M 716.819783 577.961581 L 746.768053,530.838156 773.376369,573.731886 Z" fill="rgb(130,60,59)" fill-opacity="1" />
<path d="M 925.573043 595.321819 L 802.691532,635.347097 773.376369,573.731886 Z" fill="rgb(102,68,74)" fill-opacity="1" />
<path d="M 739.827425 654.769160 L 686.251006,605.922206 716.819783,577.961581 Z" fill="rgb(101,66,70)" fill-opacity="1" />
<path d="M 606.000000 626.000000 L 662.000000,687.000000 540.000000,680.000000 Z" fill="rgb(86,47,39)" fill-opacity="1" />
<path d="M 758.000000 687.000000 L 791.095057,684.675820 809.340470,709.885654 Z" fill="rgb(107,82,155)" fill-opacity="1" />
<path d="M 739.827425 654.769160 L 796.000000,665.000000 758.000000,687.000000 Z" fill="rgb(102,74,85)" fill-opacity="1" />
<path d="M 807.479888 701.693469 L 796.000000,665.000000 888.693149,660.194064 Z" fill="rgb(151,133,126)" fill-opacity="1" />
<path d="M 791.095057 684.675820 L 758.000000,687.000000 796.000000,665.000000 Z" fill="rgb(77,48,54)" fill-opacity="1" />
<path d="M 466.000000 705.000000 L 662.000000,687.000000 809.340470,709.885654 Z" fill="rgb(56,45,42)" fill-opacity="1" />
<path d="M 791.095057 684.675820 L 796.000000,665.000000 807.479888,701.693469 Z" fill="rgb(70,52,55)" fill-opacity="1" />
<path d="M 466.000000 705.000000 L 809.340470,709.885654 371.000000,719.000000 Z" fill="rgb(84,66,60)" fill-opacity="1" />
<path d="M 809.340470 709.885654 L 888.693149,660.194064 918.000000,698.000000 Z" fill="rgb(106,87,87)" fill-opacity="1" />
<path d="M 807.479888 701.693469 L 888.693149,660.194064 809.340470,709.885654 Z" fill="rgb(168,136,124)" fill-opacity="1" />
<path d="M 987.768844 661.549133 L 947.000000,622.000000 1042.000000,569.000000 Z" fill="rgb(108,94,104)" fill-opacity="1" />
<path d="M 918.000000 698.000000 L 1080.000000,732.000000 809.340470,709.885654 Z" fill="rgb(46,33,43)" fill-opacity="1" />
<path d="M 948.469467 638.510380 L 913.932477,664.250255 930.000000,614.000000 Z" fill="rgb(105,84,84)" fill-opacity="1" />
<path d="M 918.000000 698.000000 L 888.693149,660.194064 913.932477,664.250255 Z" fill="rgb(116,96,100)" fill-opacity="1" />
<path d="M 796.000000 665.000000 L 802.691532,635.347097 888.693149,660.194064 Z" fill="rgb(100,79,90)" fill-opacity="1" />
<path d="M 888.693149 660.194064 L 925.573043,595.321819 930.000000,614.000000 Z" fill="rgb(113,93,99)" fill-opacity="1" />
<path d="M 929.000000 544.000000 L 1042.000000,569.000000 947.000000,622.000000 Z" fill="rgb(96,80,79)" fill-opacity="1" />
<path d="M 918.000000 698.000000 L 948.469467,638.510380 987.768844,661.549133 Z" fill="rgb(208,185,170)" fill-opacity="1" />
<path d="M 918.000000 698.000000 L 913.932477,664.250255 948.469467,638.510380 Z" fill="rgb(82,68,73)" fill-opacity="1" />
<path d="M 918.000000 698.000000 L 987.768844,661.549133 1080.000000,732.000000 Z" fill="rgb(71,66,72)" fill-opacity="1" />
<path d="M 948.469467 638.510380 L 947.000000,622.000000 987.768844,661.549133 Z" fill="rgb(79,61,69)" fill-opacity="1" />
<path d="M 930.000000 614.000000 L 925.573043,595.321819 947.000000,622.000000 Z" fill="rgb(105,69,76)" fill-opacity="1" />
<path d="M 888.693149 660.194064 L 802.691532,635.347097 925.573043,595.321819 Z" fill="rgb(78,60,63)" fill-opacity="1" />
<path d="M 948.469467 638.510380 L 930.000000,614.000000 947.000000,622.000000 Z" fill="rgb(91,75,82)" fill-opacity="1" />
<path d="M 913.932477 664.250255 L 888.693149,660.194064 930.000000,614.000000 Z" fill="rgb(108,90,96)" fill-opacity="1" />
<path d="M 987.768844 661.549133 L 1080.000000,565.000000 1080.000000,732.000000 Z" fill="rgb(55,51,60)" fill-opacity="1" />
<path d="M 1077.488725 285.906731 L 1080.000000,170.000000 1080.000000,565.000000 Z" fill="rgb(111,90,88)" fill-opacity="1" />
<path d="M 639.555940 473.793318 L 686.251006,605.922206 606.000000,626.000000 Z" fill="rgb(133,74,52)" fill-opacity="1" />
<path d="M 716.819783 577.961581 L 773.376369,573.731886 739.827425,654.769160 Z" fill="rgb(109,62,71)" fill-opacity="1" />
<path d="M 639.555940 473.793318 L 716.819783,577.961581 686.251006,605.922206 Z" fill="rgb(119,56,43)" fill-opacity="1" />
<path d="M 773.376369 573.731886 L 929.000000,544.000000 925.573043,595.321819 Z" fill="rgb(117,86,81)" fill-opacity="1" />
<path d="M 639.555940 473.793318 L 692.470771,472.390559 716.819783,577.961581 Z" fill="rgb(106,43,34)" fill-opacity="1" />
<path d="M 711.036611 297.334576 L 638.696466,380.058269 632.159385,270.512554 Z" fill="rgb(225,191,154)" fill-opacity="1" />
<path d="M 739.827425 654.769160 L 773.376369,573.731886 802.691532,635.347097 Z" fill="rgb(89,52,52)" fill-opacity="1" />
<path d="M 746.768053 530.838156 L 772.244788,507.755903 773.376369,573.731886 Z" fill="rgb(118,52,50)" fill-opacity="1" />
<path d="M 559.000000 462.000000 L 586.000000,449.000000 639.555940,473.793318 Z" fill="rgb(97,28,23)" fill-opacity="1" />
<path d="M 565.000000 447.000000 L 528.000000,379.000000 586.000000,449.000000 Z" fill="rgb(65,18,9)" fill-opacity="1" />
<path d="M 586.000000 449.000000 L 638.696466,380.058269 640.000000,448.000000 Z" fill="rgb(185,125,78)" fill-opacity="1" />
<path d="M 586.000000 449.000000 L 528.000000,379.000000 638.696466,380.058269 Z" fill="rgb(114,50,25)" fill-opacity="1" />
<path d="M 639.555940 473.793318 L 640.000000,448.000000 692.470771,472.390559 Z" fill="rgb(170,59,26)" fill-opacity="1" />
<path d="M 639.555940 473.793318 L 586.000000,449.000000 640.000000,448.000000 Z" fill="rgb(136,52,28)" fill-opacity="1" />
<path d="M 716.819783 577.961581 L 692.470771,472.390559 746.768053,530.838156 Z" fill="rgb(176,119,91)" fill-opacity="1" />
<path d="M 640.000000 448.000000 L 638.696466,380.058269 692.470771,472.390559 Z" fill="rgb(155,77,46)" fill-opacity="1" />
<path d="M 1030.124507 350.526037 L 948.593904,376.701626 989.998664,264.379545 Z" fill="rgb(160,143,144)" fill-opacity="1" />
<path d="M 692.470771 472.390559 L 638.696466,380.058269 756.964094,414.758827 Z" fill="rgb(184,114,70)" fill-opacity="1" />
<path d="M 816.002591 406.643312 L 772.244788,507.755903 756.964094,414.758827 Z" fill="rgb(182,117,83)" fill-opacity="1" />
<path d="M 929.000000 544.000000 L 773.376369,573.731886 772.244788,507.755903 Z" fill="rgb(122,65,60)" fill-opacity="1" />
<path d="M 921.829771 360.070361 L 816.002591,406.643312 775.644475,319.608764 Z" fill="rgb(208,185,163)" fill-opacity="1" />
<path d="M 929.000000 544.000000 L 772.244788,507.755903 816.002591,406.643312 Z" fill="rgb(134,67,53)" fill-opacity="1" />
<path d="M 1042.000000 569.000000 L 948.593904,376.701626 1030.124507,350.526037 Z" fill="rgb(150,112,96)" fill-opacity="1" />
<path d="M 929.000000 544.000000 L 816.002591,406.643312 948.593904,376.701626 Z" fill="rgb(144,78,73)" fill-opacity="1" />
<path d="M 705.395371 86.690943 L 812.529400,244.587814 684.012517,222.741557 Z" fill="rgb(210,101,89)" fill-opacity="1" />
<path d="M 756.964094 414.758827 L 638.696466,380.058269 711.036611,297.334576 Z" fill="rgb(206,164,124)" fill-opacity="1" />
<path d="M 876.194437 249.955812 L 775.644475,319.608764 812.529400,244.587814 Z" fill="rgb(218,135,130)" fill-opacity="1" />
<path d="M 816.002591 406.643312 L 756.964094,414.758827 775.644475,319.608764 Z" fill="rgb(197,166,140)" fill-opacity="1" />
<path d="M 948.593904 376.701626 L 921.829771,360.070361 989.998664,264.379545 Z" fill="rgb(167,139,140)" fill-opacity="1" />
<path d="M 948.593904 376.701626 L 816.002591,406.643312 921.829771,360.070361 Z" fill="rgb(171,125,110)" fill-opacity="1" />
<path d="M 711.036611 297.334576 L 812.529400,244.587814 775.644475,319.608764 Z" fill="rgb(255,216,178)" fill-opacity="1" />
<path d="M 812.529400 244.587814 L 705.395371,86.690943 866.232122,78.285712 Z" fill="rgb(219,143,142)" fill-opacity="1" />
<path d="M 940.424053 165.121478 L 876.194437,249.955812 866.232122,78.285712 Z" fill="rgb(225,195,177)" fill-opacity="1" />
<path d="M 989.998664 264.379545 L 921.829771,360.070361 876.194437,249.955812 Z" fill="rgb(194,182,175)" fill-opacity="1" />
<path d="M 1030.124507 350.526037 L 1077.488725,285.906731 1080.000000,565.000000 Z" fill="rgb(95,85,78)" fill-opacity="1" />
<path d="M 989.998664 264.379545 L 1080.000000,170.000000 1077.488725,285.906731 Z" fill="rgb(108,79,84)" fill-opacity="1" />
<path d="M 1075.000000 92.000000 L 1080.000000,0.000000 1080.000000,170.000000 Z" fill="rgb(63,43,65)" fill-opacity="1" />
<path d="M 504.000000 259.000000 L 464.947172,289.020421 491.023025,242.120690 Z" fill="rgb(64,29,18)" fill-opacity="1" />
<path d="M 450.000000 188.000000 L 420.000000,182.000000 416.111290,125.543930 Z" fill="rgb(54,35,31)" fill-opacity="1" />
<path d="M 681.413472 261.917487 L 632.159385,270.512554 684.012517,222.741557 Z" fill="rgb(214,168,114)" fill-opacity="1" />
<path d="M 520.000000 317.000000 L 532.745994,313.298058 510.000000,355.000000 Z" fill="rgb(162,108,82)" fill-opacity="1" />
<path d="M 711.036611 297.334576 L 681.413472,261.917487 684.012517,222.741557 Z" fill="rgb(225,172,114)" fill-opacity="1" />
<path d="M 711.036611 297.334576 L 632.159385,270.512554 681.413472,261.917487 Z" fill="rgb(222,181,136)" fill-opacity="1" />
<path d="M 510.000000 355.000000 L 507.000000,349.000000 520.000000,317.000000 Z" fill="rgb(123,78,58)" fill-opacity="1" />
<path d="M 507.000000 349.000000 L 485.000000,362.000000 510.000000,316.000000 Z" fill="rgb(54,26,21)" fill-opacity="1" />
<path d="M 505.000000 369.000000 L 510.000000,355.000000 528.000000,379.000000 Z" fill="rgb(66,34,25)" fill-opacity="1" />
<path d="M 485.000000 362.000000 L 427.000000,357.000000 464.947172,289.020421 Z" fill="rgb(83,50,45)" fill-opacity="1" />
<path d="M 504.000000 291.000000 L 520.000000,317.000000 510.000000,316.000000 Z" fill="rgb(64,23,25)" fill-opacity="1" />
<path d="M 532.745994 313.298058 L 638.696466,380.058269 528.000000,379.000000 Z" fill="rgb(144,72,37)" fill-opacity="1" />
<path d="M 504.000000 291.000000 L 532.745994,313.298058 520.000000,317.000000 Z" fill="rgb(77,41,45)" fill-opacity="1" />
<path d="M 632.159385 270.512554 L 638.696466,380.058269 532.745994,313.298058 Z" fill="rgb(210,146,83)" fill-opacity="1" />
<path d="M 510.000000 316.000000 L 464.947172,289.020421 504.000000,291.000000 Z" fill="rgb(57,25,21)" fill-opacity="1" />
<path d="M 417.000000 291.000000 L 415.000000,264.000000 464.947172,289.020421 Z" fill="rgb(62,54,63)" fill-opacity="1" />
<path d="M 505.000000 369.000000 L 485.000000,362.000000 510.000000,355.000000 Z" fill="rgb(55,22,21)" fill-opacity="1" />
<path d="M 505.000000 369.000000 L 497.000000,383.000000 485.000000,362.000000 Z" fill="rgb(63,39,30)" fill-opacity="1" />
<path d="M 520.000000 317.000000 L 507.000000,349.000000 510.000000,316.000000 Z" fill="rgb(98,60,44)" fill-opacity="1" />
<path d="M 510.000000 355.000000 L 485.000000,362.000000 507.000000,349.000000 Z" fill="rgb(73,38,33)" fill-opacity="1" />
<path d="M 339.000000 330.000000 L 397.000000,310.000000 358.000000,353.000000 Z" fill="rgb(29,17,14)" fill-opacity="1" />
<path d="M 339.000000 330.000000 L 354.701671,256.503357 397.000000,310.000000 Z" fill="rgb(38,31,39)" fill-opacity="1" />
<path d="M 420.000000 350.000000 L 416.000000,325.000000 427.000000,357.000000 Z" fill="rgb(50,43,37)" fill-opacity="1" />
<path d="M 397.000000 310.000000 L 417.000000,291.000000 416.000000,325.000000 Z" fill="rgb(39,31,33)" fill-opacity="1" />
<path d="M 424.000000 365.000000 L 420.000000,350.000000 427.000000,357.000000 Z" fill="rgb(45,32,46)" fill-opacity="1" />
<path d="M 358.000000 353.000000 L 416.000000,325.000000 420.000000,350.000000 Z" fill="rgb(34,20,21)" fill-opacity="1" />
<path d="M 485.000000 362.000000 L 424.000000,365.000000 427.000000,357.000000 Z" fill="rgb(40,26,23)" fill-opacity="1" />
<path d="M 421.000000 386.000000 L 393.000000,397.000000 424.000000,365.000000 Z" fill="rgb(29,14,26)" fill-opacity="1" />
<path d="M 450.000000 201.000000 L 491.023025,242.120690 423.701055,211.503330 Z" fill="rgb(51,25,18)" fill-opacity="1" />
<path d="M 417.000000 291.000000 L 397.000000,310.000000 415.000000,264.000000 Z" fill="rgb(44,40,51)" fill-opacity="1" />
<path d="M 415.000000 264.000000 L 419.537916,213.623481 423.701055,211.503330 Z" fill="rgb(56,46,42)" fill-opacity="1" />
<path d="M 415.000000 264.000000 L 359.000000,218.000000 419.537916,213.623481 Z" fill="rgb(26,19,18)" fill-opacity="1" />
<path d="M 450.000000 201.000000 L 420.000000,182.000000 450.000000,188.000000 Z" fill="rgb(78,52,37)" fill-opacity="1" />
<path d="M 423.701055 211.503330 L 419.537916,213.623481 420.000000,182.000000 Z" fill="rgb(51,31,26)" fill-opacity="1" />
<path d="M 491.023025 242.120690 L 450.000000,201.000000 506.669405,165.617335 Z" fill="rgb(64,38,27)" fill-opacity="1" />
<path d="M 434.000000 78.000000 L 380.475918,96.929769 366.437692,61.530143 Z" fill="rgb(68,43,33)" fill-opacity="1" />
<path d="M 506.669405 165.617335 L 450.000000,201.000000 450.000000,188.000000 Z" fill="rgb(95,60,46)" fill-opacity="1" />
<path d="M 491.023025 242.120690 L 415.000000,264.000000 423.701055,211.503330 Z" fill="rgb(54,25,16)" fill-opacity="1" />
<path d="M 524.750006 272.886133 L 504.000000,259.000000 531.000000,223.000000 Z" fill="rgb(127,86,66)" fill-opacity="1" />
<path d="M 464.947172 289.020421 L 415.000000,264.000000 491.023025,242.120690 Z" fill="rgb(40,10,11)" fill-opacity="1" />
<path d="M 531.000000 223.000000 L 504.000000,259.000000 491.023025,242.120690 Z" fill="rgb(101,60,35)" fill-opacity="1" />
<path d="M 524.750006 272.886133 L 504.000000,291.000000 504.000000,259.000000 Z" fill="rgb(81,45,33)" fill-opacity="1" />
<path d="M 366.437692 61.530143 L 389.000000,17.000000 434.000000,78.000000 Z" fill="rgb(81,63,57)" fill-opacity="1" />
<path d="M 607.421615 44.285532 L 679.952872,63.922108 557.058619,108.379459 Z" fill="rgb(164,100,74)" fill-opacity="1" />
<path d="M 531.000000 223.000000 L 557.058619,108.379459 684.012517,222.741557 Z" fill="rgb(146,79,38)" fill-opacity="1" />
<path d="M 506.669405 165.617335 L 450.000000,188.000000 416.111290,125.543930 Z" fill="rgb(70,45,35)" fill-opacity="1" />
<path d="M 557.058619 108.379459 L 705.395371,86.690943 684.012517,222.741557 Z" fill="rgb(154,71,54)" fill-opacity="1" />
<path d="M 705.933948 59.430060 L 720.522736,66.575492 705.395371,86.690943 Z" fill="rgb(189,123,99)" fill-opacity="1" />
<path d="M 420.000000 182.000000 L 405.000000,137.000000 416.111290,125.543930 Z" fill="rgb(42,28,26)" fill-opacity="1" />
<path d="M 420.000000 182.000000 L 347.000000,158.000000 405.000000,137.000000 Z" fill="rgb(44,19,11)" fill-opacity="1" />
<path d="M 506.669405 165.617335 L 416.111290,125.543930 434.000000,78.000000 Z" fill="rgb(60,34,23)" fill-opacity="1" />
<path d="M 405.000000 137.000000 L 380.475918,96.929769 416.111290,125.543930 Z" fill="rgb(58,33,23)" fill-opacity="1" />
<path d="M 302.000000 7.000000 L 389.000000,17.000000 366.437692,61.530143 Z" fill="rgb(94,73,65)" fill-opacity="1" />
<path d="M 526.393872 76.025090 L 506.669405,165.617335 434.000000,78.000000 Z" fill="rgb(89,51,36)" fill-opacity="1" />
<path d="M 531.000000 223.000000 L 506.669405,165.617335 557.058619,108.379459 Z" fill="rgb(114,65,58)" fill-opacity="1" />
<path d="M 531.000000 223.000000 L 491.023025,242.120690 506.669405,165.617335 Z" fill="rgb(117,70,50)" fill-opacity="1" />
<path d="M 607.421615 44.285532 L 526.393872,76.025090 463.000000,1.000000 Z" fill="rgb(118,74,49)" fill-opacity="1" />
<path d="M 463.000000 1.000000 L 526.393872,76.025090 434.000000,78.000000 Z" fill="rgb(99,60,44)" fill-opacity="1" />
<path d="M 705.933948 59.430060 L 679.952872,63.922108 661.045059,12.340466 Z" fill="rgb(168,114,85)" fill-opacity="1" />
<path d="M 302.000000 7.000000 L 0.000000,0.000000 463.000000,1.000000 Z" fill="rgb(64,47,34)" fill-opacity="1" />
<path d="M 661.045059 12.340466 L 607.421615,44.285532 463.000000,1.000000 Z" fill="rgb(171,126,99)" fill-opacity="1" />
<path d="M 679.952872 63.922108 L 705.395371,86.690943 557.058619,108.379459 Z" fill="rgb(182,117,92)" fill-opacity="1" />
<path d="M 733.895366 56.158620 L 705.933948,59.430060 755.624491,5.521600 Z" fill="rgb(203,168,141)" fill-opacity="1" />
<path d="M 463.000000 1.000000 L 0.000000,0.000000 1080.000000,0.000000 Z" fill="rgb(170,135,111)" fill-opacity="1" />
<path d="M 661.045059 12.340466 L 679.952872,63.922108 607.421615,44.285532 Z" fill="rgb(153,88,82)" fill-opacity="1" />
<path d="M 705.933948 59.430060 L 705.395371,86.690943 679.952872,63.922108 Z" fill="rgb(188,113,93)" fill-opacity="1" />
<path d="M 866.232122 78.285712 L 705.395371,86.690943 733.895366,56.158620 Z" fill="rgb(231,183,169)" fill-opacity="1" />
<path d="M 705.933948 59.430060 L 661.045059,12.340466 755.624491,5.521600 Z" fill="rgb(166,105,84)" fill-opacity="1" />
<path d="M 1009.000000 9.000000 L 866.232122,78.285712 755.624491,5.521600 Z" fill="rgb(172,158,153)" fill-opacity="1" />
<path d="M 720.522736 66.575492 L 705.933948,59.430060 733.895366,56.158620 Z" fill="rgb(186,111,97)" fill-opacity="1" />
<path d="M 866.232122 78.285712 L 733.895366,56.158620 755.624491,5.521600 Z" fill="rgb(189,160,140)" fill-opacity="1" />
<path d="M 661.045059 12.340466 L 463.000000,1.000000 755.624491,5.521600 Z" fill="rgb(164,132,117)" fill-opacity="1" />
<path d="M 1060.063149 123.710682 L 940.424053,165.121478 947.767332,85.164354 Z" fill="rgb(99,64,69)" fill-opacity="1" />
<path d="M 755.624491 5.521600 L 463.000000,1.000000 1080.000000,0.000000 Z" fill="rgb(222,195,170)" fill-opacity="1" />
<path d="M 1038.000000 24.000000 L 1014.000000,24.000000 1032.000000,17.000000 Z" fill="rgb(29,30,71)" fill-opacity="1" />
<path d="M 1009.000000 9.000000 L 755.624491,5.521600 1080.000000,0.000000 Z" fill="rgb(129,121,131)" fill-opacity="1" />
<path d="M 1032.000000 75.000000 L 1060.063149,123.710682 947.767332,85.164354 Z" fill="rgb(56,44,45)" fill-opacity="1" />
<path d="M 876.194437 249.955812 L 812.529400,244.587814 866.232122,78.285712 Z" fill="rgb(222,178,158)" fill-opacity="1" />
<path d="M 947.767332 85.164354 L 940.424053,165.121478 866.232122,78.285712 Z" fill="rgb(177,161,161)" fill-opacity="1" />
<path d="M 1068.000000 160.000000 L 989.998664,264.379545 940.424053,165.121478 Z" fill="rgb(139,96,105)" fill-opacity="1" />
<path d="M 1009.000000 9.000000 L 947.767332,85.164354 866.232122,78.285712 Z" fill="rgb(140,130,138)" fill-opacity="1" />
<path d="M 1051.000000 58.000000 L 1032.000000,75.000000 1014.000000,24.000000 Z" fill="rgb(52,38,48)" fill-opacity="1" />
<path d="M 1009.000000 9.000000 L 1014.000000,24.000000 947.767332,85.164354 Z" fill="rgb(76,59,64)" fill-opacity="1" />
<path d="M 1009.000000 9.000000 L 1032.000000,17.000000 1014.000000,24.000000 Z" fill="rgb(40,29,46)" fill-opacity="1" />
<path d="M 1060.063149 123.710682 L 1032.000000,75.000000 1069.000000,83.000000 Z" fill="rgb(48,37,43)" fill-opacity="1" />
<path d="M 947.767332 85.164354 L 1014.000000,24.000000 1032.000000,75.000000 Z" fill="rgb(72,55,53)" fill-opacity="1" />
<path d="M 1080.000000 170.000000 L 1060.063149,123.710682 1075.000000,92.000000 Z" fill="rgb(57,44,45)" fill-opacity="1" />
<path d="M 1068.000000 160.000000 L 940.424053,165.121478 1060.063149,123.710682 Z" fill="rgb(74,60,71)" fill-opacity="1" />
<path d="M 1080.000000 170.000000 L 1068.000000,160.000000 1060.063149,123.710682 Z" fill="rgb(58,45,49)" fill-opacity="1" />
<path d="M 1080.000000 170.000000 L 989.998664,264.379545 1068.000000,160.000000 Z" fill="rgb(136,120,179)" fill-opacity="1" />
<path d="M 1060.063149 123.710682 L 1069.000000,83.000000 1075.000000,92.000000 Z" fill="rgb(64,44,48)" fill-opacity="1" />
<path d="M 1051.000000 58.000000 L 1014.000000,24.000000 1038.000000,24.000000 Z" fill="rgb(38,24,36)" fill-opacity="1" />
<path d="M 1069.000000 83.000000 L 1051.000000,58.000000 1062.000000,27.000000 Z" fill="rgb(54,42,48)" fill-opacity="1" />
<path d="M 1032.000000 17.000000 L 1009.000000,9.000000 1080.000000,0.000000 Z" fill="rgb(69,54,54)" fill-opacity="1" />
<path d="M 1062.000000 27.000000 L 1051.000000,58.000000 1038.000000,24.000000 Z" fill="rgb(37,26,41)" fill-opacity="1" />
<path d="M 1069.000000 83.000000 L 1032.000000,75.000000 1051.000000,58.000000 Z" fill="rgb(49,38,41)" fill-opacity="1" />
<path d="M 1069.000000 83.000000 L 1062.000000,27.000000 1080.000000,0.000000 Z" fill="rgb(45,32,44)" fill-opacity="1" />
<path d="M 1038.000000 24.000000 L 1032.000000,17.000000 1062.000000,27.000000 Z" fill="rgb(43,28,39)" fill-opacity="1" />
<path d="M 1069.000000 83.000000 L 1080.000000,0.000000 1075.000000,92.000000 Z" fill="rgb(48,33,41)" fill-opacity="1" />
<path d="M 1062.000000 27.000000 L 1032.000000,17.000000 1080.000000,0.000000 Z" fill="rgb(33,22,37)" fill-opacity="1" />
</g>
</svg>