<!DOCTYPE svg PUBLIC "-//W3C//DTD SVG 1.1//EN" "http://www.w3.org/Graphics/SVG/1.1/DTD/svg11.dtd">
<svg xmlns="http://www.w3.org/2000/svg" version="1.200000" width="100%" height="100%" viewBox="0 0 1081 733" xmlns:xlink="http://www.w3.org/1999/xlink"><g stroke="none" stroke-width="0" shape-rendering="crispEdges">
<path d="M 286.000000 506.000000 L 325.000000,504.000000 322.000000,577.000000 Z" fill="rgb(43,27,33)" fill-opacity="1" />
<path d="M 136.000000 96.000000 L 164.591331,177.770043 41.000000,114.000000 Z" fill="rgb(149,127,104)" fill-opacity="1" />
<path d="M 322.000000 477.000000 L 334.000000,498.000000 317.000000,489.000000 Z" fill="rgb(46,39,41)" fill-opacity="1" />
<path d="M 36.000000 290.000000 L 67.000000,437.000000 0.000000,732.000000 Z" fill="rgb(82,81,88)" fill-opacity="1" />
<path d="M 320.000000 344.000000 L 320.000000,306.000000 339.000000,330.000000 Z" fill="rgb(42,36,37)" fill-opacity="1" />
<path d="M 243.893364 701.067441 L 175.000000,725.000000 168.000000,657.000000 Z" fill="rgb(124,101,103)" fill-opacity="1" />
<path d="M 303.000000 656.000000 L 339.000000,615.000000 344.000000,650.000000 Z" fill="rgb(32,19,23)" fill-opacity="1" />
<path d="M 117.000000 482.000000 L 100.000000,469.000000 109.000000,450.000000 Z" fill="rgb(32,23,29)" fill-opacity="1" />
<path d="M 381.000000 672.000000 L 407.000000,686.000000 371.000000,719.000000 Z" fill="rgb(37,24,31)" fill-opacity="1" />
<path d="M 322.000000 577.000000 L 339.000000,615.000000 298.000000,587.000000 Z" fill="rgb(24,21,25)" fill-opacity="1" />
<path d="M 540.000000 680.000000 L 538.000000,603.000000 606.000000,626.000000 Z" fill="rgb(70,52,45)" fill-opacity="1" />
<path d="M 466.000000 705.000000 L 371.000000,719.000000 407.000000,686.000000 Z" fill="rgb(32,19,23)" fill-opacity="1" />
<path d="M 346.000000 557.000000 L 414.000000,584.000000 339.000000,615.000000 Z" fill="rgb(52,39,36)" fill-opacity="1" />
<path d="M 564.998944 693.266594 L 758.000000,687.000000 1080.000000,732.000000 Z" fill="rgb(129,104,106)" fill-opacity="1" />
<path d="M 962.696813 585.039595 L 968.307458,580.925885 947.000000,622.000000 Z" fill="rgb(84,59,61)" fill-opacity="1" />
<path d="M 419.000000 547.000000 L 412.000000,565.000000 382.000000,547.000000 Z" fill="rgb(40,26,23)" fill-opacity="1" />
<path d="M 754.773350 601.972228 L 758.000000,687.000000 662.000000,687.000000 Z" fill="rgb(70,53,51)" fill-opacity="1" />
<path d="M 100.000000 469.000000 L 62.908365,595.636547 67.000000,437.000000 Z" fill="rgb(76,59,55)" fill-opacity="1" />
<path d="M 510.000000 316.000000 L 507.000000,349.000000 485.000000,362.000000 Z" fill="rgb(54,26,21)" fill-opacity="1" />
<path d="M 930.000000 614.000000 L 918.000000,698.000000 796.000000,665.000000 Z" fill="rgb(110,95,98)" fill-opacity="1" />
<path d="M 376.000000 471.000000 L 349.000000,449.000000 375.930817,426.449663 Z" fill="rgb(18,10,17)" fill-opacity="1" />
<path d="M 518.000000 613.000000 L 538.000000,603.000000 540.000000,680.000000 Z" fill="rgb(123,81,61)" fill-opacity="1" />
<path d="M 489.000000 387.000000 L 497.000000,383.000000 509.000000,472.000000 Z" fill="rgb(51,30,23)" fill-opacity="1" />
<path d="M 481.195084 219.973163 L 504.000000,259.000000 466.060687,275.214554 Z" fill="rgb(63,38,36)" fill-opacity="1" />
<path d="M 548.668130 570.135493 L 559.000000,462.000000 586.000000,449.000000 Z" fill="rgb(51,10,11)" fill-opacity="1" />
<path d="M 785.600632 379.049703 L 783.345856,204.092418 871.312209,193.216773 Z" fill="rgb(211,136,125)" fill-opacity="1" />
<path d="M 293.000000 13.000000 L 301.000000,53.000000 286.000000,15.000000 Z" fill="rgb(77,60,56)" fill-opacity="1" />
<path d="M 1038.985821 551.819755 L 1042.000000,569.000000 1002.692321,569.813840 Z" fill="rgb(87,75,83)" fill-opacity="1" />
<path d="M 143.000000 63.000000 L 136.000000,96.000000 47.067716,50.647269 Z" fill="rgb(106,91,87)" fill-opacity="1" />
<path d="M 871.312209 193.216773 L 783.345856,204.092418 819.903219,128.053973 Z" fill="rgb(206,160,140)" fill-opacity="1" />
<path d="M 174.000000 102.000000 L 143.000000,63.000000 195.000000,55.000000 Z" fill="rgb(57,44,41)" fill-opacity="1" />
<path d="M 347.000000 158.000000 L 364.000000,208.000000 336.226632,193.872081 Z" fill="rgb(56,38,33)" fill-opacity="1" />
<path d="M 293.000000 91.000000 L 264.000000,143.000000 238.000000,128.000000 Z" fill="rgb(55,36,35)" fill-opacity="1" />
<path d="M 41.000000 114.000000 L 15.000000,59.000000 47.067716,50.647269 Z" fill="rgb(80,81,93)" fill-opacity="1" />
<path d="M 268.000000 307.000000 L 308.000000,297.000000 320.000000,344.000000 Z" fill="rgb(21,15,13)" fill-opacity="1" />
<path d="M 250.000000 207.000000 L 192.000000,226.000000 221.000000,173.000000 Z" fill="rgb(73,48,53)" fill-opacity="1" />
<path d="M 47.067716 50.647269 L 0.000000,0.000000 143.000000,63.000000 Z" fill="rgb(89,83,88)" fill-opacity="1" />
<path d="M 195.000000 55.000000 L 0.000000,0.000000 286.000000,15.000000 Z" fill="rgb(56,46,39)" fill-opacity="1" />
<path d="M 285.121481 155.375283 L 264.000000,143.000000 293.000000,91.000000 Z" fill="rgb(59,41,37)" fill-opacity="1" />
<path d="M 238.000000 128.000000 L 221.000000,173.000000 174.000000,102.000000 Z" fill="rgb(70,47,41)" fill-opacity="1" />
<path d="M 290.000000 246.000000 L 305.000000,264.000000 268.000000,307.000000 Z" fill="rgb(44,36,38)" fill-opacity="1" />
<path d="M 109.000000 368.000000 L 138.484044,365.540246 149.000000,420.000000 Z" fill="rgb(36,20,31)" fill-opacity="1" />
<path d="M 482.000000 390.000000 L 485.000000,362.000000 489.000000,387.000000 Z" fill="rgb(54,32,32)" fill-opacity="1" />
<path d="M 367.000000 377.000000 L 358.000000,353.000000 420.000000,350.000000 Z" fill="rgb(26,10,22)" fill-opacity="1" />
<path d="M 290.000000 246.000000 L 300.000000,236.000000 305.000000,264.000000 Z" fill="rgb(22,16,36)" fill-opacity="1" />
<path d="M 466.060687 275.214554 L 504.000000,291.000000 510.000000,316.000000 Z" fill="rgb(62,35,30)" fill-opacity="1" />
<path d="M 89.959367 255.829639 L 142.061717,233.108585 125.000000,323.000000 Z" fill="rgb(192,170,137)" fill-opacity="1" />
<path d="M 204.000000 317.000000 L 137.000000,337.000000 125.000000,323.000000 Z" fill="rgb(53,29,26)" fill-opacity="1" />
<path d="M 250.000000 207.000000 L 227.000000,278.000000 209.000000,253.000000 Z" fill="rgb(47,31,36)" fill-opacity="1" />
<path d="M 297.000000 372.000000 L 257.000000,392.000000 253.000000,363.000000 Z" fill="rgb(31,14,23)" fill-opacity="1" />
<path d="M 246.000000 336.000000 L 252.000000,349.000000 223.000000,326.000000 Z" fill="rgb(27,13,18)" fill-opacity="1" />
<path d="M 308.000000 297.000000 L 320.000000,306.000000 320.000000,344.000000 Z" fill="rgb(24,21,26)" fill-opacity="1" />
<path d="M 36.000000 290.000000 L 89.959367,255.829639 125.000000,323.000000 Z" fill="rgb(165,159,144)" fill-opacity="1" />
<path d="M 199.000000 421.000000 L 156.000000,419.000000 165.000000,414.000000 Z" fill="rgb(39,23,34)" fill-opacity="1" />
<path d="M 36.000000 290.000000 L 41.000000,114.000000 89.959367,255.829639 Z" fill="rgb(134,123,121)" fill-opacity="1" />
<path d="M 215.808236 407.842922 L 142.000000,357.000000 204.000000,317.000000 Z" fill="rgb(60,42,40)" fill-opacity="1" />
<path d="M 149.000000 420.000000 L 109.000000,450.000000 85.949582,393.701536 Z" fill="rgb(33,20,24)" fill-opacity="1" />
<path d="M 67.000000 437.000000 L 85.949582,393.701536 109.000000,450.000000 Z" fill="rgb(33,24,24)" fill-opacity="1" />
<path d="M 168.000000 657.000000 L 210.000000,588.000000 254.000000,677.000000 Z" fill="rgb(112,81,71)" fill-opacity="1" />
<path d="M 0.000000 732.000000 L 0.000000,0.000000 36.000000,290.000000 Z" fill="rgb(66,66,75)" fill-opacity="1" />
<path d="M 58.000000 664.000000 L 126.000000,722.000000 49.000000,678.000000 Z" fill="rgb(68,52,44)" fill-opacity="1" />
<path d="M 126.000000 722.000000 L 0.000000,732.000000 50.000000,719.000000 Z" fill="rgb(23,22,30)" fill-opacity="1" />
<path d="M 216.000000 520.000000 L 210.000000,588.000000 164.952836,569.817343 Z" fill="rgb(171,135,118)" fill-opacity="1" />
<path d="M 49.000000 678.000000 L 14.000000,717.000000 62.908365,595.636547 Z" fill="rgb(40,45,47)" fill-opacity="1" />
<path d="M 168.000000 657.000000 L 175.000000,725.000000 132.000000,720.000000 Z" fill="rgb(59,52,57)" fill-opacity="1" />
<path d="M 175.000000 725.000000 L 0.000000,732.000000 126.000000,722.000000 Z" fill="rgb(27,26,33)" fill-opacity="1" />
<path d="M 381.000000 672.000000 L 371.000000,719.000000 343.000000,689.000000 Z" fill="rgb(57,44,32)" fill-opacity="1" />
<path d="M 126.000000 722.000000 L 50.000000,719.000000 49.000000,678.000000 Z" fill="rgb(47,36,33)" fill-opacity="1" />
<path d="M 153.000000 564.000000 L 146.000000,575.000000 150.000000,543.000000 Z" fill="rgb(63,51,60)" fill-opacity="1" />
<path d="M 250.000000 506.000000 L 274.745627,488.898928 286.000000,506.000000 Z" fill="rgb(38,27,24)" fill-opacity="1" />
<path d="M 199.000000 421.000000 L 215.000000,460.000000 142.000000,453.000000 Z" fill="rgb(34,19,20)" fill-opacity="1" />
<path d="M 117.000000 482.000000 L 109.000000,450.000000 142.000000,453.000000 Z" fill="rgb(26,17,23)" fill-opacity="1" />
<path d="M 231.000000 586.000000 L 210.000000,588.000000 216.000000,520.000000 Z" fill="rgb(43,30,31)" fill-opacity="1" />
<path d="M 150.000000 543.000000 L 62.908365,595.636547 117.000000,482.000000 Z" fill="rgb(167,119,82)" fill-opacity="1" />
<path d="M 349.000000 449.000000 L 322.000000,477.000000 287.000000,467.000000 Z" fill="rgb(17,12,23)" fill-opacity="1" />
<path d="M 310.000000 370.000000 L 349.000000,449.000000 297.000000,372.000000 Z" fill="rgb(17,13,18)" fill-opacity="1" />
<path d="M 485.000000 362.000000 L 466.060687,275.214554 510.000000,316.000000 Z" fill="rgb(65,34,41)" fill-opacity="1" />
<path d="M 391.000000 412.000000 L 432.000000,477.000000 375.930817,426.449663 Z" fill="rgb(18,19,22)" fill-opacity="1" />
<path d="M 339.000000 498.000000 L 349.000000,449.000000 376.000000,471.000000 Z" fill="rgb(22,8,5)" fill-opacity="1" />
<path d="M 454.712259 413.272706 L 482.000000,390.000000 509.000000,472.000000 Z" fill="rgb(48,35,32)" fill-opacity="1" />
<path d="M 440.000000 419.000000 L 454.712259,413.272706 432.000000,477.000000 Z" fill="rgb(34,20,21)" fill-opacity="1" />
<path d="M 424.000000 365.000000 L 393.000000,397.000000 367.000000,377.000000 Z" fill="rgb(32,18,20)" fill-opacity="1" />
<path d="M 346.000000 557.000000 L 325.000000,504.000000 371.000000,525.000000 Z" fill="rgb(53,34,32)" fill-opacity="1" />
<path d="M 287.000000 467.000000 L 274.745627,488.898928 240.000000,472.000000 Z" fill="rgb(35,20,18)" fill-opacity="1" />
<path d="M 265.000000 528.000000 L 286.000000,506.000000 322.000000,577.000000 Z" fill="rgb(34,26,25)" fill-opacity="1" />
<path d="M 371.000000 525.000000 L 393.000000,503.000000 382.000000,547.000000 Z" fill="rgb(46,35,32)" fill-opacity="1" />
<path d="M 564.998944 693.266594 L 1080.000000,732.000000 466.000000,705.000000 Z" fill="rgb(90,77,77)" fill-opacity="1" />
<path d="M 1080.000000 732.000000 L 0.000000,732.000000 175.000000,725.000000 Z" fill="rgb(55,45,41)" fill-opacity="1" />
<path d="M 411.000000 679.000000 L 466.000000,705.000000 407.000000,686.000000 Z" fill="rgb(40,28,32)" fill-opacity="1" />
<path d="M 758.000000 687.000000 L 918.000000,698.000000 1080.000000,732.000000 Z" fill="rgb(39,22,36)" fill-opacity="1" />
<path d="M 411.000000 679.000000 L 459.000000,650.000000 466.000000,705.000000 Z" fill="rgb(39,26,27)" fill-opacity="1" />
<path d="M 486.000000 531.000000 L 509.000000,472.000000 527.000000,483.000000 Z" fill="rgb(48,20,20)" fill-opacity="1" />
<path d="M 477.484098 650.128379 L 540.000000,680.000000 466.000000,705.000000 Z" fill="rgb(169,121,86)" fill-opacity="1" />
<path d="M 557.000000 451.000000 L 509.000000,472.000000 497.000000,383.000000 Z" fill="rgb(49,24,23)" fill-opacity="1" />
<path d="M 454.712259 413.272706 L 509.000000,472.000000 432.000000,477.000000 Z" fill="rgb(55,41,38)" fill-opacity="1" />
<path d="M 530.915858 339.146703 L 507.000000,349.000000 514.349392,328.261489 Z" fill="rgb(95,66,66)" fill-opacity="1" />
<path d="M 477.484098 650.128379 L 518.000000,613.000000 540.000000,680.000000 Z" fill="rgb(83,63,53)" fill-opacity="1" />
<path d="M 382.000000 547.000000 L 414.000000,584.000000 346.000000,557.000000 Z" fill="rgb(37,20,20)" fill-opacity="1" />
<path d="M 1002.692321 569.813840 L 1042.000000,569.000000 947.000000,622.000000 Z" fill="rgb(145,133,139)" fill-opacity="1" />
<path d="M 1080.000000 732.000000 L 918.000000,698.000000 938.070983,638.163177 Z" fill="rgb(187,170,157)" fill-opacity="1" />
<path d="M 440.000000 419.000000 L 421.000000,386.000000 454.712259,413.272706 Z" fill="rgb(29,20,20)" fill-opacity="1" />
<path d="M 416.000000 325.000000 L 358.000000,353.000000 397.000000,310.000000 Z" fill="rgb(27,21,23)" fill-opacity="1" />
<path d="M 317.139234 479.436180 L 287.000000,467.000000 322.000000,477.000000 Z" fill="rgb(30,16,17)" fill-opacity="1" />
<path d="M 300.000000 58.000000 L 293.000000,91.000000 281.784990,55.550209 Z" fill="rgb(55,41,38)" fill-opacity="1" />
<path d="M 489.000000 387.000000 L 485.000000,362.000000 497.000000,383.000000 Z" fill="rgb(59,35,32)" fill-opacity="1" />
<path d="M 747.413553 452.956271 L 786.659667,450.199861 795.057675,521.859628 Z" fill="rgb(175,106,79)" fill-opacity="1" />
<path d="M 329.000000 218.000000 L 337.000000,217.000000 341.000000,233.000000 Z" fill="rgb(30,15,11)" fill-opacity="1" />
<path d="M 337.000000 217.000000 L 336.226632,193.872081 364.000000,208.000000 Z" fill="rgb(35,29,28)" fill-opacity="1" />
<path d="M 416.000000 325.000000 L 427.000000,357.000000 420.000000,350.000000 Z" fill="rgb(50,43,37)" fill-opacity="1" />
<path d="M 482.000000 390.000000 L 454.712259,413.272706 421.000000,386.000000 Z" fill="rgb(31,15,13)" fill-opacity="1" />
<path d="M 359.000000 218.000000 L 364.000000,208.000000 415.000000,264.000000 Z" fill="rgb(46,30,43)" fill-opacity="1" />
<path d="M 325.000000 117.000000 L 293.000000,91.000000 330.000000,82.000000 Z" fill="rgb(114,89,73)" fill-opacity="1" />
<path d="M 370.000000 119.000000 L 330.000000,82.000000 389.000000,17.000000 Z" fill="rgb(69,52,48)" fill-opacity="1" />
<path d="M 415.000000 264.000000 L 466.060687,275.214554 417.000000,291.000000 Z" fill="rgb(49,32,41)" fill-opacity="1" />
<path d="M 370.000000 119.000000 L 333.000000,147.000000 325.000000,117.000000 Z" fill="rgb(35,34,40)" fill-opacity="1" />
<path d="M 307.000000 195.000000 L 306.000000,204.000000 270.000000,203.000000 Z" fill="rgb(34,26,22)" fill-opacity="1" />
<path d="M 353.000000 255.000000 L 341.000000,233.000000 359.000000,218.000000 Z" fill="rgb(24,15,18)" fill-opacity="1" />
<path d="M 347.000000 158.000000 L 333.000000,147.000000 370.000000,119.000000 Z" fill="rgb(52,38,35)" fill-opacity="1" />
<path d="M 450.000000 201.000000 L 466.060687,275.214554 415.000000,264.000000 Z" fill="rgb(53,34,32)" fill-opacity="1" />
<path d="M 576.601131 153.088876 L 611.264739,211.379362 531.000000,223.000000 Z" fill="rgb(166,108,77)" fill-opacity="1" />
<path d="M 301.000000 53.000000 L 293.000000,13.000000 302.000000,7.000000 Z" fill="rgb(97,74,68)" fill-opacity="1" />
<path d="M 463.000000 1.000000 L 1080.000000,0.000000 554.616529,6.596468 Z" fill="rgb(185,153,116)" fill-opacity="1" />
<path d="M 1062.000000 27.000000 L 1080.000000,0.000000 1069.000000,83.000000 Z" fill="rgb(45,32,44)" fill-opacity="1" />
<path d="M 1080.000000 565.000000 L 1080.000000,732.000000 1042.000000,569.000000 Z" fill="rgb(36,37,49)" fill-opacity="1" />
<path d="M 36.000000 290.000000 L 0.000000,0.000000 15.000000,59.000000 Z" fill="rgb(113,111,114)" fill-opacity="1" />
<path d="M 136.000000 96.000000 L 41.000000,114.000000 47.067716,50.647269 Z" fill="rgb(139,130,125)" fill-opacity="1" />
<path d="M 15.000000 59.000000 L 0.000000,0.000000 47.067716,50.647269 Z" fill="rgb(77,78,84)" fill-opacity="1" />
<path d="M 142.061717 233.108585 L 192.000000,226.000000 205.000000,273.000000 Z" fill="rgb(58,33,24)" fill-opacity="1" />
<path d="M 165.000000 414.000000 L 149.000000,420.000000 138.484044,365.540246 Z" fill="rgb(53,40,41)" fill-opacity="1" />
<path d="M 174.000000 102.000000 L 136.000000,96.000000 143.000000,63.000000 Z" fill="rgb(41,41,41)" fill-opacity="1" />
<path d="M 250.000000 207.000000 L 270.000000,203.000000 290.000000,246.000000 Z" fill="rgb(38,25,29)" fill-opacity="1" />
<path d="M 174.000000 102.000000 L 164.591331,177.770043 136.000000,96.000000 Z" fill="rgb(79,60,61)" fill-opacity="1" />
<path d="M 142.061717 233.108585 L 205.000000,273.000000 125.000000,323.000000 Z" fill="rgb(67,56,57)" fill-opacity="1" />
<path d="M 174.000000 102.000000 L 221.000000,173.000000 164.591331,177.770043 Z" fill="rgb(59,45,42)" fill-opacity="1" />
<path d="M 270.000000 68.000000 L 195.000000,55.000000 286.000000,15.000000 Z" fill="rgb(72,50,47)" fill-opacity="1" />
<path d="M 205.000000 273.000000 L 209.000000,253.000000 217.000000,275.000000 Z" fill="rgb(50,40,56)" fill-opacity="1" />
<path d="M 221.000000 173.000000 L 270.000000,203.000000 250.000000,207.000000 Z" fill="rgb(51,32,32)" fill-opacity="1" />
<path d="M 325.000000 117.000000 L 285.121481,155.375283 293.000000,91.000000 Z" fill="rgb(42,36,37)" fill-opacity="1" />
<path d="M 270.000000 203.000000 L 221.000000,173.000000 264.000000,143.000000 Z" fill="rgb(60,47,48)" fill-opacity="1" />
<path d="M 293.000000 91.000000 L 238.000000,128.000000 270.000000,68.000000 Z" fill="rgb(55,41,38)" fill-opacity="1" />
<path d="M 143.000000 63.000000 L 0.000000,0.000000 195.000000,55.000000 Z" fill="rgb(101,92,93)" fill-opacity="1" />
<path d="M 221.000000 173.000000 L 238.000000,128.000000 264.000000,143.000000 Z" fill="rgb(50,36,33)" fill-opacity="1" />
<path d="M 174.000000 102.000000 L 195.000000,55.000000 238.000000,128.000000 Z" fill="rgb(82,64,63)" fill-opacity="1" />
<path d="M 293.000000 91.000000 L 270.000000,68.000000 281.784990,55.550209 Z" fill="rgb(59,46,43)" fill-opacity="1" />
<path d="M 238.000000 128.000000 L 195.000000,55.000000 270.000000,68.000000 Z" fill="rgb(64,42,38)" fill-opacity="1" />
<path d="M 270.000000 68.000000 L 286.000000,15.000000 281.784990,55.550209 Z" fill="rgb(76,59,55)" fill-opacity="1" />
<path d="M 309.000000 59.000000 L 302.000000,7.000000 389.000000,17.000000 Z" fill="rgb(99,72,69)" fill-opacity="1" />
<path d="M 0.000000 0.000000 L 302.000000,7.000000 286.000000,15.000000 Z" fill="rgb(62,50,41)" fill-opacity="1" />
<path d="M 434.000000 78.000000 L 554.616529,6.596468 576.601131,153.088876 Z" fill="rgb(147,99,79)" fill-opacity="1" />
<path d="M 293.000000 91.000000 L 300.000000,58.000000 309.000000,59.000000 Z" fill="rgb(59,41,36)" fill-opacity="1" />
<path d="M 281.784990 55.550209 L 286.000000,15.000000 301.000000,53.000000 Z" fill="rgb(67,50,45)" fill-opacity="1" />
<path d="M 300.000000 58.000000 L 301.000000,53.000000 309.000000,59.000000 Z" fill="rgb(72,65,98)" fill-opacity="1" />
<path d="M 300.000000 58.000000 L 281.784990,55.550209 301.000000,53.000000 Z" fill="rgb(61,47,52)" fill-opacity="1" />
<path d="M 286.000000 15.000000 L 302.000000,7.000000 293.000000,13.000000 Z" fill="rgb(212,201,182)" fill-opacity="1" />
<path d="M 0.000000 0.000000 L 463.000000,1.000000 302.000000,7.000000 Z" fill="rgb(64,47,34)" fill-opacity="1" />
<path d="M 293.000000 91.000000 L 309.000000,59.000000 330.000000,82.000000 Z" fill="rgb(43,36,31)" fill-opacity="1" />
<path d="M 301.000000 53.000000 L 302.000000,7.000000 309.000000,59.000000 Z" fill="rgb(66,48,44)" fill-opacity="1" />
<path d="M 370.000000 119.000000 L 325.000000,117.000000 330.000000,82.000000 Z" fill="rgb(53,32,31)" fill-opacity="1" />
<path d="M 333.000000 147.000000 L 285.121481,155.375283 325.000000,117.000000 Z" fill="rgb(38,24,21)" fill-opacity="1" />
<path d="M 405.000000 137.000000 L 347.000000,158.000000 370.000000,119.000000 Z" fill="rgb(52,41,37)" fill-opacity="1" />
<path d="M 336.226632 193.872081 L 333.000000,147.000000 347.000000,158.000000 Z" fill="rgb(50,39,35)" fill-opacity="1" />
<path d="M 337.000000 217.000000 L 364.000000,208.000000 359.000000,218.000000 Z" fill="rgb(24,15,15)" fill-opacity="1" />
<path d="M 504.000000 259.000000 L 531.000000,223.000000 585.410373,304.436638 Z" fill="rgb(113,57,27)" fill-opacity="1" />
<path d="M 336.226632 193.872081 L 307.000000,195.000000 333.000000,147.000000 Z" fill="rgb(37,22,18)" fill-opacity="1" />
<path d="M 270.000000 203.000000 L 264.000000,143.000000 285.121481,155.375283 Z" fill="rgb(41,29,25)" fill-opacity="1" />
<path d="M 285.121481 155.375283 L 307.000000,195.000000 270.000000,203.000000 Z" fill="rgb(29,16,17)" fill-opacity="1" />
<path d="M 336.226632 193.872081 L 329.000000,218.000000 306.000000,204.000000 Z" fill="rgb(39,18,13)" fill-opacity="1" />
<path d="M 333.000000 147.000000 L 307.000000,195.000000 285.121481,155.375283 Z" fill="rgb(44,36,39)" fill-opacity="1" />
<path d="M 336.226632 193.872081 L 306.000000,204.000000 307.000000,195.000000 Z" fill="rgb(32,20,17)" fill-opacity="1" />
<path d="M 292.000000 219.000000 L 290.000000,246.000000 270.000000,203.000000 Z" fill="rgb(32,19,23)" fill-opacity="1" />
<path d="M 300.000000 236.000000 L 329.000000,218.000000 341.000000,233.000000 Z" fill="rgb(22,12,12)" fill-opacity="1" />
<path d="M 306.000000 204.000000 L 292.000000,219.000000 270.000000,203.000000 Z" fill="rgb(28,14,21)" fill-opacity="1" />
<path d="M 306.000000 204.000000 L 329.000000,218.000000 300.000000,236.000000 Z" fill="rgb(33,21,18)" fill-opacity="1" />
<path d="M 292.000000 219.000000 L 300.000000,236.000000 290.000000,246.000000 Z" fill="rgb(43,36,76)" fill-opacity="1" />
<path d="M 292.000000 219.000000 L 306.000000,204.000000 300.000000,236.000000 Z" fill="rgb(24,15,15)" fill-opacity="1" />
<path d="M 341.000000 233.000000 L 337.000000,217.000000 359.000000,218.000000 Z" fill="rgb(32,19,23)" fill-opacity="1" />
<path d="M 329.000000 218.000000 L 336.226632,193.872081 337.000000,217.000000 Z" fill="rgb(28,25,27)" fill-opacity="1" />
<path d="M 415.000000 264.000000 L 353.000000,255.000000 359.000000,218.000000 Z" fill="rgb(26,17,17)" fill-opacity="1" />
<path d="M 353.000000 255.000000 L 305.000000,264.000000 341.000000,233.000000 Z" fill="rgb(54,40,37)" fill-opacity="1" />
<path d="M 397.000000 310.000000 L 353.000000,255.000000 415.000000,264.000000 Z" fill="rgb(70,49,38)" fill-opacity="1" />
<path d="M 305.000000 264.000000 L 300.000000,236.000000 341.000000,233.000000 Z" fill="rgb(22,15,17)" fill-opacity="1" />
<path d="M 305.000000 264.000000 L 320.000000,306.000000 308.000000,297.000000 Z" fill="rgb(30,27,31)" fill-opacity="1" />
<path d="M 287.000000 467.000000 L 297.000000,372.000000 349.000000,449.000000 Z" fill="rgb(79,76,105)" fill-opacity="1" />
<path d="M 314.000000 357.000000 L 268.000000,307.000000 320.000000,344.000000 Z" fill="rgb(23,17,18)" fill-opacity="1" />
<path d="M 320.000000 306.000000 L 353.000000,255.000000 339.000000,330.000000 Z" fill="rgb(42,35,40)" fill-opacity="1" />
<path d="M 397.000000 310.000000 L 358.000000,353.000000 339.000000,330.000000 Z" fill="rgb(29,17,14)" fill-opacity="1" />
<path d="M 420.000000 350.000000 L 424.000000,365.000000 367.000000,377.000000 Z" fill="rgb(27,12,8)" fill-opacity="1" />
<path d="M 320.000000 306.000000 L 305.000000,264.000000 353.000000,255.000000 Z" fill="rgb(75,53,37)" fill-opacity="1" />
<path d="M 308.000000 297.000000 L 268.000000,307.000000 305.000000,264.000000 Z" fill="rgb(49,29,18)" fill-opacity="1" />
<path d="M 252.000000 349.000000 L 314.000000,357.000000 297.000000,372.000000 Z" fill="rgb(24,15,21)" fill-opacity="1" />
<path d="M 320.000000 344.000000 L 358.000000,353.000000 341.000000,370.000000 Z" fill="rgb(63,52,53)" fill-opacity="1" />
<path d="M 358.000000 353.000000 L 320.000000,344.000000 339.000000,330.000000 Z" fill="rgb(19,13,14)" fill-opacity="1" />
<path d="M 314.000000 357.000000 L 252.000000,349.000000 268.000000,307.000000 Z" fill="rgb(25,15,15)" fill-opacity="1" />
<path d="M 217.000000 275.000000 L 229.000000,306.000000 204.000000,317.000000 Z" fill="rgb(68,57,61)" fill-opacity="1" />
<path d="M 252.000000 349.000000 L 253.000000,363.000000 223.000000,326.000000 Z" fill="rgb(38,22,28)" fill-opacity="1" />
<path d="M 217.000000 275.000000 L 227.000000,278.000000 229.000000,306.000000 Z" fill="rgb(54,39,54)" fill-opacity="1" />
<path d="M 268.000000 307.000000 L 252.000000,349.000000 246.000000,336.000000 Z" fill="rgb(39,25,23)" fill-opacity="1" />
<path d="M 223.000000 326.000000 L 229.000000,306.000000 246.000000,336.000000 Z" fill="rgb(73,62,63)" fill-opacity="1" />
<path d="M 227.000000 278.000000 L 290.000000,246.000000 268.000000,307.000000 Z" fill="rgb(53,40,37)" fill-opacity="1" />
<path d="M 250.000000 207.000000 L 209.000000,253.000000 192.000000,226.000000 Z" fill="rgb(56,46,43)" fill-opacity="1" />
<path d="M 250.000000 207.000000 L 290.000000,246.000000 227.000000,278.000000 Z" fill="rgb(39,24,32)" fill-opacity="1" />
<path d="M 229.000000 306.000000 L 227.000000,278.000000 268.000000,307.000000 Z" fill="rgb(43,30,37)" fill-opacity="1" />
<path d="M 217.000000 275.000000 L 209.000000,253.000000 227.000000,278.000000 Z" fill="rgb(59,41,57)" fill-opacity="1" />
<path d="M 246.000000 336.000000 L 229.000000,306.000000 268.000000,307.000000 Z" fill="rgb(43,25,35)" fill-opacity="1" />
<path d="M 223.000000 326.000000 L 204.000000,317.000000 229.000000,306.000000 Z" fill="rgb(53,37,49)" fill-opacity="1" />
<path d="M 164.591331 177.770043 L 89.959367,255.829639 41.000000,114.000000 Z" fill="rgb(121,106,98)" fill-opacity="1" />
<path d="M 125.000000 323.000000 L 109.000000,368.000000 36.000000,290.000000 Z" fill="rgb(140,123,112)" fill-opacity="1" />
<path d="M 164.591331 177.770043 L 142.061717,233.108585 89.959367,255.829639 Z" fill="rgb(194,174,148)" fill-opacity="1" />
<path d="M 192.000000 226.000000 L 209.000000,253.000000 205.000000,273.000000 Z" fill="rgb(68,57,63)" fill-opacity="1" />
<path d="M 164.591331 177.770043 L 192.000000,226.000000 142.061717,233.108585 Z" fill="rgb(185,158,126)" fill-opacity="1" />
<path d="M 164.591331 177.770043 L 221.000000,173.000000 192.000000,226.000000 Z" fill="rgb(83,64,64)" fill-opacity="1" />
<path d="M 41.000000 114.000000 L 36.000000,290.000000 15.000000,59.000000 Z" fill="rgb(130,123,117)" fill-opacity="1" />
<path d="M 67.000000 437.000000 L 62.908365,595.636547 0.000000,732.000000 Z" fill="rgb(176,152,138)" fill-opacity="1" />
<path d="M 125.000000 323.000000 L 137.000000,337.000000 109.000000,368.000000 Z" fill="rgb(58,44,41)" fill-opacity="1" />
<path d="M 125.000000 323.000000 L 205.000000,273.000000 204.000000,317.000000 Z" fill="rgb(44,30,31)" fill-opacity="1" />
<path d="M 217.000000 275.000000 L 204.000000,317.000000 205.000000,273.000000 Z" fill="rgb(60,45,49)" fill-opacity="1" />
<path d="M 223.000000 326.000000 L 253.000000,363.000000 215.808236,407.842922 Z" fill="rgb(58,44,41)" fill-opacity="1" />
<path d="M 36.000000 290.000000 L 85.949582,393.701536 67.000000,437.000000 Z" fill="rgb(156,125,110)" fill-opacity="1" />
<path d="M 36.000000 290.000000 L 109.000000,368.000000 85.949582,393.701536 Z" fill="rgb(142,110,88)" fill-opacity="1" />
<path d="M 137.000000 337.000000 L 142.000000,357.000000 109.000000,368.000000 Z" fill="rgb(37,29,31)" fill-opacity="1" />
<path d="M 215.808236 407.842922 L 204.000000,317.000000 223.000000,326.000000 Z" fill="rgb(36,23,27)" fill-opacity="1" />
<path d="M 109.000000 368.000000 L 142.000000,357.000000 138.484044,365.540246 Z" fill="rgb(36,30,32)" fill-opacity="1" />
<path d="M 137.000000 337.000000 L 204.000000,317.000000 142.000000,357.000000 Z" fill="rgb(77,49,37)" fill-opacity="1" />
<path d="M 142.000000 453.000000 L 156.000000,419.000000 199.000000,421.000000 Z" fill="rgb(57,44,45)" fill-opacity="1" />
<path d="M 138.484044 365.540246 L 142.000000,357.000000 165.000000,414.000000 Z" fill="rgb(49,37,41)" fill-opacity="1" />
<path d="M 215.000000 460.000000 L 161.000000,491.000000 142.000000,453.000000 Z" fill="rgb(29,15,17)" fill-opacity="1" />
<path d="M 156.000000 419.000000 L 149.000000,420.000000 165.000000,414.000000 Z" fill="rgb(212,193,181)" fill-opacity="1" />
<path d="M 215.000000 460.000000 L 199.000000,421.000000 215.808236,407.842922 Z" fill="rgb(30,17,24)" fill-opacity="1" />
<path d="M 165.000000 414.000000 L 142.000000,357.000000 215.808236,407.842922 Z" fill="rgb(44,23,27)" fill-opacity="1" />
<path d="M 215.808236 407.842922 L 199.000000,421.000000 165.000000,414.000000 Z" fill="rgb(37,24,31)" fill-opacity="1" />
<path d="M 215.000000 460.000000 L 240.000000,472.000000 213.000000,471.000000 Z" fill="rgb(29,5,9)" fill-opacity="1" />
<path d="M 250.000000 506.000000 L 219.000000,519.000000 240.000000,472.000000 Z" fill="rgb(26,20,18)" fill-opacity="1" />
<path d="M 219.000000 519.000000 L 203.000000,514.000000 213.000000,471.000000 Z" fill="rgb(30,17,21)" fill-opacity="1" />
<path d="M 161.000000 491.000000 L 215.000000,460.000000 213.000000,471.000000 Z" fill="rgb(44,32,36)" fill-opacity="1" />
<path d="M 240.000000 472.000000 L 274.745627,488.898928 250.000000,506.000000 Z" fill="rgb(21,7,11)" fill-opacity="1" />
<path d="M 109.000000 450.000000 L 100.000000,469.000000 67.000000,437.000000 Z" fill="rgb(42,30,36)" fill-opacity="1" />
<path d="M 62.908365 595.636547 L 14.000000,717.000000 0.000000,732.000000 Z" fill="rgb(18,20,26)" fill-opacity="1" />
<path d="M 117.000000 482.000000 L 142.000000,453.000000 161.000000,491.000000 Z" fill="rgb(35,22,29)" fill-opacity="1" />
<path d="M 109.000000 450.000000 L 149.000000,420.000000 142.000000,453.000000 Z" fill="rgb(33,17,28)" fill-opacity="1" />
<path d="M 109.000000 368.000000 L 149.000000,420.000000 85.949582,393.701536 Z" fill="rgb(30,23,31)" fill-opacity="1" />
<path d="M 156.000000 419.000000 L 142.000000,453.000000 149.000000,420.000000 Z" fill="rgb(50,30,33)" fill-opacity="1" />
<path d="M 117.000000 482.000000 L 62.908365,595.636547 100.000000,469.000000 Z" fill="rgb(39,30,30)" fill-opacity="1" />
<path d="M 203.000000 514.000000 L 161.000000,491.000000 213.000000,471.000000 Z" fill="rgb(78,58,49)" fill-opacity="1" />
<path d="M 219.000000 519.000000 L 253.000000,531.000000 216.000000,520.000000 Z" fill="rgb(26,12,16)" fill-opacity="1" />
<path d="M 168.000000 657.000000 L 58.000000,664.000000 62.908365,595.636547 Z" fill="rgb(106,90,86)" fill-opacity="1" />
<path d="M 62.908365 595.636547 L 150.000000,543.000000 146.000000,575.000000 Z" fill="rgb(160,112,87)" fill-opacity="1" />
<path d="M 117.000000 482.000000 L 161.000000,491.000000 150.000000,543.000000 Z" fill="rgb(27,17,27)" fill-opacity="1" />
<path d="M 50.000000 719.000000 L 0.000000,732.000000 14.000000,717.000000 Z" fill="rgb(21,20,29)" fill-opacity="1" />
<path d="M 58.000000 664.000000 L 49.000000,678.000000 62.908365,595.636547 Z" fill="rgb(74,69,56)" fill-opacity="1" />
<path d="M 50.000000 719.000000 L 14.000000,717.000000 49.000000,678.000000 Z" fill="rgb(18,19,31)" fill-opacity="1" />
<path d="M 146.000000 575.000000 L 168.000000,657.000000 62.908365,595.636547 Z" fill="rgb(211,177,144)" fill-opacity="1" />
<path d="M 132.000000 720.000000 L 126.000000,722.000000 58.000000,664.000000 Z" fill="rgb(88,72,71)" fill-opacity="1" />
<path d="M 254.000000 677.000000 L 243.893364,701.067441 168.000000,657.000000 Z" fill="rgb(55,50,49)" fill-opacity="1" />
<path d="M 132.000000 720.000000 L 58.000000,664.000000 168.000000,657.000000 Z" fill="rgb(45,45,48)" fill-opacity="1" />
<path d="M 132.000000 720.000000 L 175.000000,725.000000 126.000000,722.000000 Z" fill="rgb(48,47,55)" fill-opacity="1" />
<path d="M 371.000000 719.000000 L 1080.000000,732.000000 175.000000,725.000000 Z" fill="rgb(85,74,73)" fill-opacity="1" />
<path d="M 254.000000 677.000000 L 210.000000,588.000000 231.000000,586.000000 Z" fill="rgb(45,26,25)" fill-opacity="1" />
<path d="M 168.000000 657.000000 L 146.000000,575.000000 164.952836,569.817343 Z" fill="rgb(128,94,77)" fill-opacity="1" />
<path d="M 203.000000 514.000000 L 164.952836,569.817343 150.000000,543.000000 Z" fill="rgb(42,31,28)" fill-opacity="1" />
<path d="M 164.952836 569.817343 L 146.000000,575.000000 153.000000,564.000000 Z" fill="rgb(67,60,64)" fill-opacity="1" />
<path d="M 150.000000 543.000000 L 164.952836,569.817343 153.000000,564.000000 Z" fill="rgb(64,58,65)" fill-opacity="1" />
<path d="M 210.000000 588.000000 L 168.000000,657.000000 164.952836,569.817343 Z" fill="rgb(49,48,45)" fill-opacity="1" />
<path d="M 164.952836 569.817343 L 203.000000,514.000000 216.000000,520.000000 Z" fill="rgb(36,20,26)" fill-opacity="1" />
<path d="M 150.000000 543.000000 L 161.000000,491.000000 203.000000,514.000000 Z" fill="rgb(34,21,22)" fill-opacity="1" />
<path d="M 253.000000 531.000000 L 219.000000,519.000000 250.000000,506.000000 Z" fill="rgb(24,15,14)" fill-opacity="1" />
<path d="M 216.000000 520.000000 L 203.000000,514.000000 219.000000,519.000000 Z" fill="rgb(57,42,54)" fill-opacity="1" />
<path d="M 253.000000 531.000000 L 250.000000,506.000000 265.000000,528.000000 Z" fill="rgb(26,16,16)" fill-opacity="1" />
<path d="M 219.000000 519.000000 L 213.000000,471.000000 240.000000,472.000000 Z" fill="rgb(34,19,30)" fill-opacity="1" />
<path d="M 298.000000 587.000000 L 253.000000,531.000000 265.000000,528.000000 Z" fill="rgb(52,28,12)" fill-opacity="1" />
<path d="M 231.000000 586.000000 L 216.000000,520.000000 253.000000,531.000000 Z" fill="rgb(33,20,21)" fill-opacity="1" />
<path d="M 298.000000 587.000000 L 231.000000,586.000000 253.000000,531.000000 Z" fill="rgb(39,27,28)" fill-opacity="1" />
<path d="M 243.893364 701.067441 L 254.000000,677.000000 343.000000,689.000000 Z" fill="rgb(183,150,129)" fill-opacity="1" />
<path d="M 303.000000 656.000000 L 343.000000,689.000000 254.000000,677.000000 Z" fill="rgb(81,51,42)" fill-opacity="1" />
<path d="M 371.000000 719.000000 L 175.000000,725.000000 243.893364,701.067441 Z" fill="rgb(120,103,103)" fill-opacity="1" />
<path d="M 298.000000 587.000000 L 303.000000,656.000000 231.000000,586.000000 Z" fill="rgb(46,32,33)" fill-opacity="1" />
<path d="M 381.000000 672.000000 L 344.000000,650.000000 352.000000,646.000000 Z" fill="rgb(36,23,30)" fill-opacity="1" />
<path d="M 231.000000 586.000000 L 303.000000,656.000000 254.000000,677.000000 Z" fill="rgb(103,63,42)" fill-opacity="1" />
<path d="M 298.000000 587.000000 L 339.000000,615.000000 303.000000,656.000000 Z" fill="rgb(59,35,32)" fill-opacity="1" />
<path d="M 243.893364 701.067441 L 343.000000,689.000000 371.000000,719.000000 Z" fill="rgb(47,35,39)" fill-opacity="1" />
<path d="M 303.000000 656.000000 L 344.000000,650.000000 343.000000,689.000000 Z" fill="rgb(42,29,36)" fill-opacity="1" />
<path d="M 414.000000 584.000000 L 382.000000,547.000000 412.000000,565.000000 Z" fill="rgb(46,29,34)" fill-opacity="1" />
<path d="M 411.000000 679.000000 L 407.000000,686.000000 381.000000,672.000000 Z" fill="rgb(38,23,24)" fill-opacity="1" />
<path d="M 317.000000 489.000000 L 286.000000,506.000000 274.745627,488.898928 Z" fill="rgb(50,35,32)" fill-opacity="1" />
<path d="M 265.000000 528.000000 L 250.000000,506.000000 286.000000,506.000000 Z" fill="rgb(41,29,33)" fill-opacity="1" />
<path d="M 265.000000 528.000000 L 322.000000,577.000000 298.000000,587.000000 Z" fill="rgb(33,25,25)" fill-opacity="1" />
<path d="M 339.000000 615.000000 L 352.000000,646.000000 344.000000,650.000000 Z" fill="rgb(35,21,32)" fill-opacity="1" />
<path d="M 346.000000 557.000000 L 339.000000,615.000000 322.000000,577.000000 Z" fill="rgb(35,23,20)" fill-opacity="1" />
<path d="M 419.000000 547.000000 L 426.000000,522.000000 447.000000,532.000000 Z" fill="rgb(60,42,30)" fill-opacity="1" />
<path d="M 334.000000 498.000000 L 325.000000,504.000000 317.000000,489.000000 Z" fill="rgb(62,45,35)" fill-opacity="1" />
<path d="M 317.000000 489.000000 L 274.745627,488.898928 287.000000,467.000000 Z" fill="rgb(33,21,16)" fill-opacity="1" />
<path d="M 371.000000 525.000000 L 325.000000,504.000000 339.000000,498.000000 Z" fill="rgb(42,28,29)" fill-opacity="1" />
<path d="M 346.000000 557.000000 L 322.000000,577.000000 325.000000,504.000000 Z" fill="rgb(43,31,32)" fill-opacity="1" />
<path d="M 339.000000 498.000000 L 334.000000,498.000000 322.000000,477.000000 Z" fill="rgb(30,21,24)" fill-opacity="1" />
<path d="M 339.000000 498.000000 L 325.000000,504.000000 334.000000,498.000000 Z" fill="rgb(48,35,47)" fill-opacity="1" />
<path d="M 215.808236 407.842922 L 240.000000,472.000000 215.000000,460.000000 Z" fill="rgb(35,19,25)" fill-opacity="1" />
<path d="M 297.000000 372.000000 L 253.000000,363.000000 252.000000,349.000000 Z" fill="rgb(46,33,34)" fill-opacity="1" />
<path d="M 317.000000 489.000000 L 287.000000,467.000000 317.139234,479.436180 Z" fill="rgb(39,25,26)" fill-opacity="1" />
<path d="M 240.000000 472.000000 L 215.808236,407.842922 257.000000,392.000000 Z" fill="rgb(46,43,66)" fill-opacity="1" />
<path d="M 322.000000 477.000000 L 317.000000,489.000000 317.139234,479.436180 Z" fill="rgb(28,17,27)" fill-opacity="1" />
<path d="M 325.000000 504.000000 L 286.000000,506.000000 317.000000,489.000000 Z" fill="rgb(33,38,49)" fill-opacity="1" />
<path d="M 240.000000 472.000000 L 257.000000,392.000000 287.000000,467.000000 Z" fill="rgb(58,49,64)" fill-opacity="1" />
<path d="M 215.808236 407.842922 L 253.000000,363.000000 257.000000,392.000000 Z" fill="rgb(35,20,32)" fill-opacity="1" />
<path d="M 310.000000 370.000000 L 297.000000,372.000000 314.000000,357.000000 Z" fill="rgb(19,11,22)" fill-opacity="1" />
<path d="M 287.000000 467.000000 L 257.000000,392.000000 297.000000,372.000000 Z" fill="rgb(23,14,17)" fill-opacity="1" />
<path d="M 320.000000 344.000000 L 341.000000,370.000000 314.000000,357.000000 Z" fill="rgb(15,12,20)" fill-opacity="1" />
<path d="M 341.000000 370.000000 L 349.000000,449.000000 310.000000,370.000000 Z" fill="rgb(25,17,23)" fill-opacity="1" />
<path d="M 375.930817 426.449663 L 341.000000,370.000000 367.000000,377.000000 Z" fill="rgb(19,11,18)" fill-opacity="1" />
<path d="M 310.000000 370.000000 L 314.000000,357.000000 341.000000,370.000000 Z" fill="rgb(17,16,25)" fill-opacity="1" />
<path d="M 375.930817 426.449663 L 349.000000,449.000000 341.000000,370.000000 Z" fill="rgb(24,17,22)" fill-opacity="1" />
<path d="M 339.000000 498.000000 L 322.000000,477.000000 349.000000,449.000000 Z" fill="rgb(29,16,20)" fill-opacity="1" />
<path d="M 391.000000 412.000000 L 367.000000,377.000000 393.000000,397.000000 Z" fill="rgb(26,17,19)" fill-opacity="1" />
<path d="M 341.000000 370.000000 L 358.000000,353.000000 367.000000,377.000000 Z" fill="rgb(20,12,18)" fill-opacity="1" />
<path d="M 391.000000 412.000000 L 375.930817,426.449663 367.000000,377.000000 Z" fill="rgb(23,7,5)" fill-opacity="1" />
<path d="M 432.000000 477.000000 L 376.000000,471.000000 375.930817,426.449663 Z" fill="rgb(41,30,25)" fill-opacity="1" />
<path d="M 426.000000 522.000000 L 393.000000,503.000000 432.000000,477.000000 Z" fill="rgb(39,26,30)" fill-opacity="1" />
<path d="M 393.000000 503.000000 L 339.000000,498.000000 376.000000,471.000000 Z" fill="rgb(29,15,20)" fill-opacity="1" />
<path d="M 401.000000 400.000000 L 391.000000,412.000000 393.000000,397.000000 Z" fill="rgb(23,16,44)" fill-opacity="1" />
<path d="M 440.000000 419.000000 L 432.000000,477.000000 391.000000,412.000000 Z" fill="rgb(41,32,32)" fill-opacity="1" />
<path d="M 421.000000 386.000000 L 401.000000,400.000000 393.000000,397.000000 Z" fill="rgb(40,33,41)" fill-opacity="1" />
<path d="M 440.000000 419.000000 L 391.000000,412.000000 401.000000,400.000000 Z" fill="rgb(32,23,23)" fill-opacity="1" />
<path d="M 485.000000 362.000000 L 482.000000,390.000000 424.000000,365.000000 Z" fill="rgb(43,23,21)" fill-opacity="1" />
<path d="M 489.000000 387.000000 L 509.000000,472.000000 482.000000,390.000000 Z" fill="rgb(51,36,33)" fill-opacity="1" />
<path d="M 548.668130 570.135493 L 527.000000,483.000000 559.000000,462.000000 Z" fill="rgb(36,14,18)" fill-opacity="1" />
<path d="M 447.000000 532.000000 L 426.000000,522.000000 432.000000,477.000000 Z" fill="rgb(62,45,43)" fill-opacity="1" />
<path d="M 393.000000 503.000000 L 426.000000,522.000000 382.000000,547.000000 Z" fill="rgb(35,23,20)" fill-opacity="1" />
<path d="M 432.000000 477.000000 L 509.000000,472.000000 486.000000,531.000000 Z" fill="rgb(33,30,37)" fill-opacity="1" />
<path d="M 486.000000 531.000000 L 447.000000,532.000000 432.000000,477.000000 Z" fill="rgb(40,28,32)" fill-opacity="1" />
<path d="M 429.000000 629.000000 L 445.000000,627.000000 459.000000,650.000000 Z" fill="rgb(39,26,30)" fill-opacity="1" />
<path d="M 512.000000 563.000000 L 488.000000,553.000000 486.000000,531.000000 Z" fill="rgb(101,39,22)" fill-opacity="1" />
<path d="M 435.000000 576.000000 L 414.000000,584.000000 412.000000,565.000000 Z" fill="rgb(58,34,28)" fill-opacity="1" />
<path d="M 419.000000 547.000000 L 382.000000,547.000000 426.000000,522.000000 Z" fill="rgb(47,31,44)" fill-opacity="1" />
<path d="M 346.000000 557.000000 L 371.000000,525.000000 382.000000,547.000000 Z" fill="rgb(48,33,30)" fill-opacity="1" />
<path d="M 339.000000 498.000000 L 393.000000,503.000000 371.000000,525.000000 Z" fill="rgb(29,20,20)" fill-opacity="1" />
<path d="M 376.000000 471.000000 L 432.000000,477.000000 393.000000,503.000000 Z" fill="rgb(35,22,23)" fill-opacity="1" />
<path d="M 486.000000 531.000000 L 488.000000,553.000000 447.000000,532.000000 Z" fill="rgb(52,27,21)" fill-opacity="1" />
<path d="M 408.000000 621.000000 L 411.000000,679.000000 381.000000,672.000000 Z" fill="rgb(65,50,50)" fill-opacity="1" />
<path d="M 447.000000 532.000000 L 435.000000,576.000000 419.000000,547.000000 Z" fill="rgb(46,25,19)" fill-opacity="1" />
<path d="M 414.000000 584.000000 L 408.000000,621.000000 339.000000,615.000000 Z" fill="rgb(37,20,19)" fill-opacity="1" />
<path d="M 419.000000 547.000000 L 435.000000,576.000000 412.000000,565.000000 Z" fill="rgb(55,35,30)" fill-opacity="1" />
<path d="M 429.000000 629.000000 L 411.000000,679.000000 408.000000,621.000000 Z" fill="rgb(48,29,27)" fill-opacity="1" />
<path d="M 488.000000 553.000000 L 435.000000,576.000000 447.000000,532.000000 Z" fill="rgb(67,44,30)" fill-opacity="1" />
<path d="M 518.000000 613.000000 L 477.484098,650.128379 445.000000,627.000000 Z" fill="rgb(44,27,30)" fill-opacity="1" />
<path d="M 344.000000 650.000000 L 381.000000,672.000000 343.000000,689.000000 Z" fill="rgb(40,28,32)" fill-opacity="1" />
<path d="M 352.000000 646.000000 L 339.000000,615.000000 408.000000,621.000000 Z" fill="rgb(43,29,30)" fill-opacity="1" />
<path d="M 352.000000 646.000000 L 408.000000,621.000000 381.000000,672.000000 Z" fill="rgb(32,15,21)" fill-opacity="1" />
<path d="M 414.000000 584.000000 L 435.000000,576.000000 429.000000,629.000000 Z" fill="rgb(53,20,13)" fill-opacity="1" />
<path d="M 414.000000 584.000000 L 429.000000,629.000000 408.000000,621.000000 Z" fill="rgb(37,14,18)" fill-opacity="1" />
<path d="M 459.000000 650.000000 L 477.484098,650.128379 466.000000,705.000000 Z" fill="rgb(40,26,23)" fill-opacity="1" />
<path d="M 435.000000 576.000000 L 445.000000,627.000000 429.000000,629.000000 Z" fill="rgb(67,44,41)" fill-opacity="1" />
<path d="M 435.000000 576.000000 L 488.000000,553.000000 512.000000,582.000000 Z" fill="rgb(35,18,23)" fill-opacity="1" />
<path d="M 429.000000 629.000000 L 459.000000,650.000000 411.000000,679.000000 Z" fill="rgb(41,24,26)" fill-opacity="1" />
<path d="M 445.000000 627.000000 L 477.484098,650.128379 459.000000,650.000000 Z" fill="rgb(32,23,29)" fill-opacity="1" />
<path d="M 606.000000 626.000000 L 538.000000,603.000000 548.668130,570.135493 Z" fill="rgb(58,25,18)" fill-opacity="1" />
<path d="M 512.000000 582.000000 L 488.000000,553.000000 512.000000,563.000000 Z" fill="rgb(79,42,26)" fill-opacity="1" />
<path d="M 527.000000 483.000000 L 512.000000,563.000000 486.000000,531.000000 Z" fill="rgb(85,24,9)" fill-opacity="1" />
<path d="M 512.000000 582.000000 L 445.000000,627.000000 435.000000,576.000000 Z" fill="rgb(56,42,39)" fill-opacity="1" />
<path d="M 548.668130 570.135493 L 512.000000,563.000000 527.000000,483.000000 Z" fill="rgb(65,35,28)" fill-opacity="1" />
<path d="M 538.000000 603.000000 L 518.000000,613.000000 512.000000,582.000000 Z" fill="rgb(54,41,42)" fill-opacity="1" />
<path d="M 548.668130 570.135493 L 512.000000,582.000000 512.000000,563.000000 Z" fill="rgb(67,34,34)" fill-opacity="1" />
<path d="M 518.000000 613.000000 L 445.000000,627.000000 512.000000,582.000000 Z" fill="rgb(47,30,33)" fill-opacity="1" />
<path d="M 606.000000 626.000000 L 548.668130,570.135493 716.471093,537.318517 Z" fill="rgb(113,53,38)" fill-opacity="1" />
<path d="M 538.000000 603.000000 L 512.000000,582.000000 548.668130,570.135493 Z" fill="rgb(70,35,33)" fill-opacity="1" />
<path d="M 754.773350 601.972228 L 606.000000,626.000000 716.471093,537.318517 Z" fill="rgb(134,76,54)" fill-opacity="1" />
<path d="M 662.000000 687.000000 L 564.998944,693.266594 606.000000,626.000000 Z" fill="rgb(73,47,40)" fill-opacity="1" />
<path d="M 747.413553 452.956271 L 795.057675,521.859628 716.471093,537.318517 Z" fill="rgb(142,63,44)" fill-opacity="1" />
<path d="M 796.000000 665.000000 L 758.000000,687.000000 754.773350,601.972228 Z" fill="rgb(82,40,48)" fill-opacity="1" />
<path d="M 540.000000 680.000000 L 564.998944,693.266594 466.000000,705.000000 Z" fill="rgb(61,45,34)" fill-opacity="1" />
<path d="M 540.000000 680.000000 L 606.000000,626.000000 564.998944,693.266594 Z" fill="rgb(69,47,44)" fill-opacity="1" />
<path d="M 754.773350 601.972228 L 662.000000,687.000000 606.000000,626.000000 Z" fill="rgb(164,134,121)" fill-opacity="1" />
<path d="M 758.000000 687.000000 L 564.998944,693.266594 662.000000,687.000000 Z" fill="rgb(127,96,85)" fill-opacity="1" />
<path d="M 930.000000 614.000000 L 938.070983,638.163177 918.000000,698.000000 Z" fill="rgb(75,58,61)" fill-opacity="1" />
<path d="M 938.070983 638.163177 L 947.000000,622.000000 1080.000000,732.000000 Z" fill="rgb(76,71,70)" fill-opacity="1" />
<path d="M 796.000000 665.000000 L 918.000000,698.000000 758.000000,687.000000 Z" fill="rgb(165,135,117)" fill-opacity="1" />
<path d="M 1080.000000 732.000000 L 371.000000,719.000000 466.000000,705.000000 Z" fill="rgb(63,52,53)" fill-opacity="1" />
<path d="M 754.773350 601.972228 L 795.057675,521.859628 796.000000,665.000000 Z" fill="rgb(94,47,53)" fill-opacity="1" />
<path d="M 947.000000 622.000000 L 1042.000000,569.000000 1080.000000,732.000000 Z" fill="rgb(162,143,139)" fill-opacity="1" />
<path d="M 1038.985821 551.819755 L 1080.000000,565.000000 1042.000000,569.000000 Z" fill="rgb(103,80,76)" fill-opacity="1" />
<path d="M 795.057675 521.859628 L 930.000000,614.000000 796.000000,665.000000 Z" fill="rgb(89,61,54)" fill-opacity="1" />
<path d="M 962.696813 585.039595 L 947.000000,622.000000 930.000000,614.000000 Z" fill="rgb(151,122,120)" fill-opacity="1" />
<path d="M 930.000000 614.000000 L 947.000000,622.000000 938.070983,638.163177 Z" fill="rgb(101,85,88)" fill-opacity="1" />
<path d="M 968.307458 580.925885 L 1002.692321,569.813840 947.000000,622.000000 Z" fill="rgb(138,105,99)" fill-opacity="1" />
<path d="M 795.057675 521.859628 L 929.000000,544.000000 930.000000,614.000000 Z" fill="rgb(149,112,98)" fill-opacity="1" />
<path d="M 930.000000 614.000000 L 929.000000,544.000000 962.696813,585.039595 Z" fill="rgb(110,79,72)" fill-opacity="1" />
<path d="M 929.000000 544.000000 L 1002.692321,569.813840 968.307458,580.925885 Z" fill="rgb(104,81,80)" fill-opacity="1" />
<path d="M 929.000000 544.000000 L 863.985541,404.342966 1038.985821,551.819755 Z" fill="rgb(116,75,71)" fill-opacity="1" />
<path d="M 929.000000 544.000000 L 1038.985821,551.819755 1002.692321,569.813840 Z" fill="rgb(177,151,140)" fill-opacity="1" />
<path d="M 863.985541 404.342966 L 1080.000000,170.000000 1038.985821,551.819755 Z" fill="rgb(195,172,158)" fill-opacity="1" />
<path d="M 1080.000000 170.000000 L 1080.000000,565.000000 1038.985821,551.819755 Z" fill="rgb(129,99,79)" fill-opacity="1" />
<path d="M 565.000000 447.000000 L 559.000000,462.000000 557.000000,451.000000 Z" fill="rgb(74,23,22)" fill-opacity="1" />
<path d="M 527.000000 483.000000 L 509.000000,472.000000 557.000000,451.000000 Z" fill="rgb(45,18,20)" fill-opacity="1" />
<path d="M 716.471093 537.318517 L 795.057675,521.859628 754.773350,601.972228 Z" fill="rgb(119,60,65)" fill-opacity="1" />
<path d="M 786.659667 450.199861 L 863.985541,404.342966 795.057675,521.859628 Z" fill="rgb(173,81,64)" fill-opacity="1" />
<path d="M 962.696813 585.039595 L 929.000000,544.000000 968.307458,580.925885 Z" fill="rgb(111,86,83)" fill-opacity="1" />
<path d="M 1068.000000 160.000000 L 1075.000000,92.000000 1080.000000,170.000000 Z" fill="rgb(65,54,55)" fill-opacity="1" />
<path d="M 586.000000 449.000000 L 559.000000,462.000000 565.000000,447.000000 Z" fill="rgb(78,23,16)" fill-opacity="1" />
<path d="M 559.000000 462.000000 L 527.000000,483.000000 557.000000,451.000000 Z" fill="rgb(62,24,26)" fill-opacity="1" />
<path d="M 528.000000 379.000000 L 565.000000,447.000000 557.000000,451.000000 Z" fill="rgb(61,18,24)" fill-opacity="1" />
<path d="M 557.000000 451.000000 L 497.000000,383.000000 528.000000,379.000000 Z" fill="rgb(58,25,18)" fill-opacity="1" />
<path d="M 716.471093 537.318517 L 548.668130,570.135493 640.000000,448.000000 Z" fill="rgb(109,47,36)" fill-opacity="1" />
<path d="M 640.000000 448.000000 L 548.668130,570.135493 586.000000,449.000000 Z" fill="rgb(82,28,24)" fill-opacity="1" />
<path d="M 565.000000 447.000000 L 528.000000,379.000000 586.000000,449.000000 Z" fill="rgb(65,18,9)" fill-opacity="1" />
<path d="M 776.428094 58.649056 L 611.264739,211.379362 576.601131,153.088876 Z" fill="rgb(166,94,80)" fill-opacity="1" />
<path d="M 640.000000 448.000000 L 747.413553,452.956271 716.471093,537.318517 Z" fill="rgb(123,55,33)" fill-opacity="1" />
<path d="M 640.000000 448.000000 L 586.000000,449.000000 569.597217,328.892229 Z" fill="rgb(142,62,28)" fill-opacity="1" />
<path d="M 795.057675 521.859628 L 863.985541,404.342966 929.000000,544.000000 Z" fill="rgb(121,57,57)" fill-opacity="1" />
<path d="M 785.600632 379.049703 L 747.413553,452.956271 733.311836,314.418375 Z" fill="rgb(235,218,203)" fill-opacity="1" />
<path d="M 747.413553 452.956271 L 640.000000,448.000000 733.311836,314.418375 Z" fill="rgb(195,143,94)" fill-opacity="1" />
<path d="M 585.410373 304.436638 L 640.000000,448.000000 569.597217,328.892229 Z" fill="rgb(164,70,35)" fill-opacity="1" />
<path d="M 785.600632 379.049703 L 733.311836,314.418375 783.345856,204.092418 Z" fill="rgb(218,184,145)" fill-opacity="1" />
<path d="M 776.428094 58.649056 L 576.601131,153.088876 554.616529,6.596468 Z" fill="rgb(168,85,59)" fill-opacity="1" />
<path d="M 786.659667 450.199861 L 785.600632,379.049703 863.985541,404.342966 Z" fill="rgb(192,131,108)" fill-opacity="1" />
<path d="M 786.659667 450.199861 L 747.413553,452.956271 785.600632,379.049703 Z" fill="rgb(190,110,63)" fill-opacity="1" />
<path d="M 640.000000 448.000000 L 585.410373,304.436638 733.311836,314.418375 Z" fill="rgb(227,189,133)" fill-opacity="1" />
<path d="M 520.000000 317.000000 L 510.000000,316.000000 504.000000,291.000000 Z" fill="rgb(64,23,25)" fill-opacity="1" />
<path d="M 585.410373 304.436638 L 611.264739,211.379362 733.311836,314.418375 Z" fill="rgb(230,206,173)" fill-opacity="1" />
<path d="M 585.410373 304.436638 L 504.000000,291.000000 504.000000,259.000000 Z" fill="rgb(102,60,42)" fill-opacity="1" />
<path d="M 869.186445 64.670674 L 878.580372,139.916334 819.903219,128.053973 Z" fill="rgb(194,152,129)" fill-opacity="1" />
<path d="M 733.311836 314.418375 L 611.264739,211.379362 783.345856,204.092418 Z" fill="rgb(228,173,105)" fill-opacity="1" />
<path d="M 585.410373 304.436638 L 520.000000,317.000000 504.000000,291.000000 Z" fill="rgb(86,37,33)" fill-opacity="1" />
<path d="M 514.349392 328.261489 L 507.000000,349.000000 510.000000,316.000000 Z" fill="rgb(73,42,36)" fill-opacity="1" />
<path d="M 569.597217 328.892229 L 520.000000,317.000000 585.410373,304.436638 Z" fill="rgb(171,105,62)" fill-opacity="1" />
<path d="M 530.915858 339.146703 L 528.000000,379.000000 510.000000,355.000000 Z" fill="rgb(67,28,24)" fill-opacity="1" />
<path d="M 450.000000 188.000000 L 576.601131,153.088876 531.000000,223.000000 Z" fill="rgb(87,51,36)" fill-opacity="1" />
<path d="M 611.264739 211.379362 L 585.410373,304.436638 531.000000,223.000000 Z" fill="rgb(148,75,49)" fill-opacity="1" />
<path d="M 520.000000 317.000000 L 514.349392,328.261489 510.000000,316.000000 Z" fill="rgb(74,52,51)" fill-opacity="1" />
<path d="M 520.000000 317.000000 L 569.597217,328.892229 530.915858,339.146703 Z" fill="rgb(129,68,52)" fill-opacity="1" />
<path d="M 505.000000 369.000000 L 528.000000,379.000000 497.000000,383.000000 Z" fill="rgb(55,26,24)" fill-opacity="1" />
<path d="M 569.597217 328.892229 L 586.000000,449.000000 528.000000,379.000000 Z" fill="rgb(93,32,25)" fill-opacity="1" />
<path d="M 520.000000 317.000000 L 530.915858,339.146703 514.349392,328.261489 Z" fill="rgb(132,74,54)" fill-opacity="1" />
<path d="M 569.597217 328.892229 L 528.000000,379.000000 530.915858,339.146703 Z" fill="rgb(98,49,32)" fill-opacity="1" />
<path d="M 416.000000 325.000000 L 485.000000,362.000000 427.000000,357.000000 Z" fill="rgb(70,53,49)" fill-opacity="1" />
<path d="M 507.000000 349.000000 L 510.000000,355.000000 485.000000,362.000000 Z" fill="rgb(73,38,33)" fill-opacity="1" />
<path d="M 485.000000 362.000000 L 505.000000,369.000000 497.000000,383.000000 Z" fill="rgb(63,39,30)" fill-opacity="1" />
<path d="M 510.000000 355.000000 L 528.000000,379.000000 505.000000,369.000000 Z" fill="rgb(66,34,25)" fill-opacity="1" />
<path d="M 485.000000 362.000000 L 510.000000,355.000000 505.000000,369.000000 Z" fill="rgb(55,22,21)" fill-opacity="1" />
<path d="M 507.000000 349.000000 L 530.915858,339.146703 510.000000,355.000000 Z" fill="rgb(98,55,28)" fill-opacity="1" />
<path d="M 466.060687 275.214554 L 485.000000,362.000000 416.000000,325.000000 Z" fill="rgb(53,24,22)" fill-opacity="1" />
<path d="M 424.000000 365.000000 L 421.000000,386.000000 393.000000,397.000000 Z" fill="rgb(29,14,26)" fill-opacity="1" />
<path d="M 482.000000 390.000000 L 421.000000,386.000000 424.000000,365.000000 Z" fill="rgb(41,30,27)" fill-opacity="1" />
<path d="M 440.000000 419.000000 L 401.000000,400.000000 421.000000,386.000000 Z" fill="rgb(36,24,19)" fill-opacity="1" />
<path d="M 427.000000 357.000000 L 424.000000,365.000000 420.000000,350.000000 Z" fill="rgb(45,32,46)" fill-opacity="1" />
<path d="M 427.000000 357.000000 L 485.000000,362.000000 424.000000,365.000000 Z" fill="rgb(40,26,23)" fill-opacity="1" />
<path d="M 353.000000 255.000000 L 397.000000,310.000000 339.000000,330.000000 Z" fill="rgb(38,31,39)" fill-opacity="1" />
<path d="M 416.000000 325.000000 L 420.000000,350.000000 358.000000,353.000000 Z" fill="rgb(34,20,21)" fill-opacity="1" />
<path d="M 397.000000 310.000000 L 415.000000,264.000000 417.000000,291.000000 Z" fill="rgb(44,40,51)" fill-opacity="1" />
<path d="M 364.000000 208.000000 L 420.000000,182.000000 415.000000,264.000000 Z" fill="rgb(48,35,32)" fill-opacity="1" />
<path d="M 417.000000 291.000000 L 416.000000,325.000000 397.000000,310.000000 Z" fill="rgb(39,31,33)" fill-opacity="1" />
<path d="M 417.000000 291.000000 L 466.060687,275.214554 416.000000,325.000000 Z" fill="rgb(55,46,73)" fill-opacity="1" />
<path d="M 347.000000 158.000000 L 405.000000,137.000000 420.000000,182.000000 Z" fill="rgb(44,19,11)" fill-opacity="1" />
<path d="M 450.000000 188.000000 L 434.000000,78.000000 576.601131,153.088876 Z" fill="rgb(73,43,40)" fill-opacity="1" />
<path d="M 450.000000 201.000000 L 481.195084,219.973163 466.060687,275.214554 Z" fill="rgb(90,62,57)" fill-opacity="1" />
<path d="M 450.000000 201.000000 L 450.000000,188.000000 481.195084,219.973163 Z" fill="rgb(63,39,30)" fill-opacity="1" />
<path d="M 466.060687 275.214554 L 504.000000,259.000000 504.000000,291.000000 Z" fill="rgb(59,32,30)" fill-opacity="1" />
<path d="M 481.195084 219.973163 L 531.000000,223.000000 504.000000,259.000000 Z" fill="rgb(87,49,33)" fill-opacity="1" />
<path d="M 481.195084 219.973163 L 450.000000,188.000000 531.000000,223.000000 Z" fill="rgb(80,56,44)" fill-opacity="1" />
<path d="M 554.616529 6.596468 L 769.715072,12.174813 776.428094,58.649056 Z" fill="rgb(170,114,96)" fill-opacity="1" />
<path d="M 878.580372 139.916334 L 871.312209,193.216773 819.903219,128.053973 Z" fill="rgb(191,137,134)" fill-opacity="1" />
<path d="M 783.345856 204.092418 L 611.264739,211.379362 776.428094,58.649056 Z" fill="rgb(209,148,109)" fill-opacity="1" />
<path d="M 1068.000000 160.000000 L 871.312209,193.216773 878.580372,139.916334 Z" fill="rgb(168,136,126)" fill-opacity="1" />
<path d="M 863.985541 404.342966 L 785.600632,379.049703 871.312209,193.216773 Z" fill="rgb(212,182,157)" fill-opacity="1" />
<path d="M 420.000000 182.000000 L 405.000000,137.000000 450.000000,188.000000 Z" fill="rgb(43,27,24)" fill-opacity="1" />
<path d="M 370.000000 119.000000 L 389.000000,17.000000 434.000000,78.000000 Z" fill="rgb(76,53,44)" fill-opacity="1" />
<path d="M 415.000000 264.000000 L 420.000000,182.000000 450.000000,201.000000 Z" fill="rgb(51,37,36)" fill-opacity="1" />
<path d="M 364.000000 208.000000 L 347.000000,158.000000 420.000000,182.000000 Z" fill="rgb(69,50,44)" fill-opacity="1" />
<path d="M 420.000000 182.000000 L 450.000000,188.000000 450.000000,201.000000 Z" fill="rgb(78,52,37)" fill-opacity="1" />
<path d="M 405.000000 137.000000 L 434.000000,78.000000 450.000000,188.000000 Z" fill="rgb(77,59,50)" fill-opacity="1" />
<path d="M 309.000000 59.000000 L 389.000000,17.000000 330.000000,82.000000 Z" fill="rgb(76,56,47)" fill-opacity="1" />
<path d="M 302.000000 7.000000 L 463.000000,1.000000 389.000000,17.000000 Z" fill="rgb(69,44,45)" fill-opacity="1" />
<path d="M 370.000000 119.000000 L 434.000000,78.000000 405.000000,137.000000 Z" fill="rgb(53,39,36)" fill-opacity="1" />
<path d="M 389.000000 17.000000 L 463.000000,1.000000 434.000000,78.000000 Z" fill="rgb(85,58,48)" fill-opacity="1" />
<path d="M 434.000000 78.000000 L 463.000000,1.000000 554.616529,6.596468 Z" fill="rgb(117,72,51)" fill-opacity="1" />
<path d="M 1014.000000 24.000000 L 1009.000000,9.000000 1032.000000,17.000000 Z" fill="rgb(40,29,46)" fill-opacity="1" />
<path d="M 1080.000000 0.000000 L 769.715072,12.174813 554.616529,6.596468 Z" fill="rgb(190,179,171)" fill-opacity="1" />
<path d="M 1069.000000 83.000000 L 1051.000000,58.000000 1062.000000,27.000000 Z" fill="rgb(54,42,48)" fill-opacity="1" />
<path d="M 1009.000000 9.000000 L 958.912762,45.829820 769.715072,12.174813 Z" fill="rgb(116,107,117)" fill-opacity="1" />
<path d="M 819.903219 128.053973 L 783.345856,204.092418 776.428094,58.649056 Z" fill="rgb(204,136,138)" fill-opacity="1" />
<path d="M 776.428094 58.649056 L 869.186445,64.670674 819.903219,128.053973 Z" fill="rgb(199,128,125)" fill-opacity="1" />
<path d="M 776.428094 58.649056 L 769.715072,12.174813 869.186445,64.670674 Z" fill="rgb(209,183,159)" fill-opacity="1" />
<path d="M 0.000000 0.000000 L 1080.000000,0.000000 463.000000,1.000000 Z" fill="rgb(170,135,111)" fill-opacity="1" />
<path d="M 1032.000000 17.000000 L 1038.000000,24.000000 1014.000000,24.000000 Z" fill="rgb(29,30,71)" fill-opacity="1" />
<path d="M 1068.000000 160.000000 L 878.580372,139.916334 1032.000000,75.000000 Z" fill="rgb(101,77,79)" fill-opacity="1" />
<path d="M 958.912762 45.829820 L 1009.000000,9.000000 1014.000000,24.000000 Z" fill="rgb(84,73,71)" fill-opacity="1" />
<path d="M 1080.000000 0.000000 L 1062.000000,27.000000 1032.000000,17.000000 Z" fill="rgb(33,22,37)" fill-opacity="1" />
<path d="M 1009.000000 9.000000 L 1080.000000,0.000000 1032.000000,17.000000 Z" fill="rgb(69,54,54)" fill-opacity="1" />
<path d="M 958.912762 45.829820 L 878.580372,139.916334 869.186445,64.670674 Z" fill="rgb(203,193,178)" fill-opacity="1" />
<path d="M 1032.000000 75.000000 L 1075.000000,92.000000 1068.000000,160.000000 Z" fill="rgb(53,39,44)" fill-opacity="1" />
<path d="M 769.715072 12.174813 L 958.912762,45.829820 869.186445,64.670674 Z" fill="rgb(186,174,166)" fill-opacity="1" />
<path d="M 1014.000000 24.000000 L 1038.000000,24.000000 1051.000000,58.000000 Z" fill="rgb(38,24,36)" fill-opacity="1" />
<path d="M 958.912762 45.829820 L 1032.000000,75.000000 878.580372,139.916334 Z" fill="rgb(121,99,100)" fill-opacity="1" />
<path d="M 958.912762 45.829820 L 1014.000000,24.000000 1032.000000,75.000000 Z" fill="rgb(59,48,49)" fill-opacity="1" />
<path d="M 863.985541 404.342966 L 871.312209,193.216773 1080.000000,170.000000 Z" fill="rgb(188,152,144)" fill-opacity="1" />
<path d="M 1080.000000 170.000000 L 871.312209,193.216773 1068.000000,160.000000 Z" fill="rgb(137,90,109)" fill-opacity="1" />
<path d="M 1032.000000 75.000000 L 1069.000000,83.000000 1075.000000,92.000000 Z" fill="rgb(48,31,44)" fill-opacity="1" />
<path d="M 1051.000000 58.000000 L 1038.000000,24.000000 1062.000000,27.000000 Z" fill="rgb(37,26,41)" fill-opacity="1" />
<path d="M 1080.000000 0.000000 L 1080.000000,170.000000 1075.000000,92.000000 Z" fill="rgb(63,43,65)" fill-opacity="1" />
<path d="M 1032.000000 75.000000 L 1051.000000,58.000000 1069.000000,83.000000 Z" fill="rgb(49,38,41)" fill-opacity="1" />
<path d="M 1032.000000 75.000000 L 1014.000000,24.000000 1051.000000,58.000000 Z" fill="rgb(52,38,48)" fill-opacity="1" />
<path d="M 1032.000000 17.000000 L 1062.000000,27.000000 1038.000000,24.000000 Z" fill="rgb(43,28,39)" fill-opacity="1" />
<path d="M 1080.000000 0.000000 L 1075.000000,92.000000 1069.000000,83.000000 Z" fill="rgb(48,33,41)" fill-opacity="1" />
<path d="M 769.715072 12.174813 L 1080.000000,0.000000 1009.000000,9.000000 Z" fill="rgb(104,102,115)" fill-opacity="1" />
</g>
</svg>