<!DOCTYPE svg PUBLIC "-//W3C//DTD SVG 1.1//EN" "http://www.w3.org/Graphics/SVG/1.1/DTD/svg11.dtd">
<svg xmlns="http://www.w3.org/2000/svg" version="1.200000" width="100%" height="100%" viewBox="0 0 1505 1129" xmlns:xlink="http://www.w3.org/1999/xlink"><g stroke="none" stroke-width="0" shape-rendering="crispEdges">
<path d="M 3.000000 607.000000 L 13.000000,967.000000 2.000000,604.000000 Z" fill="rgb(226,243,253)" fill-opacity="1" />
<path d="M 420.000000 584.000000 L 388.000000,536.000000 560.000000,523.000000 Z" fill="rgb(63,30,17)" fill-opacity="1" />
<path d="M 1208.000000 158.000000 L 1190.000000,150.000000 1220.000000,150.000000 Z" fill="rgb(203,230,249)" fill-opacity="1" />
<path d="M 373.636594 787.518860 L 313.051813,863.745727 191.326796,842.522786 Z" fill="rgb(233,246,254)" fill-opacity="1" />
<path d="M 1302.000000 204.000000 L 1278.000000,216.000000 1301.000000,198.000000 Z" fill="rgb(157,82,59)" fill-opacity="1" />
<path d="M 1221.000000 983.000000 L 1298.870339,842.934088 1282.573786,995.127514 Z" fill="rgb(217,220,133)" fill-opacity="1" />
<path d="M 1488.282428 715.453527 L 1504.000000,0.000000 1503.000000,961.000000 Z" fill="rgb(226,243,253)" fill-opacity="1" />
<path d="M 365.000000 522.000000 L 351.000000,499.000000 375.000000,517.000000 Z" fill="rgb(69,89,100)" fill-opacity="1" />
<path d="M 356.000000 546.000000 L 348.000000,546.000000 357.000000,542.000000 Z" fill="rgb(33,58,80)" fill-opacity="1" />
<path d="M 161.418253 425.889397 L 257.000000,490.000000 84.958510,512.208576 Z" fill="rgb(230,247,254)" fill-opacity="1" />
<path d="M 357.000000 542.000000 L 388.000000,536.000000 356.000000,546.000000 Z" fill="rgb(200,220,237)" fill-opacity="1" />
<path d="M 161.418253 425.889397 L 241.320251,373.078977 260.000000,478.000000 Z" fill="rgb(230,247,254)" fill-opacity="1" />
<path d="M 91.568494 675.184545 L 145.889512,609.617913 191.000000,601.000000 Z" fill="rgb(232,247,254)" fill-opacity="1" />
<path d="M 367.000000 447.000000 L 367.000000,431.000000 374.000000,436.000000 Z" fill="rgb(142,162,173)" fill-opacity="1" />
<path d="M 640.205631 601.030211 L 574.000000,621.000000 579.000000,600.000000 Z" fill="rgb(2,2,2)" fill-opacity="1" />
<path d="M 2.000000 604.000000 L 7.000000,1000.000000 0.000000,1128.000000 Z" fill="rgb(216,234,246)" fill-opacity="1" />
<path d="M 213.000000 932.000000 L 313.051813,863.745727 279.000000,954.000000 Z" fill="rgb(233,246,254)" fill-opacity="1" />
<path d="M 1174.000000 1034.000000 L 1294.711879,1030.479225 1409.000000,1126.000000 Z" fill="rgb(254,223,148)" fill-opacity="1" />
<path d="M 170.000000 1057.000000 L 871.486276,1086.126083 0.000000,1128.000000 Z" fill="rgb(239,211,113)" fill-opacity="1" />
<path d="M 331.000000 496.000000 L 344.000000,519.000000 336.000000,548.000000 Z" fill="rgb(176,212,226)" fill-opacity="1" />
<path d="M 358.893756 596.181546 L 482.000000,671.000000 373.636594,787.518860 Z" fill="rgb(233,248,253)" fill-opacity="1" />
<path d="M 375.000000 517.000000 L 375.000000,463.000000 388.000000,536.000000 Z" fill="rgb(35,46,48)" fill-opacity="1" />
<path d="M 1068.000000 701.000000 L 1101.000000,615.000000 1112.000000,702.000000 Z" fill="rgb(32,12,11)" fill-opacity="1" />
<path d="M 710.000000 926.000000 L 711.000000,933.000000 694.000000,933.000000 Z" fill="rgb(71,74,47)" fill-opacity="1" />
<path d="M 427.455611 869.972877 L 313.051813,863.745727 386.333044,799.893466 Z" fill="rgb(233,248,253)" fill-opacity="1" />
<path d="M 1331.000000 1011.000000 L 1352.000000,980.000000 1374.000000,991.000000 Z" fill="rgb(168,172,78)" fill-opacity="1" />
<path d="M 891.000000 816.000000 L 883.000000,791.000000 892.000000,814.000000 Z" fill="rgb(219,174,151)" fill-opacity="1" />
<path d="M 983.000000 842.000000 L 955.000000,802.000000 993.000000,807.000000 Z" fill="rgb(80,71,72)" fill-opacity="1" />
<path d="M 1337.000000 417.000000 L 1348.000000,397.000000 1361.000000,441.000000 Z" fill="rgb(72,60,62)" fill-opacity="1" />
<path d="M 1238.699295 768.823334 L 1298.870339,842.934088 1238.195814,804.910277 Z" fill="rgb(230,245,250)" fill-opacity="1" />
<path d="M 1101.300714 794.329466 L 1166.000000,829.000000 1100.718131,795.749258 Z" fill="rgb(235,249,252)" fill-opacity="1" />
<path d="M 1150.000000 167.000000 L 1073.000000,188.000000 1080.000000,176.000000 Z" fill="rgb(18,32,35)" fill-opacity="1" />
<path d="M 1185.000000 864.000000 L 1207.000000,846.000000 1221.000000,983.000000 Z" fill="rgb(228,242,251)" fill-opacity="1" />
<path d="M 856.000000 293.000000 L 848.000000,308.000000 838.000000,289.000000 Z" fill="rgb(207,223,246)" fill-opacity="1" />
<path d="M 1204.000000 230.000000 L 1184.288211,333.725122 1073.000000,188.000000 Z" fill="rgb(123,66,57)" fill-opacity="1" />
<path d="M 93.869464 196.127465 L 109.949272,288.311493 7.641044,310.284115 Z" fill="rgb(230,247,254)" fill-opacity="1" />
<path d="M 1278.000000 216.000000 L 1222.000000,243.000000 1204.000000,230.000000 Z" fill="rgb(29,15,2)" fill-opacity="1" />
<path d="M 1315.000000 341.000000 L 1305.000000,264.000000 1338.000000,255.000000 Z" fill="rgb(162,97,83)" fill-opacity="1" />
<path d="M 1222.000000 243.000000 L 1184.288211,333.725122 1204.000000,230.000000 Z" fill="rgb(147,55,37)" fill-opacity="1" />
<path d="M 814.000000 316.000000 L 679.529966,217.681057 838.000000,289.000000 Z" fill="rgb(235,250,253)" fill-opacity="1" />
<path d="M 814.000000 316.000000 L 828.000000,305.000000 830.000000,331.000000 Z" fill="rgb(229,248,254)" fill-opacity="1" />
<path d="M 344.000000 519.000000 L 352.000000,521.000000 348.000000,546.000000 Z" fill="rgb(66,83,99)" fill-opacity="1" />
<path d="M 348.000000 546.000000 L 352.000000,521.000000 357.000000,542.000000 Z" fill="rgb(33,58,80)" fill-opacity="1" />
<path d="M 426.395397 150.285117 L 241.320251,373.078977 113.962635,207.479278 Z" fill="rgb(235,250,254)" fill-opacity="1" />
<path d="M 560.000000 523.000000 L 571.000000,534.000000 573.000000,544.000000 Z" fill="rgb(217,145,130)" fill-opacity="1" />
<path d="M 388.000000 536.000000 L 375.000000,463.000000 464.125856,425.297925 Z" fill="rgb(69,25,14)" fill-opacity="1" />
<path d="M 7.641044 310.284115 L 109.185830,338.055232 84.958510,512.208576 Z" fill="rgb(230,247,254)" fill-opacity="1" />
<path d="M 374.000000 436.000000 L 386.000000,429.000000 380.000000,446.000000 Z" fill="rgb(87,111,113)" fill-opacity="1" />
<path d="M 560.000000 523.000000 L 573.000000,544.000000 574.000000,594.000000 Z" fill="rgb(48,14,2)" fill-opacity="1" />
<path d="M 679.529966 217.681057 L 750.000000,361.000000 464.125856,425.297925 Z" fill="rgb(235,250,253)" fill-opacity="1" />
<path d="M 574.000000 594.000000 L 572.000000,625.000000 482.000000,671.000000 Z" fill="rgb(72,29,20)" fill-opacity="1" />
<path d="M 560.000000 523.000000 L 464.125856,425.297925 606.000000,518.000000 Z" fill="rgb(98,42,27)" fill-opacity="1" />
<path d="M 1036.000000 221.000000 L 1004.000000,307.000000 1026.000000,221.000000 Z" fill="rgb(7,8,10)" fill-opacity="1" />
<path d="M 426.395397 150.285117 L 679.529966,217.681057 464.125856,425.297925 Z" fill="rgb(235,250,253)" fill-opacity="1" />
<path d="M 817.000000 334.000000 L 830.000000,331.000000 828.000000,379.000000 Z" fill="rgb(94,108,126)" fill-opacity="1" />
<path d="M 557.000000 827.000000 L 574.000000,812.000000 568.000000,826.000000 Z" fill="rgb(78,62,64)" fill-opacity="1" />
<path d="M 386.333044 799.893466 L 313.051813,863.745727 373.636594,787.518860 Z" fill="rgb(233,248,253)" fill-opacity="1" />
<path d="M 606.000000 518.000000 L 629.667070,588.445729 579.000000,575.000000 Z" fill="rgb(3,3,3)" fill-opacity="1" />
<path d="M 574.000000 621.000000 L 640.205631,601.030211 572.000000,625.000000 Z" fill="rgb(3,3,1)" fill-opacity="1" />
<path d="M 579.000000 600.000000 L 629.667070,588.445729 640.205631,601.030211 Z" fill="rgb(4,5,0)" fill-opacity="1" />
<path d="M 688.000000 899.000000 L 710.000000,926.000000 694.000000,933.000000 Z" fill="rgb(39,39,39)" fill-opacity="1" />
<path d="M 625.000000 517.000000 L 689.000000,628.000000 640.205631,601.030211 Z" fill="rgb(13,2,0)" fill-opacity="1" />
<path d="M 848.000000 308.000000 L 846.000000,330.000000 830.000000,331.000000 Z" fill="rgb(186,203,219)" fill-opacity="1" />
<path d="M 36.000000 654.000000 L 3.000000,607.000000 38.000000,594.000000 Z" fill="rgb(54,43,49)" fill-opacity="1" />
<path d="M 197.000000 599.000000 L 257.000000,490.000000 304.000000,578.000000 Z" fill="rgb(25,25,25)" fill-opacity="1" />
<path d="M 3.000000 580.000000 L 6.000000,562.000000 20.000000,572.000000 Z" fill="rgb(120,129,156)" fill-opacity="1" />
<path d="M 358.893756 596.181546 L 348.000000,546.000000 356.000000,546.000000 Z" fill="rgb(231,250,254)" fill-opacity="1" />
<path d="M 191.326796 842.522786 L 299.000000,597.000000 373.636594,787.518860 Z" fill="rgb(233,246,254)" fill-opacity="1" />
<path d="M 197.000000 599.000000 L 84.958510,512.208576 257.000000,490.000000 Z" fill="rgb(233,249,249)" fill-opacity="1" />
<path d="M 191.326796 842.522786 L 197.000000,599.000000 299.000000,597.000000 Z" fill="rgb(233,246,252)" fill-opacity="1" />
<path d="M 257.000000 490.000000 L 331.000000,496.000000 336.000000,548.000000 Z" fill="rgb(5,5,7)" fill-opacity="1" />
<path d="M 7.000000 1000.000000 L 9.000000,986.000000 33.000000,979.000000 Z" fill="rgb(182,191,101)" fill-opacity="1" />
<path d="M 38.000000 594.000000 L 54.000000,588.000000 72.000000,603.000000 Z" fill="rgb(16,29,45)" fill-opacity="1" />
<path d="M 358.893756 596.181546 L 373.636594,787.518860 299.000000,597.000000 Z" fill="rgb(233,248,253)" fill-opacity="1" />
<path d="M 560.695500 947.906432 L 546.000000,932.000000 557.000000,933.000000 Z" fill="rgb(149,167,92)" fill-opacity="1" />
<path d="M 497.000000 711.000000 L 386.333044,799.893466 373.636594,787.518860 Z" fill="rgb(233,248,253)" fill-opacity="1" />
<path d="M 427.455611 869.972877 L 357.000000,953.000000 313.051813,863.745727 Z" fill="rgb(233,248,253)" fill-opacity="1" />
<path d="M 499.000000 826.000000 L 530.481728,852.449960 446.952936,868.997860 Z" fill="rgb(202,229,250)" fill-opacity="1" />
<path d="M 567.000000 651.000000 L 572.000000,625.000000 664.000000,625.000000 Z" fill="rgb(2,2,0)" fill-opacity="1" />
<path d="M 72.000000 603.000000 L 91.568494,675.184545 36.000000,654.000000 Z" fill="rgb(232,247,254)" fill-opacity="1" />
<path d="M 42.000000 958.000000 L 88.000000,938.000000 63.000000,1027.000000 Z" fill="rgb(201,182,107)" fill-opacity="1" />
<path d="M 179.000000 1005.000000 L 235.000000,964.000000 170.000000,1057.000000 Z" fill="rgb(211,205,108)" fill-opacity="1" />
<path d="M 610.000000 938.000000 L 608.000000,937.000000 642.000000,908.000000 Z" fill="rgb(206,227,232)" fill-opacity="1" />
<path d="M 497.000000 711.000000 L 499.000000,826.000000 386.333044,799.893466 Z" fill="rgb(233,246,252)" fill-opacity="1" />
<path d="M 492.000000 939.000000 L 542.000000,894.000000 546.000000,932.000000 Z" fill="rgb(186,213,206)" fill-opacity="1" />
<path d="M 492.000000 939.000000 L 446.952936,868.997860 542.000000,894.000000 Z" fill="rgb(210,234,251)" fill-opacity="1" />
<path d="M 594.000000 760.000000 L 579.000000,771.000000 575.000000,763.000000 Z" fill="rgb(48,24,24)" fill-opacity="1" />
<path d="M 427.455611 869.972877 L 446.952936,868.997860 492.000000,939.000000 Z" fill="rgb(198,224,249)" fill-opacity="1" />
<path d="M 599.000000 952.000000 L 560.695500,947.906432 571.000000,930.000000 Z" fill="rgb(141,159,86)" fill-opacity="1" />
<path d="M 601.000000 939.000000 L 592.000000,928.000000 608.000000,937.000000 Z" fill="rgb(77,65,53)" fill-opacity="1" />
<path d="M 557.000000 827.000000 L 530.481728,852.449960 499.000000,826.000000 Z" fill="rgb(7,6,4)" fill-opacity="1" />
<path d="M 584.000000 815.000000 L 568.000000,826.000000 574.000000,812.000000 Z" fill="rgb(9,0,0)" fill-opacity="1" />
<path d="M 688.000000 899.000000 L 684.000000,892.000000 727.000000,932.000000 Z" fill="rgb(71,83,81)" fill-opacity="1" />
<path d="M 1002.000000 693.000000 L 955.000000,802.000000 904.000000,794.000000 Z" fill="rgb(236,250,251)" fill-opacity="1" />
<path d="M 858.000000 843.000000 L 871.486276,1086.126083 776.434569,1045.198876 Z" fill="rgb(247,220,143)" fill-opacity="1" />
<path d="M 666.000000 925.000000 L 642.000000,908.000000 684.000000,892.000000 Z" fill="rgb(36,33,28)" fill-opacity="1" />
<path d="M 565.000000 783.000000 L 557.000000,827.000000 499.000000,826.000000 Z" fill="rgb(48,42,44)" fill-opacity="1" />
<path d="M 530.481728 852.449960 L 575.000000,846.000000 542.000000,894.000000 Z" fill="rgb(14,10,7)" fill-opacity="1" />
<path d="M 575.000000 846.000000 L 530.481728,852.449960 557.000000,831.000000 Z" fill="rgb(14,10,7)" fill-opacity="1" />
<path d="M 575.000000 763.000000 L 594.000000,753.000000 594.000000,760.000000 Z" fill="rgb(106,85,80)" fill-opacity="1" />
<path d="M 575.000000 846.000000 L 602.000000,806.000000 642.000000,908.000000 Z" fill="rgb(25,21,20)" fill-opacity="1" />
<path d="M 575.000000 705.000000 L 560.000000,680.000000 561.000000,675.000000 Z" fill="rgb(177,112,80)" fill-opacity="1" />
<path d="M 684.000000 892.000000 L 688.000000,899.000000 666.000000,925.000000 Z" fill="rgb(41,40,31)" fill-opacity="1" />
<path d="M 664.000000 625.000000 L 609.000000,718.000000 567.000000,651.000000 Z" fill="rgb(8,4,1)" fill-opacity="1" />
<path d="M 664.000000 625.000000 L 689.000000,628.000000 609.000000,718.000000 Z" fill="rgb(233,249,249)" fill-opacity="1" />
<path d="M 1165.000000 902.000000 L 1150.000000,917.000000 1130.000000,899.000000 Z" fill="rgb(227,190,158)" fill-opacity="1" />
<path d="M 750.963246 428.652305 L 704.000000,458.000000 750.000000,361.000000 Z" fill="rgb(205,125,98)" fill-opacity="1" />
<path d="M 1142.000000 863.000000 L 1075.000000,816.000000 1100.718131,795.749258 Z" fill="rgb(233,248,251)" fill-opacity="1" />
<path d="M 1174.000000 819.000000 L 1101.300714,794.329466 1099.000000,778.000000 Z" fill="rgb(235,249,252)" fill-opacity="1" />
<path d="M 1151.200621 969.027352 L 1136.000000,934.000000 1150.000000,917.000000 Z" fill="rgb(229,232,141)" fill-opacity="1" />
<path d="M 1207.000000 846.000000 L 1165.000000,847.000000 1166.000000,829.000000 Z" fill="rgb(4,9,13)" fill-opacity="1" />
<path d="M 1469.000000 929.000000 L 1488.000000,957.000000 1464.000000,950.000000 Z" fill="rgb(197,188,96)" fill-opacity="1" />
<path d="M 1220.000000 993.000000 L 1282.573786,995.127514 1294.711879,1030.479225 Z" fill="rgb(254,234,149)" fill-opacity="1" />
<path d="M 219.000000 950.000000 L 205.000000,943.000000 217.000000,942.000000 Z" fill="rgb(161,165,92)" fill-opacity="1" />
<path d="M 1409.000000 1126.000000 L 1504.000000,1128.000000 0.000000,1128.000000 Z" fill="rgb(201,201,201)" fill-opacity="1" />
<path d="M 1170.000000 973.000000 L 1150.000000,917.000000 1165.000000,902.000000 Z" fill="rgb(201,217,191)" fill-opacity="1" />
<path d="M 961.000000 852.000000 L 955.000000,802.000000 983.000000,842.000000 Z" fill="rgb(63,58,54)" fill-opacity="1" />
<path d="M 1191.205545 981.836329 L 1160.000000,995.000000 1164.000000,985.000000 Z" fill="rgb(205,199,106)" fill-opacity="1" />
<path d="M 1148.000000 988.000000 L 1157.000000,980.000000 1160.000000,995.000000 Z" fill="rgb(155,147,67)" fill-opacity="1" />
<path d="M 1029.000000 953.000000 L 1081.000000,963.000000 1115.000000,1002.000000 Z" fill="rgb(254,229,154)" fill-opacity="1" />
<path d="M 1159.000000 1004.000000 L 1160.000000,995.000000 1191.205545,981.836329 Z" fill="rgb(223,212,118)" fill-opacity="1" />
<path d="M 1405.000000 961.000000 L 1374.000000,991.000000 1352.000000,980.000000 Z" fill="rgb(224,210,122)" fill-opacity="1" />
<path d="M 1409.000000 1126.000000 L 1431.000000,1076.000000 1430.000000,1099.000000 Z" fill="rgb(163,165,69)" fill-opacity="1" />
<path d="M 1409.000000 1126.000000 L 1430.000000,1099.000000 1418.000000,1125.000000 Z" fill="rgb(132,126,44)" fill-opacity="1" />
<path d="M 1431.000000 1076.000000 L 1472.000000,1055.000000 1443.000000,1108.000000 Z" fill="rgb(158,163,73)" fill-opacity="1" />
<path d="M 1405.000000 961.000000 L 1424.000000,979.000000 1413.000000,997.000000 Z" fill="rgb(244,217,136)" fill-opacity="1" />
<path d="M 1436.000000 1008.000000 L 1458.000000,1017.000000 1431.000000,1076.000000 Z" fill="rgb(254,227,144)" fill-opacity="1" />
<path d="M 1443.000000 1108.000000 L 1504.000000,1128.000000 1418.000000,1125.000000 Z" fill="rgb(213,206,100)" fill-opacity="1" />
<path d="M 1503.000000 961.000000 L 1504.000000,0.000000 1504.000000,1128.000000 Z" fill="rgb(217,217,217)" fill-opacity="1" />
<path d="M 1384.000000 996.000000 L 1410.000000,1011.000000 1331.000000,1011.000000 Z" fill="rgb(207,181,97)" fill-opacity="1" />
<path d="M 1282.573786 995.127514 L 1298.870339,842.934088 1352.000000,980.000000 Z" fill="rgb(208,210,145)" fill-opacity="1" />
<path d="M 1417.000000 948.000000 L 1464.000000,950.000000 1424.000000,979.000000 Z" fill="rgb(199,204,105)" fill-opacity="1" />
<path d="M 1352.000000 980.000000 L 1298.870339,842.934088 1417.000000,948.000000 Z" fill="rgb(230,245,250)" fill-opacity="1" />
<path d="M 1417.000000 998.000000 L 1410.000000,1011.000000 1413.000000,997.000000 Z" fill="rgb(202,180,98)" fill-opacity="1" />
<path d="M 1384.000000 996.000000 L 1374.000000,991.000000 1405.000000,961.000000 Z" fill="rgb(254,240,148)" fill-opacity="1" />
<path d="M 1445.000000 987.000000 L 1436.000000,1008.000000 1417.000000,998.000000 Z" fill="rgb(178,160,79)" fill-opacity="1" />
<path d="M 1488.282428 715.453527 L 1298.870339,842.934088 1238.699295,768.823334 Z" fill="rgb(232,245,253)" fill-opacity="1" />
<path d="M 1168.712983 450.820261 L 1340.000000,429.000000 1337.872319,482.078289 Z" fill="rgb(234,248,251)" fill-opacity="1" />
<path d="M 891.000000 816.000000 L 858.000000,843.000000 883.000000,791.000000 Z" fill="rgb(167,132,113)" fill-opacity="1" />
<path d="M 1099.000000 778.000000 L 1101.300714,794.329466 1100.718131,795.749258 Z" fill="rgb(235,249,252)" fill-opacity="1" />
<path d="M 1099.000000 778.000000 L 1177.000000,742.000000 1174.000000,819.000000 Z" fill="rgb(235,249,252)" fill-opacity="1" />
<path d="M 1238.699295 768.823334 L 1211.000000,745.000000 1216.000000,721.000000 Z" fill="rgb(233,248,253)" fill-opacity="1" />
<path d="M 1481.240919 650.391810 L 1337.872319,482.078289 1361.000000,441.000000 Z" fill="rgb(232,245,253)" fill-opacity="1" />
<path d="M 1315.000000 341.000000 L 1338.000000,255.000000 1408.000000,399.000000 Z" fill="rgb(174,82,65)" fill-opacity="1" />
<path d="M 1216.000000 721.000000 L 1481.240919,650.391810 1238.699295,768.823334 Z" fill="rgb(232,245,253)" fill-opacity="1" />
<path d="M 1002.000000 693.000000 L 689.000000,628.000000 825.000000,467.000000 Z" fill="rgb(136,41,19)" fill-opacity="1" />
<path d="M 825.000000 467.000000 L 704.000000,458.000000 750.963246,428.652305 Z" fill="rgb(214,128,100)" fill-opacity="1" />
<path d="M 1046.000000 603.000000 L 1007.000000,691.000000 1002.000000,693.000000 Z" fill="rgb(32,9,3)" fill-opacity="1" />
<path d="M 689.000000 628.000000 L 664.000000,625.000000 640.205631,601.030211 Z" fill="rgb(13,2,0)" fill-opacity="1" />
<path d="M 1100.718131 795.749258 L 1075.000000,816.000000 1099.000000,778.000000 Z" fill="rgb(235,249,252)" fill-opacity="1" />
<path d="M 1003.691508 766.178268 L 1002.000000,693.000000 1037.000000,723.000000 Z" fill="rgb(223,232,237)" fill-opacity="1" />
<path d="M 1226.000000 350.000000 L 1337.000000,417.000000 1168.712983,450.820261 Z" fill="rgb(238,250,248)" fill-opacity="1" />
<path d="M 825.000000 467.000000 L 689.000000,628.000000 704.000000,458.000000 Z" fill="rgb(128,41,14)" fill-opacity="1" />
<path d="M 750.000000 361.000000 L 814.000000,316.000000 802.000000,353.000000 Z" fill="rgb(170,190,209)" fill-opacity="1" />
<path d="M 825.000000 467.000000 L 831.000000,406.000000 943.000000,440.000000 Z" fill="rgb(138,62,42)" fill-opacity="1" />
<path d="M 814.000000 316.000000 L 830.000000,331.000000 817.000000,334.000000 Z" fill="rgb(191,209,229)" fill-opacity="1" />
<path d="M 943.000000 440.000000 L 899.000000,297.000000 922.000000,292.000000 Z" fill="rgb(39,24,17)" fill-opacity="1" />
<path d="M 386.000000 429.000000 L 361.000000,389.000000 464.125856,425.297925 Z" fill="rgb(110,54,41)" fill-opacity="1" />
<path d="M 922.000000 292.000000 L 924.000000,277.000000 1004.000000,307.000000 Z" fill="rgb(17,16,21)" fill-opacity="1" />
<path d="M 913.000000 278.000000 L 924.000000,277.000000 922.000000,292.000000 Z" fill="rgb(105,115,124)" fill-opacity="1" />
<path d="M 932.000000 261.000000 L 1004.000000,307.000000 924.000000,277.000000 Z" fill="rgb(12,18,18)" fill-opacity="1" />
<path d="M 1155.000000 156.000000 L 1118.000000,156.000000 1160.000000,144.000000 Z" fill="rgb(212,233,252)" fill-opacity="1" />
<path d="M 109.185830 338.055232 L 109.949272,288.311493 165.400326,387.246508 Z" fill="rgb(230,247,254)" fill-opacity="1" />
<path d="M 1294.000000 187.000000 L 1265.000000,152.000000 1290.000000,166.000000 Z" fill="rgb(55,28,19)" fill-opacity="1" />
<path d="M 1488.000000 957.000000 L 1469.000000,929.000000 1503.000000,961.000000 Z" fill="rgb(227,244,254)" fill-opacity="1" />
<path d="M 1338.000000 255.000000 L 1409.766224,34.636127 1504.000000,0.000000 Z" fill="rgb(228,245,252)" fill-opacity="1" />
<path d="M 1399.000000 408.000000 L 1348.000000,397.000000 1408.000000,399.000000 Z" fill="rgb(115,90,93)" fill-opacity="1" />
<path d="M 1290.000000 166.000000 L 1265.000000,152.000000 1285.000000,139.000000 Z" fill="rgb(40,44,45)" fill-opacity="1" />
<path d="M 1408.000000 399.000000 L 1348.000000,397.000000 1315.000000,341.000000 Z" fill="rgb(126,89,83)" fill-opacity="1" />
<path d="M 1337.000000 417.000000 L 1340.000000,429.000000 1168.712983,450.820261 Z" fill="rgb(234,248,251)" fill-opacity="1" />
<path d="M 363.879580 45.836319 L 0.000000,0.000000 1504.000000,0.000000 Z" fill="rgb(235,249,250)" fill-opacity="1" />
<path d="M 904.000000 264.000000 L 880.000000,281.000000 891.000000,255.000000 Z" fill="rgb(216,231,252)" fill-opacity="1" />
<path d="M 363.879580 45.836319 L 113.962635,207.479278 93.869464,196.127465 Z" fill="rgb(233,248,251)" fill-opacity="1" />
<path d="M 113.962635 207.479278 L 241.320251,373.078977 109.949272,288.311493 Z" fill="rgb(230,247,254)" fill-opacity="1" />
<path d="M 36.000000 654.000000 L 38.000000,594.000000 72.000000,603.000000 Z" fill="rgb(17,17,17)" fill-opacity="1" />
<path d="M 93.869464 196.127465 L 113.962635,207.479278 109.949272,288.311493 Z" fill="rgb(230,247,254)" fill-opacity="1" />
<path d="M 367.000000 431.000000 L 260.000000,478.000000 355.000000,392.000000 Z" fill="rgb(23,27,28)" fill-opacity="1" />
<path d="M 93.869464 196.127465 L 0.000000,0.000000 363.879580,45.836319 Z" fill="rgb(235,250,253)" fill-opacity="1" />
<path d="M 6.000000 562.000000 L 7.641044,310.284115 84.958510,512.208576 Z" fill="rgb(230,247,254)" fill-opacity="1" />
<path d="M 0.000000 0.000000 L 93.869464,196.127465 7.641044,310.284115 Z" fill="rgb(230,247,254)" fill-opacity="1" />
<path d="M 161.418253 425.889397 L 109.185830,338.055232 165.400326,387.246508 Z" fill="rgb(230,247,254)" fill-opacity="1" />
<path d="M 7.641044 310.284115 L 109.949272,288.311493 109.185830,338.055232 Z" fill="rgb(230,247,254)" fill-opacity="1" />
<path d="M 109.185830 338.055232 L 161.418253,425.889397 84.958510,512.208576 Z" fill="rgb(230,247,254)" fill-opacity="1" />
<path d="M 165.400326 387.246508 L 241.320251,373.078977 161.418253,425.889397 Z" fill="rgb(230,247,254)" fill-opacity="1" />
<path d="M 260.000000 478.000000 L 241.320251,373.078977 355.000000,392.000000 Z" fill="rgb(233,247,250)" fill-opacity="1" />
<path d="M 165.400326 387.246508 L 109.949272,288.311493 241.320251,373.078977 Z" fill="rgb(230,247,254)" fill-opacity="1" />
<path d="M 260.000000 478.000000 L 342.000000,487.000000 331.000000,496.000000 Z" fill="rgb(22,17,21)" fill-opacity="1" />
<path d="M 342.000000 487.000000 L 351.000000,499.000000 331.000000,496.000000 Z" fill="rgb(186,212,225)" fill-opacity="1" />
<path d="M 257.000000 490.000000 L 260.000000,478.000000 331.000000,496.000000 Z" fill="rgb(43,44,49)" fill-opacity="1" />
<path d="M 367.000000 447.000000 L 374.000000,436.000000 380.000000,446.000000 Z" fill="rgb(12,14,29)" fill-opacity="1" />
<path d="M 336.000000 548.000000 L 344.000000,519.000000 348.000000,546.000000 Z" fill="rgb(105,126,146)" fill-opacity="1" />
<path d="M 331.000000 496.000000 L 351.000000,499.000000 344.000000,519.000000 Z" fill="rgb(186,213,232)" fill-opacity="1" />
<path d="M 365.000000 522.000000 L 352.000000,521.000000 351.000000,499.000000 Z" fill="rgb(0,26,43)" fill-opacity="1" />
<path d="M 344.000000 519.000000 L 351.000000,499.000000 352.000000,521.000000 Z" fill="rgb(23,37,46)" fill-opacity="1" />
<path d="M 342.000000 487.000000 L 260.000000,478.000000 367.000000,431.000000 Z" fill="rgb(23,25,24)" fill-opacity="1" />
<path d="M 257.000000 490.000000 L 161.418253,425.889397 260.000000,478.000000 Z" fill="rgb(230,247,254)" fill-opacity="1" />
<path d="M 367.000000 431.000000 L 355.000000,392.000000 361.000000,389.000000 Z" fill="rgb(68,69,74)" fill-opacity="1" />
<path d="M 426.395397 150.285117 L 113.962635,207.479278 363.879580,45.836319 Z" fill="rgb(235,250,253)" fill-opacity="1" />
<path d="M 426.395397 150.285117 L 361.000000,389.000000 241.320251,373.078977 Z" fill="rgb(235,250,254)" fill-opacity="1" />
<path d="M 355.000000 392.000000 L 241.320251,373.078977 361.000000,389.000000 Z" fill="rgb(233,247,250)" fill-opacity="1" />
<path d="M 1178.000000 144.000000 L 1160.000000,144.000000 1409.766224,34.636127 Z" fill="rgb(233,248,253)" fill-opacity="1" />
<path d="M 1080.000000 176.000000 L 1073.000000,188.000000 1026.000000,221.000000 Z" fill="rgb(72,96,115)" fill-opacity="1" />
<path d="M 380.000000 446.000000 L 386.000000,429.000000 464.125856,425.297925 Z" fill="rgb(110,54,41)" fill-opacity="1" />
<path d="M 367.000000 431.000000 L 361.000000,389.000000 386.000000,429.000000 Z" fill="rgb(35,35,37)" fill-opacity="1" />
<path d="M 361.000000 389.000000 L 426.395397,150.285117 464.125856,425.297925 Z" fill="rgb(233,248,251)" fill-opacity="1" />
<path d="M 813.000000 334.000000 L 814.000000,316.000000 817.000000,334.000000 Z" fill="rgb(165,186,205)" fill-opacity="1" />
<path d="M 363.879580 45.836319 L 679.529966,217.681057 426.395397,150.285117 Z" fill="rgb(236,250,253)" fill-opacity="1" />
<path d="M 363.879580 45.836319 L 1118.000000,156.000000 679.529966,217.681057 Z" fill="rgb(236,250,253)" fill-opacity="1" />
<path d="M 750.963246 428.652305 L 750.000000,361.000000 802.000000,353.000000 Z" fill="rgb(189,108,84)" fill-opacity="1" />
<path d="M 704.000000 458.000000 L 464.125856,425.297925 750.000000,361.000000 Z" fill="rgb(91,38,24)" fill-opacity="1" />
<path d="M 828.000000 379.000000 L 750.963246,428.652305 802.000000,353.000000 Z" fill="rgb(189,108,84)" fill-opacity="1" />
<path d="M 883.000000 791.000000 L 1002.000000,693.000000 904.000000,794.000000 Z" fill="rgb(235,249,252)" fill-opacity="1" />
<path d="M 802.000000 353.000000 L 813.000000,334.000000 817.000000,334.000000 Z" fill="rgb(164,180,199)" fill-opacity="1" />
<path d="M 750.000000 361.000000 L 679.529966,217.681057 814.000000,316.000000 Z" fill="rgb(235,250,253)" fill-opacity="1" />
<path d="M 828.000000 305.000000 L 814.000000,316.000000 838.000000,289.000000 Z" fill="rgb(159,176,191)" fill-opacity="1" />
<path d="M 813.000000 334.000000 L 802.000000,353.000000 814.000000,316.000000 Z" fill="rgb(166,187,206)" fill-opacity="1" />
<path d="M 817.000000 334.000000 L 828.000000,379.000000 802.000000,353.000000 Z" fill="rgb(128,95,96)" fill-opacity="1" />
<path d="M 1046.000000 603.000000 L 1061.000000,595.000000 1101.000000,615.000000 Z" fill="rgb(69,21,6)" fill-opacity="1" />
<path d="M 464.125856 425.297925 L 560.000000,523.000000 388.000000,536.000000 Z" fill="rgb(69,25,14)" fill-opacity="1" />
<path d="M 464.125856 425.297925 L 704.000000,458.000000 606.000000,518.000000 Z" fill="rgb(104,32,8)" fill-opacity="1" />
<path d="M 560.000000 523.000000 L 606.000000,518.000000 571.000000,534.000000 Z" fill="rgb(73,31,9)" fill-opacity="1" />
<path d="M 625.000000 517.000000 L 629.667070,588.445729 606.000000,518.000000 Z" fill="rgb(3,3,3)" fill-opacity="1" />
<path d="M 704.000000 458.000000 L 625.000000,517.000000 606.000000,518.000000 Z" fill="rgb(145,51,29)" fill-opacity="1" />
<path d="M 704.000000 458.000000 L 689.000000,628.000000 625.000000,517.000000 Z" fill="rgb(107,34,15)" fill-opacity="1" />
<path d="M 828.000000 379.000000 L 831.000000,406.000000 750.963246,428.652305 Z" fill="rgb(189,108,84)" fill-opacity="1" />
<path d="M 1107.000000 417.000000 L 1004.000000,307.000000 1184.288211,333.725122 Z" fill="rgb(157,71,54)" fill-opacity="1" />
<path d="M 357.000000 542.000000 L 365.000000,522.000000 388.000000,536.000000 Z" fill="rgb(194,215,234)" fill-opacity="1" />
<path d="M 375.000000 463.000000 L 380.000000,446.000000 464.125856,425.297925 Z" fill="rgb(92,43,36)" fill-opacity="1" />
<path d="M 351.000000 499.000000 L 375.000000,463.000000 375.000000,517.000000 Z" fill="rgb(0,0,2)" fill-opacity="1" />
<path d="M 351.000000 499.000000 L 342.000000,487.000000 375.000000,463.000000 Z" fill="rgb(10,19,26)" fill-opacity="1" />
<path d="M 375.000000 463.000000 L 367.000000,447.000000 380.000000,446.000000 Z" fill="rgb(59,67,78)" fill-opacity="1" />
<path d="M 367.000000 431.000000 L 386.000000,429.000000 374.000000,436.000000 Z" fill="rgb(12,20,22)" fill-opacity="1" />
<path d="M 388.000000 536.000000 L 365.000000,522.000000 375.000000,517.000000 Z" fill="rgb(193,226,254)" fill-opacity="1" />
<path d="M 357.000000 542.000000 L 352.000000,521.000000 365.000000,522.000000 Z" fill="rgb(75,105,128)" fill-opacity="1" />
<path d="M 342.000000 487.000000 L 367.000000,447.000000 375.000000,463.000000 Z" fill="rgb(1,1,3)" fill-opacity="1" />
<path d="M 342.000000 487.000000 L 367.000000,431.000000 367.000000,447.000000 Z" fill="rgb(14,17,18)" fill-opacity="1" />
<path d="M 358.893756 596.181546 L 336.000000,548.000000 348.000000,546.000000 Z" fill="rgb(231,250,254)" fill-opacity="1" />
<path d="M 304.000000 578.000000 L 257.000000,490.000000 336.000000,548.000000 Z" fill="rgb(4,4,4)" fill-opacity="1" />
<path d="M 420.000000 584.000000 L 358.893756,596.181546 388.000000,536.000000 Z" fill="rgb(231,250,254)" fill-opacity="1" />
<path d="M 358.893756 596.181546 L 304.000000,578.000000 336.000000,548.000000 Z" fill="rgb(231,250,254)" fill-opacity="1" />
<path d="M 304.000000 578.000000 L 358.893756,596.181546 299.000000,597.000000 Z" fill="rgb(235,250,253)" fill-opacity="1" />
<path d="M 356.000000 546.000000 L 388.000000,536.000000 358.893756,596.181546 Z" fill="rgb(231,250,254)" fill-opacity="1" />
<path d="M 565.000000 648.000000 L 482.000000,671.000000 572.000000,625.000000 Z" fill="rgb(72,29,20)" fill-opacity="1" />
<path d="M 482.000000 671.000000 L 358.893756,596.181546 420.000000,584.000000 Z" fill="rgb(235,250,253)" fill-opacity="1" />
<path d="M 420.000000 584.000000 L 560.000000,523.000000 574.000000,594.000000 Z" fill="rgb(35,18,10)" fill-opacity="1" />
<path d="M 571.000000 534.000000 L 606.000000,518.000000 573.000000,544.000000 Z" fill="rgb(36,18,4)" fill-opacity="1" />
<path d="M 572.000000 625.000000 L 574.000000,594.000000 574.000000,621.000000 Z" fill="rgb(193,112,86)" fill-opacity="1" />
<path d="M 579.000000 575.000000 L 629.667070,588.445729 578.000000,596.000000 Z" fill="rgb(4,5,0)" fill-opacity="1" />
<path d="M 574.000000 594.000000 L 578.000000,596.000000 579.000000,600.000000 Z" fill="rgb(133,59,39)" fill-opacity="1" />
<path d="M 574.000000 594.000000 L 573.000000,544.000000 579.000000,575.000000 Z" fill="rgb(48,14,2)" fill-opacity="1" />
<path d="M 574.000000 594.000000 L 579.000000,575.000000 578.000000,596.000000 Z" fill="rgb(128,55,36)" fill-opacity="1" />
<path d="M 573.000000 544.000000 L 606.000000,518.000000 579.000000,575.000000 Z" fill="rgb(16,2,1)" fill-opacity="1" />
<path d="M 575.000000 705.000000 L 561.000000,675.000000 567.000000,651.000000 Z" fill="rgb(192,119,84)" fill-opacity="1" />
<path d="M 482.000000 671.000000 L 420.000000,584.000000 574.000000,594.000000 Z" fill="rgb(12,9,2)" fill-opacity="1" />
<path d="M 574.000000 594.000000 L 579.000000,600.000000 574.000000,621.000000 Z" fill="rgb(203,120,92)" fill-opacity="1" />
<path d="M 578.000000 596.000000 L 629.667070,588.445729 579.000000,600.000000 Z" fill="rgb(4,5,0)" fill-opacity="1" />
<path d="M 625.000000 517.000000 L 640.205631,601.030211 629.667070,588.445729 Z" fill="rgb(3,3,3)" fill-opacity="1" />
<path d="M 664.000000 625.000000 L 572.000000,625.000000 640.205631,601.030211 Z" fill="rgb(2,2,2)" fill-opacity="1" />
<path d="M 1002.000000 693.000000 L 883.000000,791.000000 689.000000,628.000000 Z" fill="rgb(234,247,253)" fill-opacity="1" />
<path d="M 609.000000 718.000000 L 858.000000,843.000000 684.000000,892.000000 Z" fill="rgb(234,247,253)" fill-opacity="1" />
<path d="M 561.000000 675.000000 L 552.000000,685.000000 565.000000,648.000000 Z" fill="rgb(135,47,17)" fill-opacity="1" />
<path d="M 497.000000 711.000000 L 373.636594,787.518860 482.000000,671.000000 Z" fill="rgb(233,248,253)" fill-opacity="1" />
<path d="M 574.000000 730.000000 L 554.000000,723.000000 563.000000,712.000000 Z" fill="rgb(192,117,91)" fill-opacity="1" />
<path d="M 552.000000 685.000000 L 482.000000,671.000000 565.000000,648.000000 Z" fill="rgb(114,56,42)" fill-opacity="1" />
<path d="M 609.000000 718.000000 L 575.000000,705.000000 567.000000,651.000000 Z" fill="rgb(8,4,1)" fill-opacity="1" />
<path d="M 560.000000 680.000000 L 552.000000,685.000000 561.000000,675.000000 Z" fill="rgb(230,134,95)" fill-opacity="1" />
<path d="M 567.000000 651.000000 L 565.000000,648.000000 572.000000,625.000000 Z" fill="rgb(157,85,52)" fill-opacity="1" />
<path d="M 567.000000 651.000000 L 561.000000,675.000000 565.000000,648.000000 Z" fill="rgb(230,146,113)" fill-opacity="1" />
<path d="M 90.000000 583.000000 L 72.000000,603.000000 70.000000,587.000000 Z" fill="rgb(90,107,127)" fill-opacity="1" />
<path d="M 115.000000 592.000000 L 84.958510,512.208576 191.000000,601.000000 Z" fill="rgb(233,249,249)" fill-opacity="1" />
<path d="M 83.521045 783.702849 L 91.568494,675.184545 191.326796,842.522786 Z" fill="rgb(232,247,254)" fill-opacity="1" />
<path d="M 38.000000 594.000000 L 3.000000,607.000000 21.000000,587.000000 Z" fill="rgb(35,33,36)" fill-opacity="1" />
<path d="M 191.326796 842.522786 L 91.568494,675.184545 191.000000,601.000000 Z" fill="rgb(232,247,254)" fill-opacity="1" />
<path d="M 91.568494 675.184545 L 72.000000,603.000000 115.000000,592.000000 Z" fill="rgb(16,22,22)" fill-opacity="1" />
<path d="M 191.326796 842.522786 L 191.000000,601.000000 197.000000,599.000000 Z" fill="rgb(230,245,252)" fill-opacity="1" />
<path d="M 145.889512 609.617913 L 115.000000,592.000000 191.000000,601.000000 Z" fill="rgb(22,28,30)" fill-opacity="1" />
<path d="M 54.000000 588.000000 L 70.000000,587.000000 72.000000,603.000000 Z" fill="rgb(58,75,91)" fill-opacity="1" />
<path d="M 54.000000 588.000000 L 56.000000,572.000000 67.000000,581.000000 Z" fill="rgb(118,131,157)" fill-opacity="1" />
<path d="M 72.000000 603.000000 L 90.000000,583.000000 115.000000,592.000000 Z" fill="rgb(85,100,121)" fill-opacity="1" />
<path d="M 67.000000 581.000000 L 56.000000,572.000000 90.000000,583.000000 Z" fill="rgb(109,124,152)" fill-opacity="1" />
<path d="M 91.568494 675.184545 L 115.000000,592.000000 145.889512,609.617913 Z" fill="rgb(43,50,51)" fill-opacity="1" />
<path d="M 90.000000 583.000000 L 84.958510,512.208576 115.000000,592.000000 Z" fill="rgb(233,249,249)" fill-opacity="1" />
<path d="M 299.000000 597.000000 L 197.000000,599.000000 304.000000,578.000000 Z" fill="rgb(54,50,49)" fill-opacity="1" />
<path d="M 191.000000 601.000000 L 84.958510,512.208576 197.000000,599.000000 Z" fill="rgb(223,242,249)" fill-opacity="1" />
<path d="M 0.000000 0.000000 L 7.641044,310.284115 2.000000,604.000000 Z" fill="rgb(230,247,254)" fill-opacity="1" />
<path d="M 2.000000 604.000000 L 7.641044,310.284115 3.000000,580.000000 Z" fill="rgb(229,246,253)" fill-opacity="1" />
<path d="M 56.000000 572.000000 L 20.000000,572.000000 6.000000,562.000000 Z" fill="rgb(126,137,161)" fill-opacity="1" />
<path d="M 3.000000 580.000000 L 7.641044,310.284115 6.000000,562.000000 Z" fill="rgb(230,247,254)" fill-opacity="1" />
<path d="M 84.958510 512.208576 L 56.000000,572.000000 6.000000,562.000000 Z" fill="rgb(233,248,253)" fill-opacity="1" />
<path d="M 56.000000 572.000000 L 38.000000,594.000000 20.000000,572.000000 Z" fill="rgb(101,117,140)" fill-opacity="1" />
<path d="M 90.000000 583.000000 L 56.000000,572.000000 84.958510,512.208576 Z" fill="rgb(233,248,253)" fill-opacity="1" />
<path d="M 54.000000 588.000000 L 38.000000,594.000000 56.000000,572.000000 Z" fill="rgb(68,80,102)" fill-opacity="1" />
<path d="M 20.000000 572.000000 L 21.000000,587.000000 3.000000,580.000000 Z" fill="rgb(71,76,105)" fill-opacity="1" />
<path d="M 20.000000 572.000000 L 38.000000,594.000000 21.000000,587.000000 Z" fill="rgb(102,118,141)" fill-opacity="1" />
<path d="M 70.000000 587.000000 L 67.000000,581.000000 90.000000,583.000000 Z" fill="rgb(148,164,189)" fill-opacity="1" />
<path d="M 70.000000 587.000000 L 54.000000,588.000000 67.000000,581.000000 Z" fill="rgb(57,74,94)" fill-opacity="1" />
<path d="M 83.521045 783.702849 L 36.000000,654.000000 91.568494,675.184545 Z" fill="rgb(232,247,254)" fill-opacity="1" />
<path d="M 9.000000 986.000000 L 7.000000,1000.000000 2.000000,604.000000 Z" fill="rgb(223,240,250)" fill-opacity="1" />
<path d="M 0.000000 0.000000 L 2.000000,604.000000 0.000000,1128.000000 Z" fill="rgb(151,157,177)" fill-opacity="1" />
<path d="M 3.000000 580.000000 L 21.000000,587.000000 2.000000,604.000000 Z" fill="rgb(55,52,61)" fill-opacity="1" />
<path d="M 21.000000 587.000000 L 3.000000,607.000000 2.000000,604.000000 Z" fill="rgb(35,33,36)" fill-opacity="1" />
<path d="M 36.000000 654.000000 L 36.000000,932.000000 3.000000,607.000000 Z" fill="rgb(227,244,251)" fill-opacity="1" />
<path d="M 87.991178 899.031219 L 83.521045,783.702849 191.326796,842.522786 Z" fill="rgb(230,244,253)" fill-opacity="1" />
<path d="M 87.991178 899.031219 L 36.000000,932.000000 83.521045,783.702849 Z" fill="rgb(229,243,254)" fill-opacity="1" />
<path d="M 213.000000 932.000000 L 205.000000,943.000000 191.326796,842.522786 Z" fill="rgb(230,245,252)" fill-opacity="1" />
<path d="M 50.000000 941.000000 L 36.000000,932.000000 87.991178,899.031219 Z" fill="rgb(229,243,254)" fill-opacity="1" />
<path d="M 386.333044 799.893466 L 446.952936,868.997860 427.455611,869.972877 Z" fill="rgb(233,246,252)" fill-opacity="1" />
<path d="M 530.481728 852.449960 L 542.000000,894.000000 446.952936,868.997860 Z" fill="rgb(232,250,254)" fill-opacity="1" />
<path d="M 386.333044 799.893466 L 499.000000,826.000000 446.952936,868.997860 Z" fill="rgb(233,246,252)" fill-opacity="1" />
<path d="M 497.000000 711.000000 L 554.000000,723.000000 562.000000,754.000000 Z" fill="rgb(39,14,7)" fill-opacity="1" />
<path d="M 575.000000 705.000000 L 551.000000,697.000000 560.000000,680.000000 Z" fill="rgb(234,155,117)" fill-opacity="1" />
<path d="M 497.000000 711.000000 L 482.000000,671.000000 552.000000,685.000000 Z" fill="rgb(33,23,13)" fill-opacity="1" />
<path d="M 551.000000 697.000000 L 552.000000,685.000000 560.000000,680.000000 Z" fill="rgb(240,148,112)" fill-opacity="1" />
<path d="M 551.000000 697.000000 L 497.000000,711.000000 552.000000,685.000000 Z" fill="rgb(116,66,55)" fill-opacity="1" />
<path d="M 576.000000 783.000000 L 565.000000,783.000000 579.000000,771.000000 Z" fill="rgb(83,57,60)" fill-opacity="1" />
<path d="M 497.000000 711.000000 L 551.000000,697.000000 554.000000,723.000000 Z" fill="rgb(80,43,34)" fill-opacity="1" />
<path d="M 530.481728 852.449960 L 557.000000,827.000000 557.000000,831.000000 Z" fill="rgb(7,6,4)" fill-opacity="1" />
<path d="M 562.000000 754.000000 L 554.000000,723.000000 574.000000,730.000000 Z" fill="rgb(176,109,98)" fill-opacity="1" />
<path d="M 219.000000 950.000000 L 217.000000,942.000000 227.000000,948.000000 Z" fill="rgb(211,216,134)" fill-opacity="1" />
<path d="M 323.000000 960.000000 L 357.000000,953.000000 347.000000,964.000000 Z" fill="rgb(254,237,165)" fill-opacity="1" />
<path d="M 279.000000 954.000000 L 227.000000,948.000000 213.000000,932.000000 Z" fill="rgb(191,194,123)" fill-opacity="1" />
<path d="M 217.000000 942.000000 L 213.000000,932.000000 227.000000,948.000000 Z" fill="rgb(166,180,93)" fill-opacity="1" />
<path d="M 170.000000 1057.000000 L 347.000000,964.000000 489.000000,963.000000 Z" fill="rgb(239,227,141)" fill-opacity="1" />
<path d="M 357.000000 953.000000 L 427.455611,869.972877 492.000000,939.000000 Z" fill="rgb(198,224,249)" fill-opacity="1" />
<path d="M 560.695500 947.906432 L 557.000000,933.000000 571.000000,930.000000 Z" fill="rgb(136,157,93)" fill-opacity="1" />
<path d="M 546.000000 932.000000 L 542.000000,894.000000 557.000000,933.000000 Z" fill="rgb(227,244,254)" fill-opacity="1" />
<path d="M 83.521045 783.702849 L 36.000000,932.000000 36.000000,654.000000 Z" fill="rgb(229,243,254)" fill-opacity="1" />
<path d="M 33.000000 979.000000 L 42.000000,958.000000 63.000000,1027.000000 Z" fill="rgb(192,197,104)" fill-opacity="1" />
<path d="M 87.991178 899.031219 L 88.000000,938.000000 50.000000,941.000000 Z" fill="rgb(229,243,254)" fill-opacity="1" />
<path d="M 87.991178 899.031219 L 191.326796,842.522786 205.000000,943.000000 Z" fill="rgb(232,247,254)" fill-opacity="1" />
<path d="M 88.000000 938.000000 L 205.000000,943.000000 127.000000,1008.000000 Z" fill="rgb(208,180,106)" fill-opacity="1" />
<path d="M 88.000000 938.000000 L 87.991178,899.031219 205.000000,943.000000 Z" fill="rgb(230,244,253)" fill-opacity="1" />
<path d="M 313.051813 863.745727 L 213.000000,932.000000 191.326796,842.522786 Z" fill="rgb(233,246,254)" fill-opacity="1" />
<path d="M 217.000000 942.000000 L 205.000000,943.000000 213.000000,932.000000 Z" fill="rgb(159,174,108)" fill-opacity="1" />
<path d="M 13.000000 967.000000 L 9.000000,986.000000 2.000000,604.000000 Z" fill="rgb(225,242,252)" fill-opacity="1" />
<path d="M 42.000000 958.000000 L 50.000000,941.000000 88.000000,938.000000 Z" fill="rgb(192,178,131)" fill-opacity="1" />
<path d="M 36.000000 932.000000 L 13.000000,967.000000 3.000000,607.000000 Z" fill="rgb(227,244,251)" fill-opacity="1" />
<path d="M 36.000000 932.000000 L 50.000000,941.000000 42.000000,958.000000 Z" fill="rgb(188,186,129)" fill-opacity="1" />
<path d="M 13.000000 967.000000 L 33.000000,979.000000 9.000000,986.000000 Z" fill="rgb(240,230,141)" fill-opacity="1" />
<path d="M 63.000000 1027.000000 L 88.000000,938.000000 127.000000,1008.000000 Z" fill="rgb(198,196,105)" fill-opacity="1" />
<path d="M 13.000000 967.000000 L 42.000000,958.000000 33.000000,979.000000 Z" fill="rgb(170,153,84)" fill-opacity="1" />
<path d="M 13.000000 967.000000 L 36.000000,932.000000 42.000000,958.000000 Z" fill="rgb(215,207,135)" fill-opacity="1" />
<path d="M 39.000000 1013.000000 L 0.000000,1128.000000 7.000000,1000.000000 Z" fill="rgb(228,211,124)" fill-opacity="1" />
<path d="M 871.486276 1086.126083 L 1174.000000,1034.000000 1409.000000,1126.000000 Z" fill="rgb(218,202,108)" fill-opacity="1" />
<path d="M 33.000000 979.000000 L 39.000000,1013.000000 7.000000,1000.000000 Z" fill="rgb(198,201,115)" fill-opacity="1" />
<path d="M 63.000000 1027.000000 L 0.000000,1128.000000 39.000000,1013.000000 Z" fill="rgb(205,189,94)" fill-opacity="1" />
<path d="M 33.000000 979.000000 L 63.000000,1027.000000 39.000000,1013.000000 Z" fill="rgb(156,161,70)" fill-opacity="1" />
<path d="M 127.000000 1008.000000 L 170.000000,1057.000000 63.000000,1027.000000 Z" fill="rgb(227,206,124)" fill-opacity="1" />
<path d="M 63.000000 1027.000000 L 170.000000,1057.000000 0.000000,1128.000000 Z" fill="rgb(228,203,114)" fill-opacity="1" />
<path d="M 543.000000 962.000000 L 492.000000,939.000000 546.000000,932.000000 Z" fill="rgb(185,203,120)" fill-opacity="1" />
<path d="M 127.000000 1008.000000 L 179.000000,1005.000000 170.000000,1057.000000 Z" fill="rgb(235,211,122)" fill-opacity="1" />
<path d="M 127.000000 1008.000000 L 205.000000,943.000000 179.000000,1005.000000 Z" fill="rgb(191,185,100)" fill-opacity="1" />
<path d="M 279.000000 954.000000 L 235.000000,964.000000 227.000000,948.000000 Z" fill="rgb(225,205,132)" fill-opacity="1" />
<path d="M 179.000000 1005.000000 L 205.000000,943.000000 219.000000,950.000000 Z" fill="rgb(211,204,117)" fill-opacity="1" />
<path d="M 235.000000 964.000000 L 279.000000,954.000000 170.000000,1057.000000 Z" fill="rgb(218,212,127)" fill-opacity="1" />
<path d="M 357.000000 953.000000 L 492.000000,939.000000 489.000000,963.000000 Z" fill="rgb(182,191,111)" fill-opacity="1" />
<path d="M 170.000000 1057.000000 L 489.000000,963.000000 621.000000,988.000000 Z" fill="rgb(222,206,122)" fill-opacity="1" />
<path d="M 347.000000 964.000000 L 357.000000,953.000000 489.000000,963.000000 Z" fill="rgb(190,172,91)" fill-opacity="1" />
<path d="M 489.000000 963.000000 L 543.000000,962.000000 621.000000,988.000000 Z" fill="rgb(232,205,127)" fill-opacity="1" />
<path d="M 489.000000 963.000000 L 492.000000,939.000000 543.000000,962.000000 Z" fill="rgb(200,202,106)" fill-opacity="1" />
<path d="M 357.000000 953.000000 L 323.000000,960.000000 313.051813,863.745727 Z" fill="rgb(232,247,254)" fill-opacity="1" />
<path d="M 347.000000 964.000000 L 170.000000,1057.000000 323.000000,960.000000 Z" fill="rgb(242,230,146)" fill-opacity="1" />
<path d="M 235.000000 964.000000 L 219.000000,950.000000 227.000000,948.000000 Z" fill="rgb(176,171,91)" fill-opacity="1" />
<path d="M 235.000000 964.000000 L 179.000000,1005.000000 219.000000,950.000000 Z" fill="rgb(185,189,106)" fill-opacity="1" />
<path d="M 293.000000 953.000000 L 279.000000,954.000000 313.051813,863.745727 Z" fill="rgb(233,246,254)" fill-opacity="1" />
<path d="M 323.000000 960.000000 L 170.000000,1057.000000 279.000000,954.000000 Z" fill="rgb(221,210,121)" fill-opacity="1" />
<path d="M 323.000000 960.000000 L 293.000000,953.000000 313.051813,863.745727 Z" fill="rgb(232,247,254)" fill-opacity="1" />
<path d="M 323.000000 960.000000 L 279.000000,954.000000 293.000000,953.000000 Z" fill="rgb(221,205,130)" fill-opacity="1" />
<path d="M 542.000000 894.000000 L 571.000000,930.000000 557.000000,933.000000 Z" fill="rgb(144,153,158)" fill-opacity="1" />
<path d="M 575.000000 846.000000 L 557.000000,831.000000 568.000000,826.000000 Z" fill="rgb(90,75,78)" fill-opacity="1" />
<path d="M 608.000000 937.000000 L 592.000000,928.000000 642.000000,908.000000 Z" fill="rgb(206,227,232)" fill-opacity="1" />
<path d="M 571.000000 930.000000 L 542.000000,894.000000 592.000000,928.000000 Z" fill="rgb(27,28,14)" fill-opacity="1" />
<path d="M 634.000000 942.000000 L 621.000000,988.000000 630.000000,944.000000 Z" fill="rgb(173,177,100)" fill-opacity="1" />
<path d="M 599.000000 952.000000 L 571.000000,930.000000 592.000000,928.000000 Z" fill="rgb(97,108,68)" fill-opacity="1" />
<path d="M 673.000000 933.000000 L 621.000000,988.000000 634.000000,942.000000 Z" fill="rgb(175,180,99)" fill-opacity="1" />
<path d="M 599.000000 952.000000 L 543.000000,962.000000 560.695500,947.906432 Z" fill="rgb(129,146,69)" fill-opacity="1" />
<path d="M 610.000000 938.000000 L 599.000000,952.000000 601.000000,939.000000 Z" fill="rgb(133,129,83)" fill-opacity="1" />
<path d="M 543.000000 962.000000 L 546.000000,932.000000 560.695500,947.906432 Z" fill="rgb(148,166,91)" fill-opacity="1" />
<path d="M 630.000000 944.000000 L 621.000000,988.000000 599.000000,952.000000 Z" fill="rgb(173,176,100)" fill-opacity="1" />
<path d="M 621.000000 988.000000 L 543.000000,962.000000 599.000000,952.000000 Z" fill="rgb(198,202,118)" fill-opacity="1" />
<path d="M 610.000000 938.000000 L 601.000000,939.000000 608.000000,937.000000 Z" fill="rgb(129,124,81)" fill-opacity="1" />
<path d="M 599.000000 952.000000 L 592.000000,928.000000 601.000000,939.000000 Z" fill="rgb(118,109,64)" fill-opacity="1" />
<path d="M 610.000000 938.000000 L 630.000000,944.000000 599.000000,952.000000 Z" fill="rgb(121,140,72)" fill-opacity="1" />
<path d="M 776.434569 1045.198876 L 170.000000,1057.000000 621.000000,988.000000 Z" fill="rgb(230,197,115)" fill-opacity="1" />
<path d="M 642.000000 908.000000 L 634.000000,942.000000 610.000000,938.000000 Z" fill="rgb(209,228,232)" fill-opacity="1" />
<path d="M 621.000000 988.000000 L 694.000000,933.000000 723.000000,946.000000 Z" fill="rgb(225,217,120)" fill-opacity="1" />
<path d="M 610.000000 938.000000 L 634.000000,942.000000 630.000000,944.000000 Z" fill="rgb(121,140,72)" fill-opacity="1" />
<path d="M 694.000000 933.000000 L 711.000000,933.000000 723.000000,946.000000 Z" fill="rgb(220,216,142)" fill-opacity="1" />
<path d="M 710.000000 926.000000 L 727.000000,932.000000 711.000000,933.000000 Z" fill="rgb(120,133,109)" fill-opacity="1" />
<path d="M 776.434569 1045.198876 L 621.000000,988.000000 723.000000,946.000000 Z" fill="rgb(251,216,134)" fill-opacity="1" />
<path d="M 727.000000 932.000000 L 776.434569,1045.198876 723.000000,946.000000 Z" fill="rgb(254,232,148)" fill-opacity="1" />
<path d="M 871.486276 1086.126083 L 170.000000,1057.000000 776.434569,1045.198876 Z" fill="rgb(221,215,120)" fill-opacity="1" />
<path d="M 673.000000 933.000000 L 694.000000,933.000000 621.000000,988.000000 Z" fill="rgb(225,217,120)" fill-opacity="1" />
<path d="M 673.000000 933.000000 L 688.000000,899.000000 694.000000,933.000000 Z" fill="rgb(30,30,1)" fill-opacity="1" />
<path d="M 655.000000 924.000000 L 673.000000,933.000000 634.000000,942.000000 Z" fill="rgb(189,212,156)" fill-opacity="1" />
<path d="M 666.000000 925.000000 L 688.000000,899.000000 673.000000,933.000000 Z" fill="rgb(51,52,36)" fill-opacity="1" />
<path d="M 575.000000 846.000000 L 642.000000,908.000000 592.000000,928.000000 Z" fill="rgb(236,250,254)" fill-opacity="1" />
<path d="M 655.000000 924.000000 L 634.000000,942.000000 642.000000,908.000000 Z" fill="rgb(212,227,222)" fill-opacity="1" />
<path d="M 655.000000 924.000000 L 666.000000,925.000000 673.000000,933.000000 Z" fill="rgb(185,204,158)" fill-opacity="1" />
<path d="M 655.000000 924.000000 L 642.000000,908.000000 666.000000,925.000000 Z" fill="rgb(2,6,5)" fill-opacity="1" />
<path d="M 711.000000 933.000000 L 727.000000,932.000000 723.000000,946.000000 Z" fill="rgb(121,137,94)" fill-opacity="1" />
<path d="M 710.000000 926.000000 L 688.000000,899.000000 727.000000,932.000000 Z" fill="rgb(71,83,81)" fill-opacity="1" />
<path d="M 576.000000 783.000000 L 596.000000,791.000000 583.000000,806.000000 Z" fill="rgb(16,8,5)" fill-opacity="1" />
<path d="M 602.000000 806.000000 L 684.000000,892.000000 642.000000,908.000000 Z" fill="rgb(25,25,27)" fill-opacity="1" />
<path d="M 583.000000 806.000000 L 596.000000,791.000000 602.000000,806.000000 Z" fill="rgb(37,33,34)" fill-opacity="1" />
<path d="M 594.000000 760.000000 L 609.000000,718.000000 602.000000,806.000000 Z" fill="rgb(170,174,177)" fill-opacity="1" />
<path d="M 583.000000 806.000000 L 602.000000,806.000000 584.000000,815.000000 Z" fill="rgb(60,48,50)" fill-opacity="1" />
<path d="M 596.000000 791.000000 L 594.000000,760.000000 602.000000,806.000000 Z" fill="rgb(170,174,177)" fill-opacity="1" />
<path d="M 609.000000 718.000000 L 684.000000,892.000000 602.000000,806.000000 Z" fill="rgb(234,247,253)" fill-opacity="1" />
<path d="M 858.000000 843.000000 L 689.000000,628.000000 883.000000,791.000000 Z" fill="rgb(234,247,253)" fill-opacity="1" />
<path d="M 557.000000 827.000000 L 568.000000,826.000000 557.000000,831.000000 Z" fill="rgb(87,69,73)" fill-opacity="1" />
<path d="M 584.000000 815.000000 L 602.000000,806.000000 575.000000,846.000000 Z" fill="rgb(55,47,45)" fill-opacity="1" />
<path d="M 542.000000 894.000000 L 575.000000,846.000000 592.000000,928.000000 Z" fill="rgb(24,18,20)" fill-opacity="1" />
<path d="M 568.000000 826.000000 L 584.000000,815.000000 575.000000,846.000000 Z" fill="rgb(1,0,0)" fill-opacity="1" />
<path d="M 596.000000 791.000000 L 576.000000,783.000000 579.000000,771.000000 Z" fill="rgb(17,8,3)" fill-opacity="1" />
<path d="M 574.000000 812.000000 L 557.000000,827.000000 565.000000,783.000000 Z" fill="rgb(68,52,53)" fill-opacity="1" />
<path d="M 574.000000 812.000000 L 583.000000,806.000000 584.000000,815.000000 Z" fill="rgb(50,39,37)" fill-opacity="1" />
<path d="M 574.000000 812.000000 L 576.000000,783.000000 583.000000,806.000000 Z" fill="rgb(74,69,65)" fill-opacity="1" />
<path d="M 565.000000 783.000000 L 562.000000,754.000000 575.000000,763.000000 Z" fill="rgb(100,66,65)" fill-opacity="1" />
<path d="M 499.000000 826.000000 L 497.000000,711.000000 562.000000,754.000000 Z" fill="rgb(11,5,5)" fill-opacity="1" />
<path d="M 591.000000 736.000000 L 574.000000,730.000000 587.000000,715.000000 Z" fill="rgb(141,104,95)" fill-opacity="1" />
<path d="M 554.000000 723.000000 L 551.000000,697.000000 563.000000,712.000000 Z" fill="rgb(160,93,72)" fill-opacity="1" />
<path d="M 574.000000 812.000000 L 565.000000,783.000000 576.000000,783.000000 Z" fill="rgb(74,69,65)" fill-opacity="1" />
<path d="M 499.000000 826.000000 L 562.000000,754.000000 565.000000,783.000000 Z" fill="rgb(8,7,3)" fill-opacity="1" />
<path d="M 575.000000 705.000000 L 574.000000,730.000000 563.000000,712.000000 Z" fill="rgb(87,40,22)" fill-opacity="1" />
<path d="M 591.000000 736.000000 L 575.000000,763.000000 574.000000,730.000000 Z" fill="rgb(36,27,12)" fill-opacity="1" />
<path d="M 587.000000 715.000000 L 575.000000,705.000000 609.000000,718.000000 Z" fill="rgb(122,94,83)" fill-opacity="1" />
<path d="M 563.000000 712.000000 L 551.000000,697.000000 575.000000,705.000000 Z" fill="rgb(215,141,105)" fill-opacity="1" />
<path d="M 565.000000 783.000000 L 575.000000,763.000000 579.000000,771.000000 Z" fill="rgb(92,66,67)" fill-opacity="1" />
<path d="M 562.000000 754.000000 L 574.000000,730.000000 575.000000,763.000000 Z" fill="rgb(38,9,1)" fill-opacity="1" />
<path d="M 609.000000 718.000000 L 594.000000,760.000000 594.000000,753.000000 Z" fill="rgb(133,83,79)" fill-opacity="1" />
<path d="M 596.000000 791.000000 L 579.000000,771.000000 594.000000,760.000000 Z" fill="rgb(30,24,28)" fill-opacity="1" />
<path d="M 591.000000 736.000000 L 587.000000,715.000000 609.000000,718.000000 Z" fill="rgb(129,74,59)" fill-opacity="1" />
<path d="M 574.000000 730.000000 L 575.000000,705.000000 587.000000,715.000000 Z" fill="rgb(54,30,30)" fill-opacity="1" />
<path d="M 594.000000 753.000000 L 591.000000,736.000000 609.000000,718.000000 Z" fill="rgb(133,83,79)" fill-opacity="1" />
<path d="M 594.000000 753.000000 L 575.000000,763.000000 591.000000,736.000000 Z" fill="rgb(54,27,18)" fill-opacity="1" />
<path d="M 892.000000 814.000000 L 883.000000,791.000000 904.000000,794.000000 Z" fill="rgb(224,179,156)" fill-opacity="1" />
<path d="M 858.000000 843.000000 L 609.000000,718.000000 689.000000,628.000000 Z" fill="rgb(233,246,252)" fill-opacity="1" />
<path d="M 1002.000000 693.000000 L 1003.691508,766.178268 955.000000,802.000000 Z" fill="rgb(234,249,252)" fill-opacity="1" />
<path d="M 858.000000 843.000000 L 727.000000,932.000000 684.000000,892.000000 Z" fill="rgb(233,247,250)" fill-opacity="1" />
<path d="M 904.000000 794.000000 L 925.000000,808.000000 892.000000,814.000000 Z" fill="rgb(37,27,28)" fill-opacity="1" />
<path d="M 909.000000 849.000000 L 889.000000,840.000000 891.000000,816.000000 Z" fill="rgb(26,26,24)" fill-opacity="1" />
<path d="M 904.000000 794.000000 L 955.000000,802.000000 925.000000,808.000000 Z" fill="rgb(222,242,249)" fill-opacity="1" />
<path d="M 1048.000000 774.000000 L 1099.000000,778.000000 1075.000000,816.000000 Z" fill="rgb(7,3,2)" fill-opacity="1" />
<path d="M 1075.000000 816.000000 L 993.000000,807.000000 1048.000000,774.000000 Z" fill="rgb(1,7,5)" fill-opacity="1" />
<path d="M 1159.000000 1004.000000 L 1148.000000,988.000000 1160.000000,995.000000 Z" fill="rgb(175,159,75)" fill-opacity="1" />
<path d="M 993.000000 807.000000 L 1003.691508,766.178268 1048.000000,774.000000 Z" fill="rgb(239,248,254)" fill-opacity="1" />
<path d="M 993.000000 807.000000 L 955.000000,802.000000 1003.691508,766.178268 Z" fill="rgb(233,247,251)" fill-opacity="1" />
<path d="M 1048.000000 774.000000 L 1037.000000,723.000000 1068.000000,701.000000 Z" fill="rgb(11,6,0)" fill-opacity="1" />
<path d="M 1048.000000 774.000000 L 1003.691508,766.178268 1037.000000,723.000000 Z" fill="rgb(229,244,249)" fill-opacity="1" />
<path d="M 1048.000000 774.000000 L 1068.000000,701.000000 1099.000000,778.000000 Z" fill="rgb(3,3,3)" fill-opacity="1" />
<path d="M 1101.000000 615.000000 L 1068.000000,701.000000 1046.000000,603.000000 Z" fill="rgb(63,35,31)" fill-opacity="1" />
<path d="M 1142.000000 863.000000 L 1127.000000,881.000000 1075.000000,816.000000 Z" fill="rgb(234,250,250)" fill-opacity="1" />
<path d="M 1127.000000 881.000000 L 1029.000000,953.000000 1075.000000,816.000000 Z" fill="rgb(233,246,252)" fill-opacity="1" />
<path d="M 1142.000000 863.000000 L 1166.000000,829.000000 1165.000000,847.000000 Z" fill="rgb(235,254,254)" fill-opacity="1" />
<path d="M 1166.000000 829.000000 L 1174.000000,819.000000 1207.000000,846.000000 Z" fill="rgb(2,8,8)" fill-opacity="1" />
<path d="M 1211.000000 745.000000 L 1174.000000,819.000000 1177.000000,742.000000 Z" fill="rgb(42,47,51)" fill-opacity="1" />
<path d="M 1165.000000 847.000000 L 1158.000000,858.000000 1142.000000,863.000000 Z" fill="rgb(219,239,240)" fill-opacity="1" />
<path d="M 1238.699295 768.823334 L 1174.000000,819.000000 1211.000000,745.000000 Z" fill="rgb(49,37,41)" fill-opacity="1" />
<path d="M 1166.000000 829.000000 L 1101.300714,794.329466 1174.000000,819.000000 Z" fill="rgb(234,248,251)" fill-opacity="1" />
<path d="M 925.000000 808.000000 L 909.000000,849.000000 891.000000,816.000000 Z" fill="rgb(33,29,26)" fill-opacity="1" />
<path d="M 776.434569 1045.198876 L 727.000000,932.000000 858.000000,843.000000 Z" fill="rgb(189,214,124)" fill-opacity="1" />
<path d="M 955.000000 802.000000 L 961.000000,852.000000 925.000000,808.000000 Z" fill="rgb(5,10,6)" fill-opacity="1" />
<path d="M 909.000000 849.000000 L 858.000000,843.000000 889.000000,840.000000 Z" fill="rgb(233,246,252)" fill-opacity="1" />
<path d="M 925.000000 808.000000 L 891.000000,816.000000 892.000000,814.000000 Z" fill="rgb(37,27,28)" fill-opacity="1" />
<path d="M 889.000000 840.000000 L 858.000000,843.000000 891.000000,816.000000 Z" fill="rgb(172,135,109)" fill-opacity="1" />
<path d="M 1075.000000 816.000000 L 983.000000,842.000000 993.000000,807.000000 Z" fill="rgb(5,10,6)" fill-opacity="1" />
<path d="M 1029.000000 953.000000 L 871.486276,1086.126083 909.000000,849.000000 Z" fill="rgb(198,211,117)" fill-opacity="1" />
<path d="M 961.000000 852.000000 L 909.000000,849.000000 925.000000,808.000000 Z" fill="rgb(10,15,11)" fill-opacity="1" />
<path d="M 871.486276 1086.126083 L 858.000000,843.000000 909.000000,849.000000 Z" fill="rgb(206,231,227)" fill-opacity="1" />
<path d="M 1075.000000 816.000000 L 1029.000000,953.000000 983.000000,842.000000 Z" fill="rgb(232,245,250)" fill-opacity="1" />
<path d="M 1029.000000 953.000000 L 909.000000,849.000000 961.000000,852.000000 Z" fill="rgb(223,240,247)" fill-opacity="1" />
<path d="M 1145.000000 880.000000 L 1127.000000,881.000000 1142.000000,863.000000 Z" fill="rgb(206,163,146)" fill-opacity="1" />
<path d="M 1136.000000 934.000000 L 1151.200621,969.027352 1081.000000,963.000000 Z" fill="rgb(220,213,126)" fill-opacity="1" />
<path d="M 1127.000000 881.000000 L 1130.000000,899.000000 1029.000000,953.000000 Z" fill="rgb(232,245,251)" fill-opacity="1" />
<path d="M 1127.000000 881.000000 L 1145.000000,880.000000 1130.000000,899.000000 Z" fill="rgb(128,99,89)" fill-opacity="1" />
<path d="M 983.000000 842.000000 L 1029.000000,953.000000 961.000000,852.000000 Z" fill="rgb(232,245,251)" fill-opacity="1" />
<path d="M 1115.000000 1002.000000 L 1174.000000,1034.000000 871.486276,1086.126083 Z" fill="rgb(206,190,103)" fill-opacity="1" />
<path d="M 1130.000000 899.000000 L 1081.000000,963.000000 1029.000000,953.000000 Z" fill="rgb(204,225,184)" fill-opacity="1" />
<path d="M 1151.200621 969.027352 L 1150.000000,917.000000 1170.000000,973.000000 Z" fill="rgb(180,194,100)" fill-opacity="1" />
<path d="M 1029.000000 953.000000 L 1115.000000,1002.000000 871.486276,1086.126083 Z" fill="rgb(232,197,114)" fill-opacity="1" />
<path d="M 1081.000000 963.000000 L 1151.200621,969.027352 1115.000000,1002.000000 Z" fill="rgb(172,169,85)" fill-opacity="1" />
<path d="M 1130.000000 899.000000 L 1131.000000,918.000000 1081.000000,963.000000 Z" fill="rgb(223,246,252)" fill-opacity="1" />
<path d="M 1134.000000 916.000000 L 1150.000000,917.000000 1136.000000,934.000000 Z" fill="rgb(177,134,116)" fill-opacity="1" />
<path d="M 1157.000000 980.000000 L 1151.200621,969.027352 1170.000000,973.000000 Z" fill="rgb(158,161,81)" fill-opacity="1" />
<path d="M 1148.000000 988.000000 L 1115.000000,1002.000000 1151.200621,969.027352 Z" fill="rgb(199,186,100)" fill-opacity="1" />
<path d="M 1164.000000 985.000000 L 1157.000000,980.000000 1170.000000,973.000000 Z" fill="rgb(191,197,112)" fill-opacity="1" />
<path d="M 1148.000000 988.000000 L 1151.200621,969.027352 1157.000000,980.000000 Z" fill="rgb(190,194,108)" fill-opacity="1" />
<path d="M 1115.000000 1002.000000 L 1159.000000,1004.000000 1174.000000,1034.000000 Z" fill="rgb(232,208,121)" fill-opacity="1" />
<path d="M 1115.000000 1002.000000 L 1148.000000,988.000000 1159.000000,1004.000000 Z" fill="rgb(246,224,138)" fill-opacity="1" />
<path d="M 1191.205545 981.836329 L 1164.000000,985.000000 1170.000000,973.000000 Z" fill="rgb(200,211,117)" fill-opacity="1" />
<path d="M 1160.000000 995.000000 L 1157.000000,980.000000 1164.000000,985.000000 Z" fill="rgb(146,143,65)" fill-opacity="1" />
<path d="M 1131.000000 918.000000 L 1136.000000,934.000000 1081.000000,963.000000 Z" fill="rgb(203,222,177)" fill-opacity="1" />
<path d="M 1131.000000 918.000000 L 1134.000000,916.000000 1136.000000,934.000000 Z" fill="rgb(180,144,123)" fill-opacity="1" />
<path d="M 1130.000000 899.000000 L 1134.000000,916.000000 1131.000000,918.000000 Z" fill="rgb(205,184,174)" fill-opacity="1" />
<path d="M 1130.000000 899.000000 L 1150.000000,917.000000 1134.000000,916.000000 Z" fill="rgb(198,162,146)" fill-opacity="1" />
<path d="M 1166.000000 829.000000 L 1142.000000,863.000000 1100.718131,795.749258 Z" fill="rgb(233,248,251)" fill-opacity="1" />
<path d="M 1158.000000 858.000000 L 1163.000000,858.000000 1145.000000,880.000000 Z" fill="rgb(39,33,33)" fill-opacity="1" />
<path d="M 1158.000000 858.000000 L 1145.000000,880.000000 1142.000000,863.000000 Z" fill="rgb(104,90,81)" fill-opacity="1" />
<path d="M 1165.000000 902.000000 L 1130.000000,899.000000 1145.000000,880.000000 Z" fill="rgb(235,199,161)" fill-opacity="1" />
<path d="M 1145.000000 880.000000 L 1163.000000,858.000000 1165.000000,902.000000 Z" fill="rgb(61,51,42)" fill-opacity="1" />
<path d="M 1158.000000 858.000000 L 1165.000000,847.000000 1163.000000,858.000000 Z" fill="rgb(2,12,13)" fill-opacity="1" />
<path d="M 1159.000000 1004.000000 L 1191.205545,981.836329 1204.000000,990.000000 Z" fill="rgb(198,188,102)" fill-opacity="1" />
<path d="M 1191.205545 981.836329 L 1165.000000,902.000000 1221.000000,983.000000 Z" fill="rgb(201,210,102)" fill-opacity="1" />
<path d="M 1331.000000 1011.000000 L 1282.573786,995.127514 1352.000000,980.000000 Z" fill="rgb(163,156,73)" fill-opacity="1" />
<path d="M 1220.000000 993.000000 L 1221.000000,983.000000 1282.573786,995.127514 Z" fill="rgb(233,212,122)" fill-opacity="1" />
<path d="M 1413.000000 997.000000 L 1384.000000,996.000000 1405.000000,961.000000 Z" fill="rgb(235,210,121)" fill-opacity="1" />
<path d="M 1331.000000 1011.000000 L 1431.000000,1076.000000 1409.000000,1126.000000 Z" fill="rgb(185,196,93)" fill-opacity="1" />
<path d="M 1450.000000 999.000000 L 1458.000000,1017.000000 1436.000000,1008.000000 Z" fill="rgb(254,229,145)" fill-opacity="1" />
<path d="M 1410.000000 1011.000000 L 1384.000000,996.000000 1413.000000,997.000000 Z" fill="rgb(251,224,145)" fill-opacity="1" />
<path d="M 1409.000000 1126.000000 L 1294.711879,1030.479225 1331.000000,1011.000000 Z" fill="rgb(247,231,146)" fill-opacity="1" />
<path d="M 1174.000000 1034.000000 L 1220.000000,993.000000 1294.711879,1030.479225 Z" fill="rgb(236,209,123)" fill-opacity="1" />
<path d="M 1384.000000 996.000000 L 1331.000000,1011.000000 1374.000000,991.000000 Z" fill="rgb(249,226,132)" fill-opacity="1" />
<path d="M 1294.711879 1030.479225 L 1282.573786,995.127514 1331.000000,1011.000000 Z" fill="rgb(254,234,149)" fill-opacity="1" />
<path d="M 871.486276 1086.126083 L 1409.000000,1126.000000 0.000000,1128.000000 Z" fill="rgb(254,233,157)" fill-opacity="1" />
<path d="M 1418.000000 1125.000000 L 1504.000000,1128.000000 1409.000000,1126.000000 Z" fill="rgb(167,167,167)" fill-opacity="1" />
<path d="M 1417.000000 998.000000 L 1436.000000,1008.000000 1410.000000,1011.000000 Z" fill="rgb(210,179,98)" fill-opacity="1" />
<path d="M 1431.000000 1076.000000 L 1331.000000,1011.000000 1410.000000,1011.000000 Z" fill="rgb(223,213,129)" fill-opacity="1" />
<path d="M 1466.000000 1007.000000 L 1458.000000,1017.000000 1450.000000,999.000000 Z" fill="rgb(162,145,58)" fill-opacity="1" />
<path d="M 1431.000000 1076.000000 L 1410.000000,1011.000000 1436.000000,1008.000000 Z" fill="rgb(248,227,134)" fill-opacity="1" />
<path d="M 1430.000000 1099.000000 L 1443.000000,1108.000000 1418.000000,1125.000000 Z" fill="rgb(131,120,44)" fill-opacity="1" />
<path d="M 1430.000000 1099.000000 L 1431.000000,1076.000000 1443.000000,1108.000000 Z" fill="rgb(207,189,97)" fill-opacity="1" />
<path d="M 1498.000000 986.000000 L 1472.000000,1055.000000 1466.000000,1007.000000 Z" fill="rgb(173,152,70)" fill-opacity="1" />
<path d="M 1472.000000 1055.000000 L 1431.000000,1076.000000 1458.000000,1017.000000 Z" fill="rgb(231,217,128)" fill-opacity="1" />
<path d="M 1466.000000 1007.000000 L 1472.000000,1055.000000 1458.000000,1017.000000 Z" fill="rgb(201,189,104)" fill-opacity="1" />
<path d="M 1504.000000 1128.000000 L 1443.000000,1108.000000 1472.000000,1055.000000 Z" fill="rgb(152,159,64)" fill-opacity="1" />
<path d="M 1424.000000 979.000000 L 1417.000000,998.000000 1413.000000,997.000000 Z" fill="rgb(254,243,158)" fill-opacity="1" />
<path d="M 1424.000000 979.000000 L 1445.000000,987.000000 1417.000000,998.000000 Z" fill="rgb(193,178,98)" fill-opacity="1" />
<path d="M 1470.000000 974.000000 L 1469.000000,993.000000 1445.000000,987.000000 Z" fill="rgb(155,154,65)" fill-opacity="1" />
<path d="M 1469.000000 993.000000 L 1482.000000,978.000000 1498.000000,986.000000 Z" fill="rgb(189,180,88)" fill-opacity="1" />
<path d="M 1469.000000 993.000000 L 1466.000000,1007.000000 1450.000000,999.000000 Z" fill="rgb(151,141,55)" fill-opacity="1" />
<path d="M 1469.000000 993.000000 L 1498.000000,986.000000 1466.000000,1007.000000 Z" fill="rgb(153,132,52)" fill-opacity="1" />
<path d="M 1445.000000 987.000000 L 1469.000000,993.000000 1450.000000,999.000000 Z" fill="rgb(155,154,65)" fill-opacity="1" />
<path d="M 1482.000000 978.000000 L 1503.000000,961.000000 1498.000000,986.000000 Z" fill="rgb(243,229,140)" fill-opacity="1" />
<path d="M 1436.000000 1008.000000 L 1445.000000,987.000000 1450.000000,999.000000 Z" fill="rgb(142,121,38)" fill-opacity="1" />
<path d="M 1424.000000 979.000000 L 1405.000000,961.000000 1414.000000,957.000000 Z" fill="rgb(177,169,89)" fill-opacity="1" />
<path d="M 1424.000000 979.000000 L 1414.000000,957.000000 1417.000000,948.000000 Z" fill="rgb(185,179,96)" fill-opacity="1" />
<path d="M 1488.000000 957.000000 L 1503.000000,961.000000 1482.000000,978.000000 Z" fill="rgb(243,229,141)" fill-opacity="1" />
<path d="M 1470.000000 974.000000 L 1482.000000,978.000000 1469.000000,993.000000 Z" fill="rgb(202,195,106)" fill-opacity="1" />
<path d="M 1470.000000 974.000000 L 1488.000000,957.000000 1482.000000,978.000000 Z" fill="rgb(208,192,105)" fill-opacity="1" />
<path d="M 1504.000000 1128.000000 L 1498.000000,986.000000 1503.000000,961.000000 Z" fill="rgb(200,199,175)" fill-opacity="1" />
<path d="M 1504.000000 1128.000000 L 1472.000000,1055.000000 1498.000000,986.000000 Z" fill="rgb(138,143,64)" fill-opacity="1" />
<path d="M 1165.000000 902.000000 L 1191.205545,981.836329 1170.000000,973.000000 Z" fill="rgb(200,202,104)" fill-opacity="1" />
<path d="M 1204.000000 990.000000 L 1174.000000,1034.000000 1159.000000,1004.000000 Z" fill="rgb(239,220,136)" fill-opacity="1" />
<path d="M 1221.000000 983.000000 L 1204.000000,990.000000 1191.205545,981.836329 Z" fill="rgb(207,206,114)" fill-opacity="1" />
<path d="M 1220.000000 993.000000 L 1174.000000,1034.000000 1204.000000,990.000000 Z" fill="rgb(253,229,141)" fill-opacity="1" />
<path d="M 1204.000000 990.000000 L 1221.000000,983.000000 1220.000000,993.000000 Z" fill="rgb(224,219,126)" fill-opacity="1" />
<path d="M 1165.000000 902.000000 L 1185.000000,864.000000 1221.000000,983.000000 Z" fill="rgb(228,242,251)" fill-opacity="1" />
<path d="M 1464.000000 950.000000 L 1445.000000,987.000000 1424.000000,979.000000 Z" fill="rgb(214,207,117)" fill-opacity="1" />
<path d="M 1405.000000 961.000000 L 1352.000000,980.000000 1417.000000,948.000000 Z" fill="rgb(224,210,122)" fill-opacity="1" />
<path d="M 1163.000000 858.000000 L 1185.000000,864.000000 1165.000000,902.000000 Z" fill="rgb(61,51,42)" fill-opacity="1" />
<path d="M 1163.000000 858.000000 L 1165.000000,847.000000 1185.000000,864.000000 Z" fill="rgb(2,12,13)" fill-opacity="1" />
<path d="M 1221.000000 983.000000 L 1207.000000,846.000000 1298.870339,842.934088 Z" fill="rgb(230,242,254)" fill-opacity="1" />
<path d="M 1185.000000 864.000000 L 1165.000000,847.000000 1207.000000,846.000000 Z" fill="rgb(8,8,5)" fill-opacity="1" />
<path d="M 1177.000000 742.000000 L 1216.000000,721.000000 1211.000000,745.000000 Z" fill="rgb(30,24,24)" fill-opacity="1" />
<path d="M 1184.288211 333.725122 L 1119.000000,417.000000 1107.000000,417.000000 Z" fill="rgb(111,52,34)" fill-opacity="1" />
<path d="M 1207.000000 846.000000 L 1238.195814,804.910277 1298.870339,842.934088 Z" fill="rgb(230,245,250)" fill-opacity="1" />
<path d="M 1207.000000 846.000000 L 1174.000000,819.000000 1238.195814,804.910277 Z" fill="rgb(49,37,41)" fill-opacity="1" />
<path d="M 1174.000000 819.000000 L 1238.699295,768.823334 1238.195814,804.910277 Z" fill="rgb(232,248,248)" fill-opacity="1" />
<path d="M 1361.000000 441.000000 L 1340.000000,429.000000 1337.000000,417.000000 Z" fill="rgb(61,59,62)" fill-opacity="1" />
<path d="M 1470.000000 974.000000 L 1445.000000,987.000000 1464.000000,950.000000 Z" fill="rgb(171,176,83)" fill-opacity="1" />
<path d="M 1414.000000 957.000000 L 1405.000000,961.000000 1417.000000,948.000000 Z" fill="rgb(239,236,143)" fill-opacity="1" />
<path d="M 1470.000000 974.000000 L 1464.000000,950.000000 1488.000000,957.000000 Z" fill="rgb(246,233,139)" fill-opacity="1" />
<path d="M 1417.000000 948.000000 L 1298.870339,842.934088 1469.000000,929.000000 Z" fill="rgb(230,244,253)" fill-opacity="1" />
<path d="M 1417.000000 948.000000 L 1469.000000,929.000000 1464.000000,950.000000 Z" fill="rgb(184,189,106)" fill-opacity="1" />
<path d="M 1298.870339 842.934088 L 1488.282428,715.453527 1469.000000,929.000000 Z" fill="rgb(232,245,253)" fill-opacity="1" />
<path d="M 1469.000000 929.000000 L 1488.282428,715.453527 1503.000000,961.000000 Z" fill="rgb(228,245,252)" fill-opacity="1" />
<path d="M 1481.240919 650.391810 L 1504.000000,0.000000 1488.282428,715.453527 Z" fill="rgb(228,245,252)" fill-opacity="1" />
<path d="M 1216.000000 721.000000 L 1337.872319,482.078289 1481.240919,650.391810 Z" fill="rgb(232,245,253)" fill-opacity="1" />
<path d="M 1084.000000 526.000000 L 1074.000000,534.000000 998.000000,497.000000 Z" fill="rgb(118,58,47)" fill-opacity="1" />
<path d="M 1481.240919 650.391810 L 1361.000000,441.000000 1401.000000,408.000000 Z" fill="rgb(230,245,252)" fill-opacity="1" />
<path d="M 1337.872319 482.078289 L 1340.000000,429.000000 1361.000000,441.000000 Z" fill="rgb(233,246,252)" fill-opacity="1" />
<path d="M 1361.000000 441.000000 L 1399.000000,408.000000 1401.000000,408.000000 Z" fill="rgb(71,49,51)" fill-opacity="1" />
<path d="M 1361.000000 441.000000 L 1348.000000,397.000000 1399.000000,408.000000 Z" fill="rgb(110,92,92)" fill-opacity="1" />
<path d="M 1238.699295 768.823334 L 1481.240919,650.391810 1488.282428,715.453527 Z" fill="rgb(232,245,253)" fill-opacity="1" />
<path d="M 1408.000000 399.000000 L 1338.000000,255.000000 1504.000000,0.000000 Z" fill="rgb(229,246,253)" fill-opacity="1" />
<path d="M 1337.000000 417.000000 L 1226.000000,350.000000 1305.000000,346.000000 Z" fill="rgb(59,25,15)" fill-opacity="1" />
<path d="M 1211.000000 349.000000 L 1184.288211,333.725122 1270.719604,302.058807 Z" fill="rgb(31,11,4)" fill-opacity="1" />
<path d="M 1337.000000 417.000000 L 1305.000000,346.000000 1348.000000,397.000000 Z" fill="rgb(95,66,60)" fill-opacity="1" />
<path d="M 1270.719604 302.058807 L 1305.000000,264.000000 1315.000000,341.000000 Z" fill="rgb(64,30,20)" fill-opacity="1" />
<path d="M 1305.000000 346.000000 L 1315.000000,341.000000 1348.000000,397.000000 Z" fill="rgb(95,66,60)" fill-opacity="1" />
<path d="M 1305.000000 346.000000 L 1270.719604,302.058807 1315.000000,341.000000 Z" fill="rgb(64,30,20)" fill-opacity="1" />
<path d="M 1401.000000 408.000000 L 1408.000000,399.000000 1481.240919,650.391810 Z" fill="rgb(228,245,252)" fill-opacity="1" />
<path d="M 1401.000000 408.000000 L 1399.000000,408.000000 1408.000000,399.000000 Z" fill="rgb(76,64,64)" fill-opacity="1" />
<path d="M 1226.000000 350.000000 L 1168.712983,450.820261 1181.000000,377.000000 Z" fill="rgb(238,250,248)" fill-opacity="1" />
<path d="M 1126.000000 466.000000 L 1084.000000,526.000000 1107.000000,417.000000 Z" fill="rgb(143,62,51)" fill-opacity="1" />
<path d="M 1189.600439 527.093459 L 1119.000000,563.000000 1124.000000,545.000000 Z" fill="rgb(233,246,252)" fill-opacity="1" />
<path d="M 1126.000000 466.000000 L 1119.000000,417.000000 1168.712983,450.820261 Z" fill="rgb(70,28,12)" fill-opacity="1" />
<path d="M 1226.000000 350.000000 L 1181.000000,377.000000 1211.000000,349.000000 Z" fill="rgb(235,251,250)" fill-opacity="1" />
<path d="M 1168.712983 450.820261 L 1119.000000,417.000000 1181.000000,377.000000 Z" fill="rgb(70,28,12)" fill-opacity="1" />
<path d="M 1181.000000 377.000000 L 1184.288211,333.725122 1211.000000,349.000000 Z" fill="rgb(29,29,21)" fill-opacity="1" />
<path d="M 1181.000000 377.000000 L 1119.000000,417.000000 1184.288211,333.725122 Z" fill="rgb(111,52,34)" fill-opacity="1" />
<path d="M 1189.600439 527.093459 L 1216.000000,721.000000 1101.000000,615.000000 Z" fill="rgb(233,246,252)" fill-opacity="1" />
<path d="M 1115.000000 703.000000 L 1177.000000,742.000000 1099.000000,778.000000 Z" fill="rgb(233,247,250)" fill-opacity="1" />
<path d="M 1337.872319 482.078289 L 1189.600439,527.093459 1168.712983,450.820261 Z" fill="rgb(234,248,251)" fill-opacity="1" />
<path d="M 1119.000000 563.000000 L 1074.000000,534.000000 1084.000000,526.000000 Z" fill="rgb(199,131,113)" fill-opacity="1" />
<path d="M 1189.600439 527.093459 L 1126.000000,466.000000 1168.712983,450.820261 Z" fill="rgb(234,248,251)" fill-opacity="1" />
<path d="M 1084.000000 526.000000 L 998.000000,497.000000 1107.000000,417.000000 Z" fill="rgb(147,77,57)" fill-opacity="1" />
<path d="M 1114.323081 523.294985 L 1189.600439,527.093459 1124.000000,545.000000 Z" fill="rgb(234,248,251)" fill-opacity="1" />
<path d="M 1337.872319 482.078289 L 1216.000000,721.000000 1189.600439,527.093459 Z" fill="rgb(233,246,252)" fill-opacity="1" />
<path d="M 1119.000000 563.000000 L 1076.000000,594.000000 1060.000000,580.000000 Z" fill="rgb(86,30,15)" fill-opacity="1" />
<path d="M 1112.000000 702.000000 L 1115.000000,703.000000 1099.000000,778.000000 Z" fill="rgb(237,250,254)" fill-opacity="1" />
<path d="M 1119.000000 563.000000 L 1101.000000,615.000000 1076.000000,594.000000 Z" fill="rgb(105,45,21)" fill-opacity="1" />
<path d="M 1119.000000 563.000000 L 1189.600439,527.093459 1101.000000,615.000000 Z" fill="rgb(230,246,253)" fill-opacity="1" />
<path d="M 1068.000000 701.000000 L 1112.000000,702.000000 1099.000000,778.000000 Z" fill="rgb(237,250,254)" fill-opacity="1" />
<path d="M 1101.000000 615.000000 L 1216.000000,721.000000 1115.000000,703.000000 Z" fill="rgb(12,8,7)" fill-opacity="1" />
<path d="M 1101.000000 615.000000 L 1115.000000,703.000000 1112.000000,702.000000 Z" fill="rgb(14,8,8)" fill-opacity="1" />
<path d="M 1216.000000 721.000000 L 1177.000000,742.000000 1115.000000,703.000000 Z" fill="rgb(4,6,3)" fill-opacity="1" />
<path d="M 943.000000 440.000000 L 998.000000,497.000000 825.000000,467.000000 Z" fill="rgb(84,33,14)" fill-opacity="1" />
<path d="M 1007.000000 691.000000 L 1037.000000,723.000000 1002.000000,693.000000 Z" fill="rgb(154,125,114)" fill-opacity="1" />
<path d="M 825.000000 467.000000 L 998.000000,497.000000 1002.000000,693.000000 Z" fill="rgb(72,36,24)" fill-opacity="1" />
<path d="M 1061.000000 595.000000 L 1076.000000,594.000000 1101.000000,615.000000 Z" fill="rgb(50,14,2)" fill-opacity="1" />
<path d="M 1060.000000 580.000000 L 1061.000000,595.000000 1046.000000,603.000000 Z" fill="rgb(179,125,105)" fill-opacity="1" />
<path d="M 1060.000000 580.000000 L 1076.000000,594.000000 1061.000000,595.000000 Z" fill="rgb(169,103,87)" fill-opacity="1" />
<path d="M 1007.000000 691.000000 L 1068.000000,701.000000 1037.000000,723.000000 Z" fill="rgb(84,45,33)" fill-opacity="1" />
<path d="M 1007.000000 691.000000 L 1046.000000,603.000000 1068.000000,701.000000 Z" fill="rgb(56,32,22)" fill-opacity="1" />
<path d="M 750.963246 428.652305 L 831.000000,406.000000 825.000000,467.000000 Z" fill="rgb(210,125,100)" fill-opacity="1" />
<path d="M 828.000000 379.000000 L 846.000000,330.000000 943.000000,440.000000 Z" fill="rgb(99,37,24)" fill-opacity="1" />
<path d="M 830.000000 331.000000 L 846.000000,330.000000 828.000000,379.000000 Z" fill="rgb(70,59,62)" fill-opacity="1" />
<path d="M 872.000000 304.000000 L 880.000000,281.000000 899.000000,297.000000 Z" fill="rgb(83,94,96)" fill-opacity="1" />
<path d="M 848.000000 308.000000 L 856.000000,311.000000 846.000000,330.000000 Z" fill="rgb(179,196,214)" fill-opacity="1" />
<path d="M 856.000000 293.000000 L 838.000000,289.000000 851.000000,271.000000 Z" fill="rgb(216,231,252)" fill-opacity="1" />
<path d="M 998.000000 497.000000 L 943.000000,440.000000 1107.000000,417.000000 Z" fill="rgb(92,40,27)" fill-opacity="1" />
<path d="M 831.000000 406.000000 L 828.000000,379.000000 943.000000,440.000000 Z" fill="rgb(106,42,32)" fill-opacity="1" />
<path d="M 1060.000000 580.000000 L 998.000000,497.000000 1074.000000,534.000000 Z" fill="rgb(95,47,27)" fill-opacity="1" />
<path d="M 1046.000000 603.000000 L 1002.000000,693.000000 998.000000,497.000000 Z" fill="rgb(74,30,19)" fill-opacity="1" />
<path d="M 998.000000 497.000000 L 1060.000000,580.000000 1046.000000,603.000000 Z" fill="rgb(96,40,23)" fill-opacity="1" />
<path d="M 1074.000000 534.000000 L 1119.000000,563.000000 1060.000000,580.000000 Z" fill="rgb(100,46,34)" fill-opacity="1" />
<path d="M 1114.323081 523.294985 L 1084.000000,526.000000 1126.000000,466.000000 Z" fill="rgb(121,61,50)" fill-opacity="1" />
<path d="M 1124.000000 545.000000 L 1119.000000,563.000000 1084.000000,526.000000 Z" fill="rgb(145,83,65)" fill-opacity="1" />
<path d="M 1126.000000 466.000000 L 1107.000000,417.000000 1119.000000,417.000000 Z" fill="rgb(153,78,55)" fill-opacity="1" />
<path d="M 943.000000 440.000000 L 1004.000000,307.000000 1107.000000,417.000000 Z" fill="rgb(92,40,27)" fill-opacity="1" />
<path d="M 1189.600439 527.093459 L 1114.323081,523.294985 1126.000000,466.000000 Z" fill="rgb(234,248,251)" fill-opacity="1" />
<path d="M 1124.000000 545.000000 L 1084.000000,526.000000 1114.323081,523.294985 Z" fill="rgb(121,61,50)" fill-opacity="1" />
<path d="M 679.529966 217.681057 L 851.000000,271.000000 838.000000,289.000000 Z" fill="rgb(235,250,253)" fill-opacity="1" />
<path d="M 967.000000 237.000000 L 891.000000,255.000000 679.529966,217.681057 Z" fill="rgb(236,250,253)" fill-opacity="1" />
<path d="M 846.000000 330.000000 L 899.000000,297.000000 943.000000,440.000000 Z" fill="rgb(65,32,27)" fill-opacity="1" />
<path d="M 846.000000 330.000000 L 856.000000,311.000000 872.000000,304.000000 Z" fill="rgb(212,228,244)" fill-opacity="1" />
<path d="M 880.000000 281.000000 L 913.000000,278.000000 899.000000,297.000000 Z" fill="rgb(4,14,16)" fill-opacity="1" />
<path d="M 880.000000 281.000000 L 851.000000,271.000000 891.000000,255.000000 Z" fill="rgb(226,242,254)" fill-opacity="1" />
<path d="M 943.000000 440.000000 L 922.000000,292.000000 1004.000000,307.000000 Z" fill="rgb(38,21,14)" fill-opacity="1" />
<path d="M 899.000000 297.000000 L 913.000000,278.000000 922.000000,292.000000 Z" fill="rgb(28,52,64)" fill-opacity="1" />
<path d="M 848.000000 308.000000 L 828.000000,305.000000 838.000000,289.000000 Z" fill="rgb(169,187,209)" fill-opacity="1" />
<path d="M 848.000000 308.000000 L 830.000000,331.000000 828.000000,305.000000 Z" fill="rgb(110,130,149)" fill-opacity="1" />
<path d="M 856.000000 293.000000 L 851.000000,271.000000 880.000000,281.000000 Z" fill="rgb(96,114,124)" fill-opacity="1" />
<path d="M 932.000000 261.000000 L 967.000000,237.000000 979.000000,240.000000 Z" fill="rgb(216,231,234)" fill-opacity="1" />
<path d="M 872.000000 304.000000 L 856.000000,293.000000 880.000000,281.000000 Z" fill="rgb(39,51,65)" fill-opacity="1" />
<path d="M 856.000000 311.000000 L 848.000000,308.000000 856.000000,293.000000 Z" fill="rgb(57,75,97)" fill-opacity="1" />
<path d="M 846.000000 330.000000 L 872.000000,304.000000 899.000000,297.000000 Z" fill="rgb(37,52,59)" fill-opacity="1" />
<path d="M 856.000000 311.000000 L 856.000000,293.000000 872.000000,304.000000 Z" fill="rgb(60,75,98)" fill-opacity="1" />
<path d="M 679.529966 217.681057 L 891.000000,255.000000 851.000000,271.000000 Z" fill="rgb(235,249,252)" fill-opacity="1" />
<path d="M 679.529966 217.681057 L 1080.000000,176.000000 967.000000,237.000000 Z" fill="rgb(236,250,253)" fill-opacity="1" />
<path d="M 913.000000 278.000000 L 904.000000,264.000000 924.000000,277.000000 Z" fill="rgb(5,20,25)" fill-opacity="1" />
<path d="M 913.000000 278.000000 L 880.000000,281.000000 904.000000,264.000000 Z" fill="rgb(89,102,110)" fill-opacity="1" />
<path d="M 904.000000 264.000000 L 932.000000,261.000000 924.000000,277.000000 Z" fill="rgb(43,52,51)" fill-opacity="1" />
<path d="M 904.000000 264.000000 L 891.000000,255.000000 932.000000,261.000000 Z" fill="rgb(137,153,166)" fill-opacity="1" />
<path d="M 1026.000000 221.000000 L 967.000000,237.000000 1080.000000,176.000000 Z" fill="rgb(227,244,252)" fill-opacity="1" />
<path d="M 932.000000 261.000000 L 891.000000,255.000000 967.000000,237.000000 Z" fill="rgb(226,240,253)" fill-opacity="1" />
<path d="M 1036.000000 221.000000 L 1026.000000,221.000000 1073.000000,188.000000 Z" fill="rgb(11,11,9)" fill-opacity="1" />
<path d="M 979.000000 240.000000 L 967.000000,237.000000 1026.000000,221.000000 Z" fill="rgb(194,211,221)" fill-opacity="1" />
<path d="M 1004.000000 307.000000 L 979.000000,240.000000 1026.000000,221.000000 Z" fill="rgb(17,13,12)" fill-opacity="1" />
<path d="M 1004.000000 307.000000 L 932.000000,261.000000 979.000000,240.000000 Z" fill="rgb(12,18,18)" fill-opacity="1" />
<path d="M 1184.288211 333.725122 L 1036.000000,221.000000 1073.000000,188.000000 Z" fill="rgb(13,19,19)" fill-opacity="1" />
<path d="M 1184.288211 333.725122 L 1004.000000,307.000000 1036.000000,221.000000 Z" fill="rgb(114,60,60)" fill-opacity="1" />
<path d="M 1118.000000 156.000000 L 1080.000000,176.000000 679.529966,217.681057 Z" fill="rgb(236,250,253)" fill-opacity="1" />
<path d="M 1118.000000 156.000000 L 1150.000000,167.000000 1080.000000,176.000000 Z" fill="rgb(37,43,51)" fill-opacity="1" />
<path d="M 1160.000000 144.000000 L 1118.000000,156.000000 363.879580,45.836319 Z" fill="rgb(236,250,253)" fill-opacity="1" />
<path d="M 1150.000000 167.000000 L 1187.000000,152.000000 1204.000000,230.000000 Z" fill="rgb(14,16,13)" fill-opacity="1" />
<path d="M 1190.000000 150.000000 L 1187.000000,152.000000 1178.000000,144.000000 Z" fill="rgb(192,203,223)" fill-opacity="1" />
<path d="M 1155.000000 156.000000 L 1187.000000,152.000000 1150.000000,167.000000 Z" fill="rgb(45,56,60)" fill-opacity="1" />
<path d="M 1220.000000 150.000000 L 1178.000000,144.000000 1285.000000,139.000000 Z" fill="rgb(232,245,253)" fill-opacity="1" />
<path d="M 1160.000000 144.000000 L 363.879580,45.836319 1409.766224,34.636127 Z" fill="rgb(235,249,250)" fill-opacity="1" />
<path d="M 1155.000000 156.000000 L 1178.000000,144.000000 1187.000000,152.000000 Z" fill="rgb(106,114,132)" fill-opacity="1" />
<path d="M 1190.000000 150.000000 L 1208.000000,158.000000 1187.000000,152.000000 Z" fill="rgb(212,225,246)" fill-opacity="1" />
<path d="M 1278.000000 216.000000 L 1220.000000,150.000000 1265.000000,152.000000 Z" fill="rgb(18,22,25)" fill-opacity="1" />
<path d="M 1190.000000 150.000000 L 1178.000000,144.000000 1220.000000,150.000000 Z" fill="rgb(219,233,254)" fill-opacity="1" />
<path d="M 1208.000000 158.000000 L 1204.000000,230.000000 1187.000000,152.000000 Z" fill="rgb(14,16,13)" fill-opacity="1" />
<path d="M 1204.000000 230.000000 L 1073.000000,188.000000 1150.000000,167.000000 Z" fill="rgb(7,6,4)" fill-opacity="1" />
<path d="M 1118.000000 156.000000 L 1155.000000,156.000000 1150.000000,167.000000 Z" fill="rgb(140,148,161)" fill-opacity="1" />
<path d="M 1160.000000 144.000000 L 1178.000000,144.000000 1155.000000,156.000000 Z" fill="rgb(131,145,171)" fill-opacity="1" />
<path d="M 1220.000000 150.000000 L 1278.000000,216.000000 1208.000000,158.000000 Z" fill="rgb(18,22,25)" fill-opacity="1" />
<path d="M 1222.000000 243.000000 L 1270.719604,302.058807 1184.288211,333.725122 Z" fill="rgb(74,37,28)" fill-opacity="1" />
<path d="M 1208.000000 158.000000 L 1278.000000,216.000000 1204.000000,230.000000 Z" fill="rgb(38,32,36)" fill-opacity="1" />
<path d="M 1305.000000 264.000000 L 1270.719604,302.058807 1222.000000,243.000000 Z" fill="rgb(74,37,28)" fill-opacity="1" />
<path d="M 1226.000000 350.000000 L 1270.719604,302.058807 1305.000000,346.000000 Z" fill="rgb(64,30,20)" fill-opacity="1" />
<path d="M 1226.000000 350.000000 L 1211.000000,349.000000 1270.719604,302.058807 Z" fill="rgb(74,37,28)" fill-opacity="1" />
<path d="M 1294.000000 187.000000 L 1278.000000,216.000000 1265.000000,152.000000 Z" fill="rgb(40,21,14)" fill-opacity="1" />
<path d="M 1305.000000 264.000000 L 1222.000000,243.000000 1278.000000,216.000000 Z" fill="rgb(47,21,8)" fill-opacity="1" />
<path d="M 1303.000000 163.000000 L 1301.000000,198.000000 1294.000000,187.000000 Z" fill="rgb(137,103,101)" fill-opacity="1" />
<path d="M 1302.000000 204.000000 L 1305.000000,264.000000 1278.000000,216.000000 Z" fill="rgb(157,82,59)" fill-opacity="1" />
<path d="M 1338.000000 255.000000 L 1302.000000,204.000000 1301.000000,198.000000 Z" fill="rgb(58,37,44)" fill-opacity="1" />
<path d="M 1338.000000 255.000000 L 1305.000000,264.000000 1302.000000,204.000000 Z" fill="rgb(58,37,44)" fill-opacity="1" />
<path d="M 1338.000000 255.000000 L 1303.000000,163.000000 1409.766224,34.636127 Z" fill="rgb(228,245,252)" fill-opacity="1" />
<path d="M 1338.000000 255.000000 L 1301.000000,198.000000 1303.000000,163.000000 Z" fill="rgb(226,243,250)" fill-opacity="1" />
<path d="M 1303.000000 163.000000 L 1294.000000,187.000000 1290.000000,166.000000 Z" fill="rgb(119,66,62)" fill-opacity="1" />
<path d="M 1301.000000 198.000000 L 1278.000000,216.000000 1294.000000,187.000000 Z" fill="rgb(68,46,48)" fill-opacity="1" />
<path d="M 1290.000000 166.000000 L 1285.000000,139.000000 1303.000000,163.000000 Z" fill="rgb(237,248,250)" fill-opacity="1" />
<path d="M 1265.000000 152.000000 L 1220.000000,150.000000 1285.000000,139.000000 Z" fill="rgb(214,227,244)" fill-opacity="1" />
<path d="M 1285.000000 139.000000 L 1409.766224,34.636127 1303.000000,163.000000 Z" fill="rgb(228,245,252)" fill-opacity="1" />
<path d="M 1285.000000 139.000000 L 1178.000000,144.000000 1409.766224,34.636127 Z" fill="rgb(230,248,252)" fill-opacity="1" />
<path d="M 1408.000000 399.000000 L 1504.000000,0.000000 1481.240919,650.391810 Z" fill="rgb(228,245,252)" fill-opacity="1" />
<path d="M 1409.766224 34.636127 L 363.879580,45.836319 1504.000000,0.000000 Z" fill="rgb(235,249,250)" fill-opacity="1" />
</g>
</svg>